<mxfile host="app.diagrams.net" agent="Mozilla/5.0 (Windows NT 10.0; Win64; x64) AppleWebKit/537.36 (KHTML, like Gecko) Chrome/140.0.0.0 Safari/537.36" version="28.2.4">
  <diagram name="Trang-1" id="9BI4hxC72RICV6wvpm1P">
    <mxGraphModel grid="1" page="1" gridSize="10" guides="1" tooltips="1" connect="1" arrows="1" fold="1" pageScale="1" pageWidth="2339" pageHeight="3300" math="0" shadow="0">
      <root>
        <mxCell id="0" />
        <mxCell id="1" parent="0" />
        <UserObject label="" plantUmlData="{&quot;data&quot;:&quot;@startuml\nskinparam monochrome true\n\n&#39; Thực thể từ module Kiểm soát truy cập\nclass User {\n  - ID\n  - Email\n  - Mật_khẩu\n}\n\n&#39; Thực thể từ module Tồn kho\nclass Kho {\n  - ID\n  - Tên_kho\n  - Tổng_số_lượng\n  - Địa_điểm\n}\n\n&#39; Người mua kế thừa từ User\nUser &lt;|-- Buyer\nclass Buyer {\n  - Tên\n  - Số_điện_thoại\n  + Lọc_sản_phẩm()\n  + Xem_chi_tiết_sản_phẩm()\n}\n\n&#39; Quản trị viên kế thừa từ User\nUser &lt;|-- Admin\nclass Admin {\n  + CRUD_sản_phẩm()\n  + Gán_số_lượng_tồn_kho()\n}\n\n&#39; Sản phẩm\nclass Product {\n  - ID\n  - Tên\n  - Giá\n  - Hình_ảnh\n  - Info_tồn_kho_ID\n  + Xem_thông_tin()\n}\n\n&#39; Sản phẩm hot kế thừa từ Sản phẩm\nProduct &lt;|-- HotProduct\nclass HotProduct {\n  - Ưu_đãi\n  + Xem_ưu_đãi()\n}\n\n&#39; Info tồn kho kế thừa từ Kho\nKho &lt;|-- InventoryInfo\nclass InventoryInfo {\n  - Số_lượng_tồn\n  - Ngày_cập_nhật\n}\n\n&#39; Mối quan hệ\nInventoryInfo \&quot;1\&quot; -- \&quot;1..*\&quot; Product\n\nBuyer \&quot;1\&quot; -- \&quot;1..*\&quot; Product : lọc &gt;\nBuyer  --  Product : chi tiết &gt;\nAdmin -- Product\nnote top of Admin\n  Quản trị viên thực hiện Create, Read, Update, Delete \n  và gán số lượng tồn kho ban đầu lên Sản phẩm\nend note\n\n@enduml\n&quot;,&quot;format&quot;:&quot;svg&quot;}" id="uVMDQoxGMwyd6C8O165r-1">
          <mxCell style="shape=image;noLabel=1;verticalAlign=top;aspect=fixed;imageAspect=0;image=data:image/svg+xml,PHN2ZyB4bWxucz0iaHR0cDovL3d3dy53My5vcmcvMjAwMC9zdmciIHhtbG5zOnhsaW5rPSJodHRwOi8vd3d3LnczLm9yZy8xOTk5L3hsaW5rIiBjb250ZW50U3R5bGVUeXBlPSJ0ZXh0L2NzcyIgZGF0YS1kaWFncmFtLXR5cGU9IkNMQVNTIiBoZWlnaHQ9IjY0MnB4IiBwcmVzZXJ2ZUFzcGVjdFJhdGlvPSJub25lIiBzdHlsZT0id2lkdGg6NjgycHg7aGVpZ2h0OjY0MnB4O2JhY2tncm91bmQ6I0ZGRkZGRjsiIHZlcnNpb249IjEuMSIgdmlld0JveD0iMCAwIDY4MiA2NDIiIHdpZHRoPSI2ODJweCIgem9vbUFuZFBhbj0ibWFnbmlmeSI+PGRlZnMvPjxnPjwhLS1jbGFzcyBVc2VyLS0+PGcgY2xhc3M9ImVudGl0eSIgZGF0YS1lbnRpdHk9IlVzZXIiIGRhdGEtc291cmNlLWxpbmU9IjQiIGRhdGEtdWlkPSJlbnQwMDAyIiBpZD0iZW50aXR5X1VzZXIiPjxyZWN0IGZpbGw9IiNGMUYxRjEiIGhlaWdodD0iOTIuOTUzMSIgcng9IjIuNSIgcnk9IjIuNSIgc3R5bGU9InN0cm9rZTojMTgxODE4O3N0cm9rZS13aWR0aDowLjU7IiB3aWR0aD0iODIiIHg9IjM5LjUiIHk9IjE0LjUiLz48ZWxsaXBzZSBjeD0iNjQuNCIgY3k9IjMwLjUiIGZpbGw9IiNDMkMyQzIiIHJ4PSIxMSIgcnk9IjExIiBzdHlsZT0ic3Ryb2tlOiMxODE4MTg7c3Ryb2tlLXdpZHRoOjE7Ii8+PHBhdGggZD0iTTYyLjAyNSwzNC43NSBMNjIuMDI1LDM2LjUgTDY2Ljk2MjUsMzYuNSBMNjYuOTYyNSwzNC43NSBMNjIuMDI1LDM0Ljc1IFogTTYyLjcxMjUsMzUuNDM3NSBRNjIuNzEyNSwzNS40Mzc1IDYyLjcxMjUsMjYuMjUgTDYwLjk2MjUsMjYuMjUgUTYwLjk2MjUsMjYuMjUgNjAuOTYyNSwzNS40Mzc1IEw2Mi43MTI1LDM1LjQzNzUgWiBNNjYuMjc1LDM1LjQzNzUgTDY4LjAyNSwzNS40Mzc1IFE2OC4wMjUsMzUuNDM3NSA2OC4wMjUsMzIuNjI1IEw2Ni4yNzUsMzIuNjI1IFE2Ni4yNzUsMzIuNjI1IDY2LjI3NSwzNS40Mzc1IFogTTY2LjI3NSwyNi4yNSBRNjYuMjc1LDI2LjI1IDY2LjI3NSwyOS4wNjI1IEw2OC4wMjUsMjkuMDYyNSBRNjguMDI1LDI5LjA2MjUgNjguMDI1LDI2LjI1IEw2Ni4yNzUsMjYuMjUgWiBNNjIuMDI1LDI2LjkzNzUgTDY2Ljk2MjUsMjYuOTM3NSBMNjYuOTYyNSwyNS4xODc1IEw2Mi4wMjUsMjUuMTg3NSBMNjIuMDI1LDI2LjkzNzUgWiAiIGZpbGw9IiMwMDAwMDAiLz48dGV4dCBmaWxsPSIjMDAwMDAwIiBmb250LWZhbWlseT0ic2Fucy1zZXJpZiIgZm9udC1zaXplPSIxNCIgbGVuZ3RoQWRqdXN0PSJzcGFjaW5nIiB0ZXh0TGVuZ3RoPSIyOCIgeD0iODAuNiIgeT0iMzYuMjQyMiI+VXNlcjwvdGV4dD48bGluZSBzdHlsZT0ic3Ryb2tlOiMxODE4MTg7c3Ryb2tlLXdpZHRoOjAuNTsiIHgxPSI0MC41IiB4Mj0iMTIwLjUiIHkxPSI0Ni41IiB5Mj0iNDYuNSIvPjxyZWN0IGZpbGw9Im5vbmUiIGhlaWdodD0iNiIgc3R5bGU9InN0cm9rZTojNTk1OTU5O3N0cm9rZS13aWR0aDoxOyIgd2lkdGg9IjYiIHg9IjQ3LjUiIHk9IjU2LjQ5MjIiLz48dGV4dCBmaWxsPSIjMDAwMDAwIiBmb250LWZhbWlseT0ic2Fucy1zZXJpZiIgZm9udC1zaXplPSIxNCIgbGVuZ3RoQWRqdXN0PSJzcGFjaW5nIiB0ZXh0TGVuZ3RoPSIxNCIgeD0iNTkuNSIgeT0iNjMuNzM0NCI+SUQ8L3RleHQ+PHJlY3QgZmlsbD0ibm9uZSIgaGVpZ2h0PSI2IiBzdHlsZT0ic3Ryb2tlOiM1OTU5NTk7c3Ryb2tlLXdpZHRoOjE7IiB3aWR0aD0iNiIgeD0iNDcuNSIgeT0iNzEuNDc2NiIvPjx0ZXh0IGZpbGw9IiMwMDAwMDAiIGZvbnQtZmFtaWx5PSJzYW5zLXNlcmlmIiBmb250LXNpemU9IjE0IiBsZW5ndGhBZGp1c3Q9InNwYWNpbmciIHRleHRMZW5ndGg9IjM1IiB4PSI1OS41IiB5PSI3OC43MTg4Ij5FbWFpbDwvdGV4dD48cmVjdCBmaWxsPSJub25lIiBoZWlnaHQ9IjYiIHN0eWxlPSJzdHJva2U6IzU5NTk1OTtzdHJva2Utd2lkdGg6MTsiIHdpZHRoPSI2IiB4PSI0Ny41IiB5PSI4Ni40NjA5Ii8+PHRleHQgZmlsbD0iIzAwMDAwMCIgZm9udC1mYW1pbHk9InNhbnMtc2VyaWYiIGZvbnQtc2l6ZT0iMTQiIGxlbmd0aEFkanVzdD0ic3BhY2luZyIgdGV4dExlbmd0aD0iNTYiIHg9IjU5LjUiIHk9IjkzLjcwMzEiPk0mIzc4NTM7dF9raCYjNzg0OTt1PC90ZXh0PjxsaW5lIHN0eWxlPSJzdHJva2U6IzE4MTgxODtzdHJva2Utd2lkdGg6MC41OyIgeDE9IjQwLjUiIHgyPSIxMjAuNSIgeTE9Ijk5LjQ1MzEiIHkyPSI5OS40NTMxIi8+PC9nPjwhLS1jbGFzcyBLaG8tLT48ZyBjbGFzcz0iZW50aXR5IiBkYXRhLWVudGl0eT0iS2hvIiBkYXRhLXNvdXJjZS1saW5lPSIxMSIgZGF0YS11aWQ9ImVudDAwMDMiIGlkPSJlbnRpdHlfS2hvIj48cmVjdCBmaWxsPSIjRjFGMUYxIiBoZWlnaHQ9IjEwNy45Mzc1IiByeD0iMi41IiByeT0iMi41IiBzdHlsZT0ic3Ryb2tlOiMxODE4MTg7c3Ryb2tlLXdpZHRoOjAuNTsiIHdpZHRoPSIxMTciIHg9IjU1OCIgeT0iNyIvPjxlbGxpcHNlIGN4PSI2MDEuOCIgY3k9IjIzIiBmaWxsPSIjQzJDMkMyIiByeD0iMTEiIHJ5PSIxMSIgc3R5bGU9InN0cm9rZTojMTgxODE4O3N0cm9rZS13aWR0aDoxOyIvPjxwYXRoIGQ9Ik01OTkuNDI1LDI3LjI1IEw1OTkuNDI1LDI5IEw2MDQuMzYyNSwyOSBMNjA0LjM2MjUsMjcuMjUgTDU5OS40MjUsMjcuMjUgWiBNNjAwLjExMjUsMjcuOTM3NSBRNjAwLjExMjUsMjcuOTM3NSA2MDAuMTEyNSwxOC43NSBMNTk4LjM2MjUsMTguNzUgUTU5OC4zNjI1LDE4Ljc1IDU5OC4zNjI1LDI3LjkzNzUgTDYwMC4xMTI1LDI3LjkzNzUgWiBNNjAzLjY3NSwyNy45Mzc1IEw2MDUuNDI1LDI3LjkzNzUgUTYwNS40MjUsMjcuOTM3NSA2MDUuNDI1LDI1LjEyNSBMNjAzLjY3NSwyNS4xMjUgUTYwMy42NzUsMjUuMTI1IDYwMy42NzUsMjcuOTM3NSBaIE02MDMuNjc1LDE4Ljc1IFE2MDMuNjc1LDE4Ljc1IDYwMy42NzUsMjEuNTYyNSBMNjA1LjQyNSwyMS41NjI1IFE2MDUuNDI1LDIxLjU2MjUgNjA1LjQyNSwxOC43NSBMNjAzLjY3NSwxOC43NSBaIE01OTkuNDI1LDE5LjQzNzUgTDYwNC4zNjI1LDE5LjQzNzUgTDYwNC4zNjI1LDE3LjY4NzUgTDU5OS40MjUsMTcuNjg3NSBMNTk5LjQyNSwxOS40Mzc1IFogIiBmaWxsPSIjMDAwMDAwIi8+PHRleHQgZmlsbD0iIzAwMDAwMCIgZm9udC1mYW1pbHk9InNhbnMtc2VyaWYiIGZvbnQtc2l6ZT0iMTQiIGxlbmd0aEFkanVzdD0ic3BhY2luZyIgdGV4dExlbmd0aD0iMjEiIHg9IjYyMi4yIiB5PSIyOC43NDIyIj5LaG88L3RleHQ+PGxpbmUgc3R5bGU9InN0cm9rZTojMTgxODE4O3N0cm9rZS13aWR0aDowLjU7IiB4MT0iNTU5IiB4Mj0iNjc0IiB5MT0iMzkiIHkyPSIzOSIvPjxyZWN0IGZpbGw9Im5vbmUiIGhlaWdodD0iNiIgc3R5bGU9InN0cm9rZTojNTk1OTU5O3N0cm9rZS13aWR0aDoxOyIgd2lkdGg9IjYiIHg9IjU2NiIgeT0iNDguOTkyMiIvPjx0ZXh0IGZpbGw9IiMwMDAwMDAiIGZvbnQtZmFtaWx5PSJzYW5zLXNlcmlmIiBmb250LXNpemU9IjE0IiBsZW5ndGhBZGp1c3Q9InNwYWNpbmciIHRleHRMZW5ndGg9IjE0IiB4PSI1NzgiIHk9IjU2LjIzNDQiPklEPC90ZXh0PjxyZWN0IGZpbGw9Im5vbmUiIGhlaWdodD0iNiIgc3R5bGU9InN0cm9rZTojNTk1OTU5O3N0cm9rZS13aWR0aDoxOyIgd2lkdGg9IjYiIHg9IjU2NiIgeT0iNjMuOTc2NiIvPjx0ZXh0IGZpbGw9IiMwMDAwMDAiIGZvbnQtZmFtaWx5PSJzYW5zLXNlcmlmIiBmb250LXNpemU9IjE0IiBsZW5ndGhBZGp1c3Q9InNwYWNpbmciIHRleHRMZW5ndGg9IjQ5IiB4PSI1NzgiIHk9IjcxLjIxODgiPlQmIzIzNDtuX2tobzwvdGV4dD48cmVjdCBmaWxsPSJub25lIiBoZWlnaHQ9IjYiIHN0eWxlPSJzdHJva2U6IzU5NTk1OTtzdHJva2Utd2lkdGg6MTsiIHdpZHRoPSI2IiB4PSI1NjYiIHk9Ijc4Ljk2MDkiLz48dGV4dCBmaWxsPSIjMDAwMDAwIiBmb250LWZhbWlseT0ic2Fucy1zZXJpZiIgZm9udC1zaXplPSIxNCIgbGVuZ3RoQWRqdXN0PSJzcGFjaW5nIiB0ZXh0TGVuZ3RoPSI5MSIgeD0iNTc4IiB5PSI4Ni4yMDMxIj5UJiM3ODkzO25nX3MmIzc4ODk7X2wmIzQzMjsmIzc5MDc7bmc8L3RleHQ+PHJlY3QgZmlsbD0ibm9uZSIgaGVpZ2h0PSI2IiBzdHlsZT0ic3Ryb2tlOiM1OTU5NTk7c3Ryb2tlLXdpZHRoOjE7IiB3aWR0aD0iNiIgeD0iNTY2IiB5PSI5My45NDUzIi8+PHRleHQgZmlsbD0iIzAwMDAwMCIgZm9udC1mYW1pbHk9InNhbnMtc2VyaWYiIGZvbnQtc2l6ZT0iMTQiIGxlbmd0aEFkanVzdD0ic3BhY2luZyIgdGV4dExlbmd0aD0iNTYiIHg9IjU3OCIgeT0iMTAxLjE4NzUiPiYjMjcyOyYjNzg4MzthXyYjMjczO2kmIzc4NzU7bTwvdGV4dD48bGluZSBzdHlsZT0ic3Ryb2tlOiMxODE4MTg7c3Ryb2tlLXdpZHRoOjAuNTsiIHgxPSI1NTkiIHgyPSI2NzQiIHkxPSIxMDYuOTM3NSIgeTI9IjEwNi45Mzc1Ii8+PC9nPjwhLS1jbGFzcyBCdXllci0tPjxnIGNsYXNzPSJlbnRpdHkiIGRhdGEtZW50aXR5PSJCdXllciIgZGF0YS1zb3VyY2UtbGluZT0iMTkiIGRhdGEtdWlkPSJlbnQwMDA0IiBpZD0iZW50aXR5X0J1eWVyIj48cmVjdCBmaWxsPSIjRjFGMUYxIiBoZWlnaHQ9IjEwNy45Mzc1IiByeD0iMi41IiByeT0iMi41IiBzdHlsZT0ic3Ryb2tlOiMxODE4MTg7c3Ryb2tlLXdpZHRoOjAuNTsiIHdpZHRoPSIxODciIHg9IjciIHk9IjE3NiIvPjxlbGxpcHNlIGN4PSI3OC43NSIgY3k9IjE5MiIgZmlsbD0iI0MyQzJDMiIgcng9IjExIiByeT0iMTEiIHN0eWxlPSJzdHJva2U6IzE4MTgxODtzdHJva2Utd2lkdGg6MTsiLz48cGF0aCBkPSJNNzYuMzc1LDE5Ni4yNSBMNzYuMzc1LDE5OCBMODEuMzEyNSwxOTggTDgxLjMxMjUsMTk2LjI1IEw3Ni4zNzUsMTk2LjI1IFogTTc3LjA2MjUsMTk2LjkzNzUgUTc3LjA2MjUsMTk2LjkzNzUgNzcuMDYyNSwxODcuNzUgTDc1LjMxMjUsMTg3Ljc1IFE3NS4zMTI1LDE4Ny43NSA3NS4zMTI1LDE5Ni45Mzc1IEw3Ny4wNjI1LDE5Ni45Mzc1IFogTTgwLjYyNSwxOTYuOTM3NSBMODIuMzc1LDE5Ni45Mzc1IFE4Mi4zNzUsMTk2LjkzNzUgODIuMzc1LDE5NC4xMjUgTDgwLjYyNSwxOTQuMTI1IFE4MC42MjUsMTk0LjEyNSA4MC42MjUsMTk2LjkzNzUgWiBNODAuNjI1LDE4Ny43NSBRODAuNjI1LDE4Ny43NSA4MC42MjUsMTkwLjU2MjUgTDgyLjM3NSwxOTAuNTYyNSBRODIuMzc1LDE5MC41NjI1IDgyLjM3NSwxODcuNzUgTDgwLjYyNSwxODcuNzUgWiBNNzYuMzc1LDE4OC40Mzc1IEw4MS4zMTI1LDE4OC40Mzc1IEw4MS4zMTI1LDE4Ni42ODc1IEw3Ni4zNzUsMTg2LjY4NzUgTDc2LjM3NSwxODguNDM3NSBaICIgZmlsbD0iIzAwMDAwMCIvPjx0ZXh0IGZpbGw9IiMwMDAwMDAiIGZvbnQtZmFtaWx5PSJzYW5zLXNlcmlmIiBmb250LXNpemU9IjE0IiBsZW5ndGhBZGp1c3Q9InNwYWNpbmciIHRleHRMZW5ndGg9IjM1IiB4PSI5OS4yNSIgeT0iMTk3Ljc0MjIiPkJ1eWVyPC90ZXh0PjxsaW5lIHN0eWxlPSJzdHJva2U6IzE4MTgxODtzdHJva2Utd2lkdGg6MC41OyIgeDE9IjgiIHgyPSIxOTMiIHkxPSIyMDgiIHkyPSIyMDgiLz48cmVjdCBmaWxsPSJub25lIiBoZWlnaHQ9IjYiIHN0eWxlPSJzdHJva2U6IzU5NTk1OTtzdHJva2Utd2lkdGg6MTsiIHdpZHRoPSI2IiB4PSIxNSIgeT0iMjE3Ljk5MjIiLz48dGV4dCBmaWxsPSIjMDAwMDAwIiBmb250LWZhbWlseT0ic2Fucy1zZXJpZiIgZm9udC1zaXplPSIxNCIgbGVuZ3RoQWRqdXN0PSJzcGFjaW5nIiB0ZXh0TGVuZ3RoPSIyMSIgeD0iMjciIHk9IjIyNS4yMzQ0Ij5UJiMyMzQ7bjwvdGV4dD48cmVjdCBmaWxsPSJub25lIiBoZWlnaHQ9IjYiIHN0eWxlPSJzdHJva2U6IzU5NTk1OTtzdHJva2Utd2lkdGg6MTsiIHdpZHRoPSI2IiB4PSIxNSIgeT0iMjMyLjk3NjYiLz48dGV4dCBmaWxsPSIjMDAwMDAwIiBmb250LWZhbWlseT0ic2Fucy1zZXJpZiIgZm9udC1zaXplPSIxNCIgbGVuZ3RoQWRqdXN0PSJzcGFjaW5nIiB0ZXh0TGVuZ3RoPSI5MSIgeD0iMjciIHk9IjI0MC4yMTg4Ij5TJiM3ODg5O18mIzI3MztpJiM3ODc5O25fdGhvJiM3ODQxO2k8L3RleHQ+PGxpbmUgc3R5bGU9InN0cm9rZTojMTgxODE4O3N0cm9rZS13aWR0aDowLjU7IiB4MT0iOCIgeDI9IjE5MyIgeTE9IjI0NS45Njg4IiB5Mj0iMjQ1Ljk2ODgiLz48ZWxsaXBzZSBjeD0iMTgiIGN5PSIyNTguOTYwOSIgZmlsbD0iI0E2QTZBNiIgcng9IjMiIHJ5PSIzIiBzdHlsZT0ic3Ryb2tlOiM1NDU0NTQ7c3Ryb2tlLXdpZHRoOjE7Ii8+PHRleHQgZmlsbD0iIzAwMDAwMCIgZm9udC1mYW1pbHk9InNhbnMtc2VyaWYiIGZvbnQtc2l6ZT0iMTQiIGxlbmd0aEFkanVzdD0ic3BhY2luZyIgdGV4dExlbmd0aD0iOTgiIHg9IjI3IiB5PSIyNjMuMjAzMSI+TCYjNzg4NTtjX3MmIzc4NDM7bl9waCYjNzg0OTttKCk8L3RleHQ+PGVsbGlwc2UgY3g9IjE4IiBjeT0iMjczLjk0NTMiIGZpbGw9IiNBNkE2QTYiIHJ4PSIzIiByeT0iMyIgc3R5bGU9InN0cm9rZTojNTQ1NDU0O3N0cm9rZS13aWR0aDoxOyIvPjx0ZXh0IGZpbGw9IiMwMDAwMDAiIGZvbnQtZmFtaWx5PSJzYW5zLXNlcmlmIiBmb250LXNpemU9IjE0IiBsZW5ndGhBZGp1c3Q9InNwYWNpbmciIHRleHRMZW5ndGg9IjE2MSIgeD0iMjciIHk9IjI3OC4xODc1Ij5YZW1fY2hpX3RpJiM3ODcxO3RfcyYjNzg0MztuX3BoJiM3ODQ5O20oKTwvdGV4dD48L2c+PCEtLWNsYXNzIEFkbWluLS0+PGcgY2xhc3M9ImVudGl0eSIgZGF0YS1lbnRpdHk9IkFkbWluIiBkYXRhLXNvdXJjZS1saW5lPSIyOCIgZGF0YS11aWQ9ImVudDAwMDYiIGlkPSJlbnRpdHlfQWRtaW4iPjxyZWN0IGZpbGw9IiNGMUYxRjEiIGhlaWdodD0iNzcuOTY4OCIgcng9IjIuNSIgcnk9IjIuNSIgc3R5bGU9InN0cm9rZTojMTgxODE4O3N0cm9rZS13aWR0aDowLjU7IiB3aWR0aD0iMTgwIiB4PSIyMjkuNSIgeT0iMTkxIi8+PGVsbGlwc2UgY3g9IjI5Ny43NSIgY3k9IjIwNyIgZmlsbD0iI0MyQzJDMiIgcng9IjExIiByeT0iMTEiIHN0eWxlPSJzdHJva2U6IzE4MTgxODtzdHJva2Utd2lkdGg6MTsiLz48cGF0aCBkPSJNMjk1LjM3NSwyMTEuMjUgTDI5NS4zNzUsMjEzIEwzMDAuMzEyNSwyMTMgTDMwMC4zMTI1LDIxMS4yNSBMMjk1LjM3NSwyMTEuMjUgWiBNMjk2LjA2MjUsMjExLjkzNzUgUTI5Ni4wNjI1LDIxMS45Mzc1IDI5Ni4wNjI1LDIwMi43NSBMMjk0LjMxMjUsMjAyLjc1IFEyOTQuMzEyNSwyMDIuNzUgMjk0LjMxMjUsMjExLjkzNzUgTDI5Ni4wNjI1LDIxMS45Mzc1IFogTTI5OS42MjUsMjExLjkzNzUgTDMwMS4zNzUsMjExLjkzNzUgUTMwMS4zNzUsMjExLjkzNzUgMzAxLjM3NSwyMDkuMTI1IEwyOTkuNjI1LDIwOS4xMjUgUTI5OS42MjUsMjA5LjEyNSAyOTkuNjI1LDIxMS45Mzc1IFogTTI5OS42MjUsMjAyLjc1IFEyOTkuNjI1LDIwMi43NSAyOTkuNjI1LDIwNS41NjI1IEwzMDEuMzc1LDIwNS41NjI1IFEzMDEuMzc1LDIwNS41NjI1IDMwMS4zNzUsMjAyLjc1IEwyOTkuNjI1LDIwMi43NSBaIE0yOTUuMzc1LDIwMy40Mzc1IEwzMDAuMzEyNSwyMDMuNDM3NSBMMzAwLjMxMjUsMjAxLjY4NzUgTDI5NS4zNzUsMjAxLjY4NzUgTDI5NS4zNzUsMjAzLjQzNzUgWiAiIGZpbGw9IiMwMDAwMDAiLz48dGV4dCBmaWxsPSIjMDAwMDAwIiBmb250LWZhbWlseT0ic2Fucy1zZXJpZiIgZm9udC1zaXplPSIxNCIgbGVuZ3RoQWRqdXN0PSJzcGFjaW5nIiB0ZXh0TGVuZ3RoPSIzNSIgeD0iMzE4LjI1IiB5PSIyMTIuNzQyMiI+QWRtaW48L3RleHQ+PGxpbmUgc3R5bGU9InN0cm9rZTojMTgxODE4O3N0cm9rZS13aWR0aDowLjU7IiB4MT0iMjMwLjUiIHgyPSI0MDguNSIgeTE9IjIyMyIgeTI9IjIyMyIvPjxsaW5lIHN0eWxlPSJzdHJva2U6IzE4MTgxODtzdHJva2Utd2lkdGg6MC41OyIgeDE9IjIzMC41IiB4Mj0iNDA4LjUiIHkxPSIyMzEiIHkyPSIyMzEiLz48ZWxsaXBzZSBjeD0iMjQwLjUiIGN5PSIyNDMuOTkyMiIgZmlsbD0iI0E2QTZBNiIgcng9IjMiIHJ5PSIzIiBzdHlsZT0ic3Ryb2tlOiM1NDU0NTQ7c3Ryb2tlLXdpZHRoOjE7Ii8+PHRleHQgZmlsbD0iIzAwMDAwMCIgZm9udC1mYW1pbHk9InNhbnMtc2VyaWYiIGZvbnQtc2l6ZT0iMTQiIGxlbmd0aEFkanVzdD0ic3BhY2luZyIgdGV4dExlbmd0aD0iMTA1IiB4PSIyNDkuNSIgeT0iMjQ4LjIzNDQiPkNSVURfcyYjNzg0MztuX3BoJiM3ODQ5O20oKTwvdGV4dD48ZWxsaXBzZSBjeD0iMjQwLjUiIGN5PSIyNTguOTc2NiIgZmlsbD0iI0E2QTZBNiIgcng9IjMiIHJ5PSIzIiBzdHlsZT0ic3Ryb2tlOiM1NDU0NTQ7c3Ryb2tlLXdpZHRoOjE7Ii8+PHRleHQgZmlsbD0iIzAwMDAwMCIgZm9udC1mYW1pbHk9InNhbnMtc2VyaWYiIGZvbnQtc2l6ZT0iMTQiIGxlbmd0aEFkanVzdD0ic3BhY2luZyIgdGV4dExlbmd0aD0iMTU0IiB4PSIyNDkuNSIgeT0iMjYzLjIxODgiPkcmIzIyNTtuX3MmIzc4ODk7X2wmIzQzMjsmIzc5MDc7bmdfdCYjNzg5MTtuX2tobygpPC90ZXh0PjwvZz48IS0tY2xhc3MgUHJvZHVjdC0tPjxnIGNsYXNzPSJlbnRpdHkiIGRhdGEtZW50aXR5PSJQcm9kdWN0IiBkYXRhLXNvdXJjZS1saW5lPSIzNSIgZGF0YS11aWQ9ImVudDAwMDgiIGlkPSJlbnRpdHlfUHJvZHVjdCI+PHJlY3QgZmlsbD0iI0YxRjFGMSIgaGVpZ2h0PSIxMzcuOTA2MyIgcng9IjIuNSIgcnk9IjIuNSIgc3R5bGU9InN0cm9rZTojMTgxODE4O3N0cm9rZS13aWR0aDowLjU7IiB3aWR0aD0iMTMxIiB4PSIxOTgiIHk9IjM1OSIvPjxlbGxpcHNlIGN4PSIyMzUuNSIgY3k9IjM3NSIgZmlsbD0iI0MyQzJDMiIgcng9IjExIiByeT0iMTEiIHN0eWxlPSJzdHJva2U6IzE4MTgxODtzdHJva2Utd2lkdGg6MTsiLz48cGF0aCBkPSJNMjMzLjEyNSwzNzkuMjUgTDIzMy4xMjUsMzgxIEwyMzguMDYyNSwzODEgTDIzOC4wNjI1LDM3OS4yNSBMMjMzLjEyNSwzNzkuMjUgWiBNMjMzLjgxMjUsMzc5LjkzNzUgUTIzMy44MTI1LDM3OS45Mzc1IDIzMy44MTI1LDM3MC43NSBMMjMyLjA2MjUsMzcwLjc1IFEyMzIuMDYyNSwzNzAuNzUgMjMyLjA2MjUsMzc5LjkzNzUgTDIzMy44MTI1LDM3OS45Mzc1IFogTTIzNy4zNzUsMzc5LjkzNzUgTDIzOS4xMjUsMzc5LjkzNzUgUTIzOS4xMjUsMzc5LjkzNzUgMjM5LjEyNSwzNzcuMTI1IEwyMzcuMzc1LDM3Ny4xMjUgUTIzNy4zNzUsMzc3LjEyNSAyMzcuMzc1LDM3OS45Mzc1IFogTTIzNy4zNzUsMzcwLjc1IFEyMzcuMzc1LDM3MC43NSAyMzcuMzc1LDM3My41NjI1IEwyMzkuMTI1LDM3My41NjI1IFEyMzkuMTI1LDM3My41NjI1IDIzOS4xMjUsMzcwLjc1IEwyMzcuMzc1LDM3MC43NSBaIE0yMzMuMTI1LDM3MS40Mzc1IEwyMzguMDYyNSwzNzEuNDM3NSBMMjM4LjA2MjUsMzY5LjY4NzUgTDIzMy4xMjUsMzY5LjY4NzUgTDIzMy4xMjUsMzcxLjQzNzUgWiAiIGZpbGw9IiMwMDAwMDAiLz48dGV4dCBmaWxsPSIjMDAwMDAwIiBmb250LWZhbWlseT0ic2Fucy1zZXJpZiIgZm9udC1zaXplPSIxNCIgbGVuZ3RoQWRqdXN0PSJzcGFjaW5nIiB0ZXh0TGVuZ3RoPSI0OSIgeD0iMjU0LjUiIHk9IjM4MC43NDIyIj5Qcm9kdWN0PC90ZXh0PjxsaW5lIHN0eWxlPSJzdHJva2U6IzE4MTgxODtzdHJva2Utd2lkdGg6MC41OyIgeDE9IjE5OSIgeDI9IjMyOCIgeTE9IjM5MSIgeTI9IjM5MSIvPjxyZWN0IGZpbGw9Im5vbmUiIGhlaWdodD0iNiIgc3R5bGU9InN0cm9rZTojNTk1OTU5O3N0cm9rZS13aWR0aDoxOyIgd2lkdGg9IjYiIHg9IjIwNiIgeT0iNDAwLjk5MjIiLz48dGV4dCBmaWxsPSIjMDAwMDAwIiBmb250LWZhbWlseT0ic2Fucy1zZXJpZiIgZm9udC1zaXplPSIxNCIgbGVuZ3RoQWRqdXN0PSJzcGFjaW5nIiB0ZXh0TGVuZ3RoPSIxNCIgeD0iMjE4IiB5PSI0MDguMjM0NCI+SUQ8L3RleHQ+PHJlY3QgZmlsbD0ibm9uZSIgaGVpZ2h0PSI2IiBzdHlsZT0ic3Ryb2tlOiM1OTU5NTk7c3Ryb2tlLXdpZHRoOjE7IiB3aWR0aD0iNiIgeD0iMjA2IiB5PSI0MTUuOTc2NiIvPjx0ZXh0IGZpbGw9IiMwMDAwMDAiIGZvbnQtZmFtaWx5PSJzYW5zLXNlcmlmIiBmb250LXNpemU9IjE0IiBsZW5ndGhBZGp1c3Q9InNwYWNpbmciIHRleHRMZW5ndGg9IjIxIiB4PSIyMTgiIHk9IjQyMy4yMTg4Ij5UJiMyMzQ7bjwvdGV4dD48cmVjdCBmaWxsPSJub25lIiBoZWlnaHQ9IjYiIHN0eWxlPSJzdHJva2U6IzU5NTk1OTtzdHJva2Utd2lkdGg6MTsiIHdpZHRoPSI2IiB4PSIyMDYiIHk9IjQzMC45NjA5Ii8+PHRleHQgZmlsbD0iIzAwMDAwMCIgZm9udC1mYW1pbHk9InNhbnMtc2VyaWYiIGZvbnQtc2l6ZT0iMTQiIGxlbmd0aEFkanVzdD0ic3BhY2luZyIgdGV4dExlbmd0aD0iMjEiIHg9IjIxOCIgeT0iNDM4LjIwMzEiPkdpJiMyMjU7PC90ZXh0PjxyZWN0IGZpbGw9Im5vbmUiIGhlaWdodD0iNiIgc3R5bGU9InN0cm9rZTojNTk1OTU5O3N0cm9rZS13aWR0aDoxOyIgd2lkdGg9IjYiIHg9IjIwNiIgeT0iNDQ1Ljk0NTMiLz48dGV4dCBmaWxsPSIjMDAwMDAwIiBmb250LWZhbWlseT0ic2Fucy1zZXJpZiIgZm9udC1zaXplPSIxNCIgbGVuZ3RoQWRqdXN0PSJzcGFjaW5nIiB0ZXh0TGVuZ3RoPSI1NiIgeD0iMjE4IiB5PSI0NTMuMTg3NSI+SCYjMjM2O25oXyYjNzg0MztuaDwvdGV4dD48cmVjdCBmaWxsPSJub25lIiBoZWlnaHQ9IjYiIHN0eWxlPSJzdHJva2U6IzU5NTk1OTtzdHJva2Utd2lkdGg6MTsiIHdpZHRoPSI2IiB4PSIyMDYiIHk9IjQ2MC45Mjk3Ii8+PHRleHQgZmlsbD0iIzAwMDAwMCIgZm9udC1mYW1pbHk9InNhbnMtc2VyaWYiIGZvbnQtc2l6ZT0iMTQiIGxlbmd0aEFkanVzdD0ic3BhY2luZyIgdGV4dExlbmd0aD0iMTA1IiB4PSIyMTgiIHk9IjQ2OC4xNzE5Ij5JbmZvX3QmIzc4OTE7bl9raG9fSUQ8L3RleHQ+PGxpbmUgc3R5bGU9InN0cm9rZTojMTgxODE4O3N0cm9rZS13aWR0aDowLjU7IiB4MT0iMTk5IiB4Mj0iMzI4IiB5MT0iNDczLjkyMTkiIHkyPSI0NzMuOTIxOSIvPjxlbGxpcHNlIGN4PSIyMDkiIGN5PSI0ODYuOTE0MSIgZmlsbD0iI0E2QTZBNiIgcng9IjMiIHJ5PSIzIiBzdHlsZT0ic3Ryb2tlOiM1NDU0NTQ7c3Ryb2tlLXdpZHRoOjE7Ii8+PHRleHQgZmlsbD0iIzAwMDAwMCIgZm9udC1mYW1pbHk9InNhbnMtc2VyaWYiIGZvbnQtc2l6ZT0iMTQiIGxlbmd0aEFkanVzdD0ic3BhY2luZyIgdGV4dExlbmd0aD0iMTA1IiB4PSIyMTgiIHk9IjQ5MS4xNTYzIj5YZW1fdGgmIzI0NDtuZ190aW4oKTwvdGV4dD48L2c+PCEtLWNsYXNzIEhvdFByb2R1Y3QtLT48ZyBjbGFzcz0iZW50aXR5IiBkYXRhLWVudGl0eT0iSG90UHJvZHVjdCIgZGF0YS1zb3VyY2UtbGluZT0iNDUiIGRhdGEtdWlkPSJlbnQwMDA5IiBpZD0iZW50aXR5X0hvdFByb2R1Y3QiPjxyZWN0IGZpbGw9IiNGMUYxRjEiIGhlaWdodD0iNzcuOTY4OCIgcng9IjIuNSIgcnk9IjIuNSIgc3R5bGU9InN0cm9rZTojMTgxODE4O3N0cm9rZS13aWR0aDowLjU7IiB3aWR0aD0iMTEwIiB4PSIyMDguNSIgeT0iNTU4Ii8+PGVsbGlwc2UgY3g9IjIyNy4xIiBjeT0iNTc0IiBmaWxsPSIjQzJDMkMyIiByeD0iMTEiIHJ5PSIxMSIgc3R5bGU9InN0cm9rZTojMTgxODE4O3N0cm9rZS13aWR0aDoxOyIvPjxwYXRoIGQ9Ik0yMjQuNzI1LDU3OC4yNSBMMjI0LjcyNSw1ODAgTDIyOS42NjI1LDU4MCBMMjI5LjY2MjUsNTc4LjI1IEwyMjQuNzI1LDU3OC4yNSBaIE0yMjUuNDEyNSw1NzguOTM3NSBRMjI1LjQxMjUsNTc4LjkzNzUgMjI1LjQxMjUsNTY5Ljc1IEwyMjMuNjYyNSw1NjkuNzUgUTIyMy42NjI1LDU2OS43NSAyMjMuNjYyNSw1NzguOTM3NSBMMjI1LjQxMjUsNTc4LjkzNzUgWiBNMjI4Ljk3NSw1NzguOTM3NSBMMjMwLjcyNSw1NzguOTM3NSBRMjMwLjcyNSw1NzguOTM3NSAyMzAuNzI1LDU3Ni4xMjUgTDIyOC45NzUsNTc2LjEyNSBRMjI4Ljk3NSw1NzYuMTI1IDIyOC45NzUsNTc4LjkzNzUgWiBNMjI4Ljk3NSw1NjkuNzUgUTIyOC45NzUsNTY5Ljc1IDIyOC45NzUsNTcyLjU2MjUgTDIzMC43MjUsNTcyLjU2MjUgUTIzMC43MjUsNTcyLjU2MjUgMjMwLjcyNSw1NjkuNzUgTDIyOC45NzUsNTY5Ljc1IFogTTIyNC43MjUsNTcwLjQzNzUgTDIyOS42NjI1LDU3MC40Mzc1IEwyMjkuNjYyNSw1NjguNjg3NSBMMjI0LjcyNSw1NjguNjg3NSBMMjI0LjcyNSw1NzAuNDM3NSBaICIgZmlsbD0iIzAwMDAwMCIvPjx0ZXh0IGZpbGw9IiMwMDAwMDAiIGZvbnQtZmFtaWx5PSJzYW5zLXNlcmlmIiBmb250LXNpemU9IjE0IiBsZW5ndGhBZGp1c3Q9InNwYWNpbmciIHRleHRMZW5ndGg9IjcwIiB4PSIyNDEuOSIgeT0iNTc5Ljc0MjIiPkhvdFByb2R1Y3Q8L3RleHQ+PGxpbmUgc3R5bGU9InN0cm9rZTojMTgxODE4O3N0cm9rZS13aWR0aDowLjU7IiB4MT0iMjA5LjUiIHgyPSIzMTcuNSIgeTE9IjU5MCIgeTI9IjU5MCIvPjxyZWN0IGZpbGw9Im5vbmUiIGhlaWdodD0iNiIgc3R5bGU9InN0cm9rZTojNTk1OTU5O3N0cm9rZS13aWR0aDoxOyIgd2lkdGg9IjYiIHg9IjIxNi41IiB5PSI1OTkuOTkyMiIvPjx0ZXh0IGZpbGw9IiMwMDAwMDAiIGZvbnQtZmFtaWx5PSJzYW5zLXNlcmlmIiBmb250LXNpemU9IjE0IiBsZW5ndGhBZGp1c3Q9InNwYWNpbmciIHRleHRMZW5ndGg9IjQyIiB4PSIyMjguNSIgeT0iNjA3LjIzNDQiPiYjNDMxO3VfJiMyNzM7JiMyMjc7aTwvdGV4dD48bGluZSBzdHlsZT0ic3Ryb2tlOiMxODE4MTg7c3Ryb2tlLXdpZHRoOjAuNTsiIHgxPSIyMDkuNSIgeDI9IjMxNy41IiB5MT0iNjEyLjk4NDQiIHkyPSI2MTIuOTg0NCIvPjxlbGxpcHNlIGN4PSIyMTkuNSIgY3k9IjYyNS45NzY2IiBmaWxsPSIjQTZBNkE2IiByeD0iMyIgcnk9IjMiIHN0eWxlPSJzdHJva2U6IzU0NTQ1NDtzdHJva2Utd2lkdGg6MTsiLz48dGV4dCBmaWxsPSIjMDAwMDAwIiBmb250LWZhbWlseT0ic2Fucy1zZXJpZiIgZm9udC1zaXplPSIxNCIgbGVuZ3RoQWRqdXN0PSJzcGFjaW5nIiB0ZXh0TGVuZ3RoPSI4NCIgeD0iMjI4LjUiIHk9IjYzMC4yMTg4Ij5YZW1fJiM0MzI7dV8mIzI3MzsmIzIyNztpKCk8L3RleHQ+PC9nPjwhLS1jbGFzcyBJbnZlbnRvcnlJbmZvLS0+PGcgY2xhc3M9ImVudGl0eSIgZGF0YS1lbnRpdHk9IkludmVudG9yeUluZm8iIGRhdGEtc291cmNlLWxpbmU9IjUyIiBkYXRhLXVpZD0iZW50MDAxMSIgaWQ9ImVudGl0eV9JbnZlbnRvcnlJbmZvIj48cmVjdCBmaWxsPSIjRjFGMUYxIiBoZWlnaHQ9Ijc3Ljk2ODgiIHJ4PSIyLjUiIHJ5PSIyLjUiIHN0eWxlPSJzdHJva2U6IzE4MTgxODtzdHJva2Utd2lkdGg6MC41OyIgd2lkdGg9IjEyMyIgeD0iNTAwIiB5PSIxOTEiLz48ZWxsaXBzZSBjeD0iNTE1IiBjeT0iMjA3IiBmaWxsPSIjQzJDMkMyIiByeD0iMTEiIHJ5PSIxMSIgc3R5bGU9InN0cm9rZTojMTgxODE4O3N0cm9rZS13aWR0aDoxOyIvPjxwYXRoIGQ9Ik01MTIuNjI1LDIxMS4yNSBMNTEyLjYyNSwyMTMgTDUxNy41NjI1LDIxMyBMNTE3LjU2MjUsMjExLjI1IEw1MTIuNjI1LDIxMS4yNSBaIE01MTMuMzEyNSwyMTEuOTM3NSBRNTEzLjMxMjUsMjExLjkzNzUgNTEzLjMxMjUsMjAyLjc1IEw1MTEuNTYyNSwyMDIuNzUgUTUxMS41NjI1LDIwMi43NSA1MTEuNTYyNSwyMTEuOTM3NSBMNTEzLjMxMjUsMjExLjkzNzUgWiBNNTE2Ljg3NSwyMTEuOTM3NSBMNTE4LjYyNSwyMTEuOTM3NSBRNTE4LjYyNSwyMTEuOTM3NSA1MTguNjI1LDIwOS4xMjUgTDUxNi44NzUsMjA5LjEyNSBRNTE2Ljg3NSwyMDkuMTI1IDUxNi44NzUsMjExLjkzNzUgWiBNNTE2Ljg3NSwyMDIuNzUgUTUxNi44NzUsMjAyLjc1IDUxNi44NzUsMjA1LjU2MjUgTDUxOC42MjUsMjA1LjU2MjUgUTUxOC42MjUsMjA1LjU2MjUgNTE4LjYyNSwyMDIuNzUgTDUxNi44NzUsMjAyLjc1IFogTTUxMi42MjUsMjAzLjQzNzUgTDUxNy41NjI1LDIwMy40Mzc1IEw1MTcuNTYyNSwyMDEuNjg3NSBMNTEyLjYyNSwyMDEuNjg3NSBMNTEyLjYyNSwyMDMuNDM3NSBaICIgZmlsbD0iIzAwMDAwMCIvPjx0ZXh0IGZpbGw9IiMwMDAwMDAiIGZvbnQtZmFtaWx5PSJzYW5zLXNlcmlmIiBmb250LXNpemU9IjE0IiBsZW5ndGhBZGp1c3Q9InNwYWNpbmciIHRleHRMZW5ndGg9IjkxIiB4PSI1MjkiIHk9IjIxMi43NDIyIj5JbnZlbnRvcnlJbmZvPC90ZXh0PjxsaW5lIHN0eWxlPSJzdHJva2U6IzE4MTgxODtzdHJva2Utd2lkdGg6MC41OyIgeDE9IjUwMSIgeDI9IjYyMiIgeTE9IjIyMyIgeTI9IjIyMyIvPjxyZWN0IGZpbGw9Im5vbmUiIGhlaWdodD0iNiIgc3R5bGU9InN0cm9rZTojNTk1OTU5O3N0cm9rZS13aWR0aDoxOyIgd2lkdGg9IjYiIHg9IjUwOCIgeT0iMjMyLjk5MjIiLz48dGV4dCBmaWxsPSIjMDAwMDAwIiBmb250LWZhbWlseT0ic2Fucy1zZXJpZiIgZm9udC1zaXplPSIxNCIgbGVuZ3RoQWRqdXN0PSJzcGFjaW5nIiB0ZXh0TGVuZ3RoPSI4NCIgeD0iNTIwIiB5PSIyNDAuMjM0NCI+UyYjNzg4OTtfbCYjNDMyOyYjNzkwNztuZ190JiM3ODkxO248L3RleHQ+PHJlY3QgZmlsbD0ibm9uZSIgaGVpZ2h0PSI2IiBzdHlsZT0ic3Ryb2tlOiM1OTU5NTk7c3Ryb2tlLXdpZHRoOjE7IiB3aWR0aD0iNiIgeD0iNTA4IiB5PSIyNDcuOTc2NiIvPjx0ZXh0IGZpbGw9IiMwMDAwMDAiIGZvbnQtZmFtaWx5PSJzYW5zLXNlcmlmIiBmb250LXNpemU9IjE0IiBsZW5ndGhBZGp1c3Q9InNwYWNpbmciIHRleHRMZW5ndGg9IjkxIiB4PSI1MjAiIHk9IjI1NS4yMTg4Ij5OZyYjMjI0O3lfYyYjNzg1MztwX25oJiM3ODUzO3Q8L3RleHQ+PGxpbmUgc3R5bGU9InN0cm9rZTojMTgxODE4O3N0cm9rZS13aWR0aDowLjU7IiB4MT0iNTAxIiB4Mj0iNjIyIiB5MT0iMjYwLjk2ODgiIHkyPSIyNjAuOTY4OCIvPjwvZz48ZyBjbGFzcz0iZW50aXR5IiBkYXRhLWVudGl0eT0iR01OMTciIGRhdGEtc291cmNlLWxpbmU9IjY1IiBkYXRhLXVpZD0iZW50MDAxOCIgaWQ9ImVudGl0eV9HTU4xNyI+PHBhdGggZD0iTTE1Ni41LDQyIEwxNTYuNSw3OS44MjgxIEEwLDAgMCAwIDAgMTU2LjUsNzkuODI4MSBMMzMzLjMyLDc5LjgyODEgTDMyNC4wOSwxOTAuNjkgTDM0MS4zMiw3OS44MjgxIEw1MjIsNzkuODI4MSBBMCwwIDAgMCAwIDUyMiw3OS44MjgxIEw1MjIsNTIgTDUxMiw0MiBMMTU2LjUsNDIgQTAsMCAwIDAgMCAxNTYuNSw0MiIgZmlsbD0iI0ZBRkFGQSIgc3R5bGU9InN0cm9rZTojMTgxODE4O3N0cm9rZS13aWR0aDowLjU7Ii8+PHBhdGggZD0iTTUxMiw0MiBMNTEyLDUyIEw1MjIsNTIgTDUxMiw0MiIgZmlsbD0iI0ZBRkFGQSIgc3R5bGU9InN0cm9rZTojMTgxODE4O3N0cm9rZS13aWR0aDowLjU7Ii8+PHRleHQgZmlsbD0iIzAwMDAwMCIgZm9udC1mYW1pbHk9InNhbnMtc2VyaWYiIGZvbnQtc2l6ZT0iMTMiIGxlbmd0aEFkanVzdD0ic3BhY2luZyIgdGV4dExlbmd0aD0iMzM4IiB4PSIxNjIuNSIgeT0iNTkuMjg5MSI+UXUmIzc4NDM7biB0ciYjNzg4MzsgdmkmIzIzNDtuIHRoJiM3OTIxO2MgaGkmIzc4Nzk7biBDcmVhdGUsIFJlYWQsIFVwZGF0ZSwgRGVsZXRlPC90ZXh0Pjx0ZXh0IGZpbGw9IiMwMDAwMDAiIGZvbnQtZmFtaWx5PSJzYW5zLXNlcmlmIiBmb250LXNpemU9IjEzIiBsZW5ndGhBZGp1c3Q9InNwYWNpbmciIHRleHRMZW5ndGg9IjI4NiIgeD0iMTYyLjUiIHk9IjczLjIwMzEiPnYmIzIyNDsgZyYjMjI1O24gcyYjNzg4OTsgbCYjNDMyOyYjNzkwNztuZyB0JiM3ODkxO24ga2hvIGJhbiAmIzI3MzsmIzc4NDc7dSBsJiMyMzQ7biBTJiM3ODQzO24gcGgmIzc4NDk7bTwvdGV4dD48L2c+PCEtLXJldmVyc2UgbGluayBVc2VyIHRvIEJ1eWVyLS0+PGcgY2xhc3M9ImxpbmsiIGRhdGEtZW50aXR5LTE9IlVzZXIiIGRhdGEtZW50aXR5LTI9IkJ1eWVyIiBkYXRhLXNvdXJjZS1saW5lPSIxOSIgZGF0YS11aWQ9ImxuazUiIGlkPSJsaW5rX1VzZXJfQnV5ZXIiPjxwYXRoIGNvZGVMaW5lPSIxOSIgZD0iTTg4LjEwODYsMTI1LjUwMjUgQzkwLjYyODYsMTQ2LjU2MjUgOTEuNSwxNTMuODEgOTQuMTIsMTc1LjczIiBmaWxsPSJub25lIiBpZD0iVXNlci1iYWNrdG8tQnV5ZXIiIHN0eWxlPSJzdHJva2U6IzE4MTgxODtzdHJva2Utd2lkdGg6MTsiLz48cG9seWdvbiBmaWxsPSJub25lIiBwb2ludHM9Ijg1Ljk3LDEwNy42Myw4Mi4xNTExLDEyNi4yMTU0LDk0LjA2NjEsMTI0Ljc4OTYsODUuOTcsMTA3LjYzIiBzdHlsZT0ic3Ryb2tlOiMxODE4MTg7c3Ryb2tlLXdpZHRoOjE7Ii8+PC9nPjwhLS1yZXZlcnNlIGxpbmsgVXNlciB0byBBZG1pbi0tPjxnIGNsYXNzPSJsaW5rIiBkYXRhLWVudGl0eS0xPSJVc2VyIiBkYXRhLWVudGl0eS0yPSJBZG1pbiIgZGF0YS1zb3VyY2UtbGluZT0iMjgiIGRhdGEtdWlkPSJsbms3IiBpZD0ibGlua19Vc2VyX0FkbWluIj48cGF0aCBjb2RlTGluZT0iMjgiIGQ9Ik0xMzUuMTYxMywxMTIuOTE4NSBDMTQwLjczMTMsMTE3LjczODUgMTMyLjg2LDExMC43IDEzOC41LDExNSBDMTc0LjY4LDE0Mi41OCAyMTcuNjgsMTY5Ljg2IDI1Mi42OSwxOTAuODMiIGZpbGw9Im5vbmUiIGlkPSJVc2VyLWJhY2t0by1BZG1pbiIgc3R5bGU9InN0cm9rZTojMTgxODE4O3N0cm9rZS13aWR0aDoxOyIvPjxwb2x5Z29uIGZpbGw9Im5vbmUiIHBvaW50cz0iMTIxLjU1LDEwMS4xNCwxMzEuMjM1MSwxMTcuNDU1NiwxMzkuMDg3NCwxMDguMzgxNCwxMjEuNTUsMTAxLjE0IiBzdHlsZT0ic3Ryb2tlOiMxODE4MTg7c3Ryb2tlLXdpZHRoOjE7Ii8+PC9nPjwhLS1yZXZlcnNlIGxpbmsgUHJvZHVjdCB0byBIb3RQcm9kdWN0LS0+PGcgY2xhc3M9ImxpbmsiIGRhdGEtZW50aXR5LTE9IlByb2R1Y3QiIGRhdGEtZW50aXR5LTI9IkhvdFByb2R1Y3QiIGRhdGEtc291cmNlLWxpbmU9IjQ1IiBkYXRhLXVpZD0ibG5rMTAiIGlkPSJsaW5rX1Byb2R1Y3RfSG90UHJvZHVjdCI+PHBhdGggY29kZUxpbmU9IjQ1IiBkPSJNMjYzLjUsNTE1LjQxIEMyNjMuNSw1MzUuOTQgMjYzLjUsNTM5Ljc0IDI2My41LDU1Ny42IiBmaWxsPSJub25lIiBpZD0iUHJvZHVjdC1iYWNrdG8tSG90UHJvZHVjdCIgc3R5bGU9InN0cm9rZTojMTgxODE4O3N0cm9rZS13aWR0aDoxOyIvPjxwb2x5Z29uIGZpbGw9Im5vbmUiIHBvaW50cz0iMjYzLjUsNDk3LjQxLDI1Ny41LDUxNS40MSwyNjkuNSw1MTUuNDEsMjYzLjUsNDk3LjQxIiBzdHlsZT0ic3Ryb2tlOiMxODE4MTg7c3Ryb2tlLXdpZHRoOjE7Ii8+PC9nPjwhLS1yZXZlcnNlIGxpbmsgS2hvIHRvIEludmVudG9yeUluZm8tLT48ZyBjbGFzcz0ibGluayIgZGF0YS1lbnRpdHktMT0iS2hvIiBkYXRhLWVudGl0eS0yPSJJbnZlbnRvcnlJbmZvIiBkYXRhLXNvdXJjZS1saW5lPSI1MiIgZGF0YS11aWQ9ImxuazEyIiBpZD0ibGlua19LaG9fSW52ZW50b3J5SW5mbyI+PHBhdGggY29kZUxpbmU9IjUyIiBkPSJNNTkzLjMyMDQsMTMyLjM5NyBDNTg1LjIxMDQsMTU3LjAyNyA1ODEuMzksMTY4LjYxIDU3NC4wMiwxOTEiIGZpbGw9Im5vbmUiIGlkPSJLaG8tYmFja3RvLUludmVudG9yeUluZm8iIHN0eWxlPSJzdHJva2U6IzE4MTgxODtzdHJva2Utd2lkdGg6MTsiLz48cG9seWdvbiBmaWxsPSJub25lIiBwb2ludHM9IjU5OC45NSwxMTUuMyw1ODcuNjIxNCwxMzAuNTIwNSw1OTkuMDE5NCwxMzQuMjczNSw1OTguOTUsMTE1LjMiIHN0eWxlPSJzdHJva2U6IzE4MTgxODtzdHJva2Utd2lkdGg6MTsiLz48L2c+PCEtLWxpbmsgSW52ZW50b3J5SW5mbyB0byBQcm9kdWN0LS0+PGcgY2xhc3M9ImxpbmsiIGRhdGEtZW50aXR5LTE9IkludmVudG9yeUluZm8iIGRhdGEtZW50aXR5LTI9IlByb2R1Y3QiIGRhdGEtc291cmNlLWxpbmU9IjU5IiBkYXRhLXVpZD0ibG5rMTMiIGlkPSJsaW5rX0ludmVudG9yeUluZm9fUHJvZHVjdCI+PHBhdGggY29kZUxpbmU9IjU5IiBkPSJNNTAzLjY5LDI2OS4wMiBDNDUzLjY3LDMwMS45MiAzODEuMzgsMzQ5LjQ3IDMyOS4xOSwzODMuNzkiIGZpbGw9Im5vbmUiIGlkPSJJbnZlbnRvcnlJbmZvLVByb2R1Y3QiIHN0eWxlPSJzdHJva2U6IzE4MTgxODtzdHJva2Utd2lkdGg6MTsiLz48dGV4dCBmaWxsPSIjMDAwMDAwIiBmb250LWZhbWlseT0ic2Fucy1zZXJpZiIgZm9udC1zaXplPSIxMyIgbGVuZ3RoQWRqdXN0PSJzcGFjaW5nIiB0ZXh0TGVuZ3RoPSI2LjUiIHg9IjQ4Ny4yODEzIiB5PSIyODkuMjE0MSI+MTwvdGV4dD48dGV4dCBmaWxsPSIjMDAwMDAwIiBmb250LWZhbWlseT0ic2Fucy1zZXJpZiIgZm9udC1zaXplPSIxMyIgbGVuZ3RoQWRqdXN0PSJzcGFjaW5nIiB0ZXh0TGVuZ3RoPSIyNiIgeD0iMzM2LjkzNiIgeT0iMzc4LjEzNjkiPjEuLio8L3RleHQ+PC9nPjwhLS1saW5rIEJ1eWVyIHRvIFByb2R1Y3QtLT48ZyBjbGFzcz0ibGluayIgZGF0YS1lbnRpdHktMT0iQnV5ZXIiIGRhdGEtZW50aXR5LTI9IlByb2R1Y3QiIGRhdGEtc291cmNlLWxpbmU9IjYxIiBkYXRhLXVpZD0ibG5rMTQiIGlkPSJsaW5rX0J1eWVyX1Byb2R1Y3QiPjxwYXRoIGNvZGVMaW5lPSI2MSIgZD0iTTExNS4xOCwyODQuMDMgQzEyMC45NSwyOTkuNDIgMTI4LjYxLDMxNS42NiAxMzguNSwzMjkgQzE1NC41OSwzNTAuNzEgMTc2LjY4LDM3MC4xNiAxOTcuODIsMzg1LjkiIGZpbGw9Im5vbmUiIGlkPSJCdXllci1Qcm9kdWN0IiBzdHlsZT0ic3Ryb2tlOiMxODE4MTg7c3Ryb2tlLXdpZHRoOjE7Ii8+PHBvbHlnb24gZmlsbD0iIzAwMDAwMCIgcG9pbnRzPSIxNDYuNjUsMzI1Ljg0LDE0My4yMzQsMzE2Ljk2NDEsMTM4LjY2OTIsMzIwLjY2NzIsMTQ2LjY1LDMyNS44NCIgc3R5bGU9InN0cm9rZTojMDAwMDAwO3N0cm9rZS13aWR0aDoxOyIvPjx0ZXh0IGZpbGw9IiMwMDAwMDAiIGZvbnQtZmFtaWx5PSJzYW5zLXNlcmlmIiBmb250LXNpemU9IjEzIiBsZW5ndGhBZGp1c3Q9InNwYWNpbmciIHRleHRMZW5ndGg9IjE5LjUiIHg9IjE1Mi41IiB5PSIzMjcuMjg5MSI+bCYjNzg4NTtjPC90ZXh0Pjx0ZXh0IGZpbGw9IiMwMDAwMDAiIGZvbnQtZmFtaWx5PSJzYW5zLXNlcmlmIiBmb250LXNpemU9IjEzIiBsZW5ndGhBZGp1c3Q9InNwYWNpbmciIHRleHRMZW5ndGg9IjYuNSIgeD0iMTEwLjcwODUiIHk9IjMwNC4xMzciPjE8L3RleHQ+PHRleHQgZmlsbD0iIzAwMDAwMCIgZm9udC1mYW1pbHk9InNhbnMtc2VyaWYiIGZvbnQtc2l6ZT0iMTMiIGxlbmd0aEFkanVzdD0ic3BhY2luZyIgdGV4dExlbmd0aD0iMjYiIHg9IjE2NC4wNzQ5IiB5PSIzODAuNDU0NiI+MS4uKjwvdGV4dD48L2c+PCEtLWxpbmsgQnV5ZXIgdG8gUHJvZHVjdC0tPjxnIGNsYXNzPSJsaW5rIiBkYXRhLWVudGl0eS0xPSJCdXllciIgZGF0YS1lbnRpdHktMj0iUHJvZHVjdCIgZGF0YS1zb3VyY2UtbGluZT0iNjIiIGRhdGEtdWlkPSJsbmsxNSIgaWQ9ImxpbmtfQnV5ZXJfUHJvZHVjdCI+PHBhdGggY29kZUxpbmU9IjYyIiBkPSJNMTUwLjY1LDI4NC40MyBDMTU5LjQxLDI5NC4xNCAxNjguMzMsMzA0LjI4IDE3Ni41LDMxNCBDMTg4LjQ1LDMyOC4yMiAyMDAuODYsMzQzLjggMjEyLjQ0LDM1OC43NCIgZmlsbD0ibm9uZSIgaWQ9IkJ1eWVyLVByb2R1Y3QtMSIgc3R5bGU9InN0cm9rZTojMTgxODE4O3N0cm9rZS13aWR0aDoxOyIvPjxwb2x5Z29uIGZpbGw9IiMwMDAwMDAiIHBvaW50cz0iMTk3LjY5NjgsMzI1LjgwMTYsMTk0LjE3MzUsMzE2Ljk2NzcsMTg5LjY1NCwzMjAuNzI1OCwxOTcuNjk2OCwzMjUuODAxNiIgc3R5bGU9InN0cm9rZTojMDAwMDAwO3N0cm9rZS13aWR0aDoxOyIvPjx0ZXh0IGZpbGw9IiMwMDAwMDAiIGZvbnQtZmFtaWx5PSJzYW5zLXNlcmlmIiBmb250LXNpemU9IjEzIiBsZW5ndGhBZGp1c3Q9InNwYWNpbmciIHRleHRMZW5ndGg9IjUyIiB4PSIyMDMuNSIgeT0iMzI3LjI4OTEiPmNoaSB0aSYjNzg3MTt0PC90ZXh0PjwvZz48IS0tbGluayBBZG1pbiB0byBQcm9kdWN0LS0+PGcgY2xhc3M9ImxpbmsiIGRhdGEtZW50aXR5LTE9IkFkbWluIiBkYXRhLWVudGl0eS0yPSJQcm9kdWN0IiBkYXRhLXNvdXJjZS1saW5lPSI2MyIgZGF0YS11aWQ9ImxuazE2IiBpZD0ibGlua19BZG1pbl9Qcm9kdWN0Ij48cGF0aCBjb2RlTGluZT0iNjMiIGQ9Ik0zMDguNTcsMjY5LjI2IEMzMDEuMzEsMjk0LjY2IDI5MS41OCwzMjguNzIgMjgzLjAyLDM1OC42OSIgZmlsbD0ibm9uZSIgaWQ9IkFkbWluLVByb2R1Y3QiIHN0eWxlPSJzdHJva2U6IzE4MTgxODtzdHJva2Utd2lkdGg6MTsiLz48L2c+PCEtLVNSQz1bWExIRFJ6RDA0QnR4THVub3VRRERmTHVIR2U4NmpMTGYxTXFZU0xpUG55c2tPa3k2VW5xZjBhdVNVYTE4SDhXWktnQ1M0MUg0YUpaUDFtd0V5Wl9zZHAweE5qRVFINzNveENwUlVNemR0cGVUMlpkbzRwLTZNNGFMeTRKNThVV2EycHRsMWRJdkFOdTRlRjdwNmhHZkJYM0twdzhHM1dIY09hWExFVENNRk83MHZEejZOWDN2UUdnekQ0cFdYR1ZHWGxxRVZIeDZsZVdlRWFJU1BhRGt5aS1Qei1nVjk1ckpsOVNtdkNnckZVMmdzUkxSVmY3Q3JjYlhZV3pvbTU5Sko1Y3FsM0o1TjB3ZWk3WGRZWlMtTXFuOVN5THZEQjI4Wm1CWXA4VVhvTnlIX09MVnlMbHo3WHRZeGlqczZudmE0cm5ONllYc0FZbXoxSVVNYV9nVklRUXZDbGJDTzY0MzdmZFlSTzJJeWhiYTh0bGEtRU9qQVptRE9uUG1tUkgwUmxxdFdZRy1vTW1JWHVsZ09Jb0d3eHoyeF9UWjhQckdZYWRlMWttU3pwaGhMRW9NQ3phUzZERHN2ZFFjak9tSktiNWpTd3FWOXRXX1dMd3oybWZzSEpjWk9BX3lBWmNwc3RhNWJBVmdnWi1aVlRLYUQyel9NY3VYcng0Mkx0aHJ3MHJUaklBUW1meElSa3RxTllNU3ZFTnQzQS1oZDhpXzJmUU5CYkNCaTY5MXJtUFNmS1NsVWpRRm5CV2xudzdLQWZkT05Pd3FhTkV5OXdrWmZscEhlM29WQzdmMUo3QnhHMmVIWHVXTnkzcHA5STNyY1RWaXNUZmswUEF0amhVc1JoVmdJXzZ5b2c1aFl0MDc4a2o4a0VURzVkQWpZOHc0b2Y2OGcwbzRXQmdwTDFoXzM2ZTR3akd2M1RRUEw1VkZjVERoVzlxYXo3TXUyU1VYdHotNHRnWEZncXVPWFRXQzZ1cEJTbllXM1M3UTRFaFBOOWx5Q3BweU9jaG9KbmI0amR0WnRhRlAxb2xoRG0wMF0tLT48L2c+PC9zdmc+;" vertex="1" parent="1">
            <mxGeometry x="590" y="280" width="682" height="642" as="geometry" />
          </mxCell>
        </UserObject>
        <mxCell id="uVMDQoxGMwyd6C8O165r-2" value="&lt;font style=&quot;font-size: 18px;&quot;&gt;&lt;b style=&quot;&quot;&gt;Danh mục sản phẩm&lt;/b&gt;&lt;/font&gt;" style="text;html=1;align=center;verticalAlign=middle;whiteSpace=wrap;rounded=0;" vertex="1" parent="1">
          <mxGeometry x="810" y="220" width="200" height="30" as="geometry" />
        </mxCell>
        <UserObject label="" plantUmlData="{&quot;data&quot;:&quot;@startuml\nskinparam monochrome true\n\n&#39; Thực thể từ module Kiểm soát truy cập\nclass User {\n  - ID\n  - Email\n  - Mật_khẩu\n}\n\n&#39; Quản trị viên kế thừa từ User\nUser &lt;|-- Admin\nclass Admin  {\n\n  + CRUD_kho()\n}\n\n&#39; Kho\nclass Kho {\n  - ID\n  - Tên_kho\n  - Tổng_số_lượng\n  - Địa_điểm\n}\n\n&#39; Mối quan hệ\nAdmin \&quot;1\&quot; -- \&quot;1..*\&quot; Kho : Quản lý (CRUD)\n\nnote top of Admin\n  Quản trị viên thực hiện Create, Read, Update, Delete trên Kho\nend note\n\n@enduml&quot;,&quot;format&quot;:&quot;svg&quot;}" id="uVMDQoxGMwyd6C8O165r-3">
          <mxCell style="shape=image;noLabel=1;verticalAlign=top;aspect=fixed;imageAspect=0;image=data:image/svg+xml,PHN2ZyB4bWxucz0iaHR0cDovL3d3dy53My5vcmcvMjAwMC9zdmciIHhtbG5zOnhsaW5rPSJodHRwOi8vd3d3LnczLm9yZy8xOTk5L3hsaW5rIiBjb250ZW50U3R5bGVUeXBlPSJ0ZXh0L2NzcyIgZGF0YS1kaWFncmFtLXR5cGU9IkNMQVNTIiBoZWlnaHQ9IjQxM3B4IiBwcmVzZXJ2ZUFzcGVjdFJhdGlvPSJub25lIiBzdHlsZT0id2lkdGg6NTQ5cHg7aGVpZ2h0OjQxM3B4O2JhY2tncm91bmQ6I0ZGRkZGRjsiIHZlcnNpb249IjEuMSIgdmlld0JveD0iMCAwIDU0OSA0MTMiIHdpZHRoPSI1NDlweCIgem9vbUFuZFBhbj0ibWFnbmlmeSI+PGRlZnMvPjxnPjwhLS1jbGFzcyBVc2VyLS0+PGcgY2xhc3M9ImVudGl0eSIgZGF0YS1lbnRpdHk9IlVzZXIiIGRhdGEtc291cmNlLWxpbmU9IjQiIGRhdGEtdWlkPSJlbnQwMDAyIiBpZD0iZW50aXR5X1VzZXIiPjxyZWN0IGZpbGw9IiNGMUYxRjEiIGhlaWdodD0iOTIuOTUzMSIgcng9IjIuNSIgcnk9IjIuNSIgc3R5bGU9InN0cm9rZTojMTgxODE4O3N0cm9rZS13aWR0aDowLjU7IiB3aWR0aD0iODIiIHg9IjciIHk9IjciLz48ZWxsaXBzZSBjeD0iMzEuOSIgY3k9IjIzIiBmaWxsPSIjQzJDMkMyIiByeD0iMTEiIHJ5PSIxMSIgc3R5bGU9InN0cm9rZTojMTgxODE4O3N0cm9rZS13aWR0aDoxOyIvPjxwYXRoIGQ9Ik0yOS41MjUsMjcuMjUgTDI5LjUyNSwyOSBMMzQuNDYyNSwyOSBMMzQuNDYyNSwyNy4yNSBMMjkuNTI1LDI3LjI1IFogTTMwLjIxMjUsMjcuOTM3NSBRMzAuMjEyNSwyNy45Mzc1IDMwLjIxMjUsMTguNzUgTDI4LjQ2MjUsMTguNzUgUTI4LjQ2MjUsMTguNzUgMjguNDYyNSwyNy45Mzc1IEwzMC4yMTI1LDI3LjkzNzUgWiBNMzMuNzc1LDI3LjkzNzUgTDM1LjUyNSwyNy45Mzc1IFEzNS41MjUsMjcuOTM3NSAzNS41MjUsMjUuMTI1IEwzMy43NzUsMjUuMTI1IFEzMy43NzUsMjUuMTI1IDMzLjc3NSwyNy45Mzc1IFogTTMzLjc3NSwxOC43NSBRMzMuNzc1LDE4Ljc1IDMzLjc3NSwyMS41NjI1IEwzNS41MjUsMjEuNTYyNSBRMzUuNTI1LDIxLjU2MjUgMzUuNTI1LDE4Ljc1IEwzMy43NzUsMTguNzUgWiBNMjkuNTI1LDE5LjQzNzUgTDM0LjQ2MjUsMTkuNDM3NSBMMzQuNDYyNSwxNy42ODc1IEwyOS41MjUsMTcuNjg3NSBMMjkuNTI1LDE5LjQzNzUgWiAiIGZpbGw9IiMwMDAwMDAiLz48dGV4dCBmaWxsPSIjMDAwMDAwIiBmb250LWZhbWlseT0ic2Fucy1zZXJpZiIgZm9udC1zaXplPSIxNCIgbGVuZ3RoQWRqdXN0PSJzcGFjaW5nIiB0ZXh0TGVuZ3RoPSIyOCIgeD0iNDguMSIgeT0iMjguNzQyMiI+VXNlcjwvdGV4dD48bGluZSBzdHlsZT0ic3Ryb2tlOiMxODE4MTg7c3Ryb2tlLXdpZHRoOjAuNTsiIHgxPSI4IiB4Mj0iODgiIHkxPSIzOSIgeTI9IjM5Ii8+PHJlY3QgZmlsbD0ibm9uZSIgaGVpZ2h0PSI2IiBzdHlsZT0ic3Ryb2tlOiM1OTU5NTk7c3Ryb2tlLXdpZHRoOjE7IiB3aWR0aD0iNiIgeD0iMTUiIHk9IjQ4Ljk5MjIiLz48dGV4dCBmaWxsPSIjMDAwMDAwIiBmb250LWZhbWlseT0ic2Fucy1zZXJpZiIgZm9udC1zaXplPSIxNCIgbGVuZ3RoQWRqdXN0PSJzcGFjaW5nIiB0ZXh0TGVuZ3RoPSIxNCIgeD0iMjciIHk9IjU2LjIzNDQiPklEPC90ZXh0PjxyZWN0IGZpbGw9Im5vbmUiIGhlaWdodD0iNiIgc3R5bGU9InN0cm9rZTojNTk1OTU5O3N0cm9rZS13aWR0aDoxOyIgd2lkdGg9IjYiIHg9IjE1IiB5PSI2My45NzY2Ii8+PHRleHQgZmlsbD0iIzAwMDAwMCIgZm9udC1mYW1pbHk9InNhbnMtc2VyaWYiIGZvbnQtc2l6ZT0iMTQiIGxlbmd0aEFkanVzdD0ic3BhY2luZyIgdGV4dExlbmd0aD0iMzUiIHg9IjI3IiB5PSI3MS4yMTg4Ij5FbWFpbDwvdGV4dD48cmVjdCBmaWxsPSJub25lIiBoZWlnaHQ9IjYiIHN0eWxlPSJzdHJva2U6IzU5NTk1OTtzdHJva2Utd2lkdGg6MTsiIHdpZHRoPSI2IiB4PSIxNSIgeT0iNzguOTYwOSIvPjx0ZXh0IGZpbGw9IiMwMDAwMDAiIGZvbnQtZmFtaWx5PSJzYW5zLXNlcmlmIiBmb250LXNpemU9IjE0IiBsZW5ndGhBZGp1c3Q9InNwYWNpbmciIHRleHRMZW5ndGg9IjU2IiB4PSIyNyIgeT0iODYuMjAzMSI+TSYjNzg1Mzt0X2toJiM3ODQ5O3U8L3RleHQ+PGxpbmUgc3R5bGU9InN0cm9rZTojMTgxODE4O3N0cm9rZS13aWR0aDowLjU7IiB4MT0iOCIgeDI9Ijg4IiB5MT0iOTEuOTUzMSIgeTI9IjkxLjk1MzEiLz48L2c+PCEtLWNsYXNzIEFkbWluLS0+PGcgY2xhc3M9ImVudGl0eSIgZGF0YS1lbnRpdHk9IkFkbWluIiBkYXRhLXNvdXJjZS1saW5lPSIxMSIgZGF0YS11aWQ9ImVudDAwMDMiIGlkPSJlbnRpdHlfQWRtaW4iPjxyZWN0IGZpbGw9IiNGMUYxRjEiIGhlaWdodD0iNjIuOTg0NCIgcng9IjIuNSIgcnk9IjIuNSIgc3R5bGU9InN0cm9rZTojMTgxODE4O3N0cm9rZS13aWR0aDowLjU7IiB3aWR0aD0iOTYiIHg9IjE0MiIgeT0iMTYxIi8+PGVsbGlwc2UgY3g9IjE3MC4wNSIgY3k9IjE3NyIgZmlsbD0iI0MyQzJDMiIgcng9IjExIiByeT0iMTEiIHN0eWxlPSJzdHJva2U6IzE4MTgxODtzdHJva2Utd2lkdGg6MTsiLz48cGF0aCBkPSJNMTY3LjY3NSwxODEuMjUgTDE2Ny42NzUsMTgzIEwxNzIuNjEyNSwxODMgTDE3Mi42MTI1LDE4MS4yNSBMMTY3LjY3NSwxODEuMjUgWiBNMTY4LjM2MjUsMTgxLjkzNzUgUTE2OC4zNjI1LDE4MS45Mzc1IDE2OC4zNjI1LDE3Mi43NSBMMTY2LjYxMjUsMTcyLjc1IFExNjYuNjEyNSwxNzIuNzUgMTY2LjYxMjUsMTgxLjkzNzUgTDE2OC4zNjI1LDE4MS45Mzc1IFogTTE3MS45MjUsMTgxLjkzNzUgTDE3My42NzUsMTgxLjkzNzUgUTE3My42NzUsMTgxLjkzNzUgMTczLjY3NSwxNzkuMTI1IEwxNzEuOTI1LDE3OS4xMjUgUTE3MS45MjUsMTc5LjEyNSAxNzEuOTI1LDE4MS45Mzc1IFogTTE3MS45MjUsMTcyLjc1IFExNzEuOTI1LDE3Mi43NSAxNzEuOTI1LDE3NS41NjI1IEwxNzMuNjc1LDE3NS41NjI1IFExNzMuNjc1LDE3NS41NjI1IDE3My42NzUsMTcyLjc1IEwxNzEuOTI1LDE3Mi43NSBaIE0xNjcuNjc1LDE3My40Mzc1IEwxNzIuNjEyNSwxNzMuNDM3NSBMMTcyLjYxMjUsMTcxLjY4NzUgTDE2Ny42NzUsMTcxLjY4NzUgTDE2Ny42NzUsMTczLjQzNzUgWiAiIGZpbGw9IiMwMDAwMDAiLz48dGV4dCBmaWxsPSIjMDAwMDAwIiBmb250LWZhbWlseT0ic2Fucy1zZXJpZiIgZm9udC1zaXplPSIxNCIgbGVuZ3RoQWRqdXN0PSJzcGFjaW5nIiB0ZXh0TGVuZ3RoPSIzNSIgeD0iMTg2Ljk1IiB5PSIxODIuNzQyMiI+QWRtaW48L3RleHQ+PGxpbmUgc3R5bGU9InN0cm9rZTojMTgxODE4O3N0cm9rZS13aWR0aDowLjU7IiB4MT0iMTQzIiB4Mj0iMjM3IiB5MT0iMTkzIiB5Mj0iMTkzIi8+PGxpbmUgc3R5bGU9InN0cm9rZTojMTgxODE4O3N0cm9rZS13aWR0aDowLjU7IiB4MT0iMTQzIiB4Mj0iMjM3IiB5MT0iMjAxIiB5Mj0iMjAxIi8+PGVsbGlwc2UgY3g9IjE1MyIgY3k9IjIxMy45OTIyIiBmaWxsPSIjQTZBNkE2IiByeD0iMyIgcnk9IjMiIHN0eWxlPSJzdHJva2U6IzU0NTQ1NDtzdHJva2Utd2lkdGg6MTsiLz48dGV4dCBmaWxsPSIjMDAwMDAwIiBmb250LWZhbWlseT0ic2Fucy1zZXJpZiIgZm9udC1zaXplPSIxNCIgbGVuZ3RoQWRqdXN0PSJzcGFjaW5nIiB0ZXh0TGVuZ3RoPSI3MCIgeD0iMTYyIiB5PSIyMTguMjM0NCI+Q1JVRF9raG8oKTwvdGV4dD48L2c+PCEtLWNsYXNzIEtoby0tPjxnIGNsYXNzPSJlbnRpdHkiIGRhdGEtZW50aXR5PSJLaG8iIGRhdGEtc291cmNlLWxpbmU9IjE4IiBkYXRhLXVpZD0iZW50MDAwNSIgaWQ9ImVudGl0eV9LaG8iPjxyZWN0IGZpbGw9IiNGMUYxRjEiIGhlaWdodD0iMTA3LjkzNzUiIHJ4PSIyLjUiIHJ5PSIyLjUiIHN0eWxlPSJzdHJva2U6IzE4MTgxODtzdHJva2Utd2lkdGg6MC41OyIgd2lkdGg9IjExNyIgeD0iMTMxLjUiIHk9IjI5OSIvPjxlbGxpcHNlIGN4PSIxNzUuMyIgY3k9IjMxNSIgZmlsbD0iI0MyQzJDMiIgcng9IjExIiByeT0iMTEiIHN0eWxlPSJzdHJva2U6IzE4MTgxODtzdHJva2Utd2lkdGg6MTsiLz48cGF0aCBkPSJNMTcyLjkyNSwzMTkuMjUgTDE3Mi45MjUsMzIxIEwxNzcuODYyNSwzMjEgTDE3Ny44NjI1LDMxOS4yNSBMMTcyLjkyNSwzMTkuMjUgWiBNMTczLjYxMjUsMzE5LjkzNzUgUTE3My42MTI1LDMxOS45Mzc1IDE3My42MTI1LDMxMC43NSBMMTcxLjg2MjUsMzEwLjc1IFExNzEuODYyNSwzMTAuNzUgMTcxLjg2MjUsMzE5LjkzNzUgTDE3My42MTI1LDMxOS45Mzc1IFogTTE3Ny4xNzUsMzE5LjkzNzUgTDE3OC45MjUsMzE5LjkzNzUgUTE3OC45MjUsMzE5LjkzNzUgMTc4LjkyNSwzMTcuMTI1IEwxNzcuMTc1LDMxNy4xMjUgUTE3Ny4xNzUsMzE3LjEyNSAxNzcuMTc1LDMxOS45Mzc1IFogTTE3Ny4xNzUsMzEwLjc1IFExNzcuMTc1LDMxMC43NSAxNzcuMTc1LDMxMy41NjI1IEwxNzguOTI1LDMxMy41NjI1IFExNzguOTI1LDMxMy41NjI1IDE3OC45MjUsMzEwLjc1IEwxNzcuMTc1LDMxMC43NSBaIE0xNzIuOTI1LDMxMS40Mzc1IEwxNzcuODYyNSwzMTEuNDM3NSBMMTc3Ljg2MjUsMzA5LjY4NzUgTDE3Mi45MjUsMzA5LjY4NzUgTDE3Mi45MjUsMzExLjQzNzUgWiAiIGZpbGw9IiMwMDAwMDAiLz48dGV4dCBmaWxsPSIjMDAwMDAwIiBmb250LWZhbWlseT0ic2Fucy1zZXJpZiIgZm9udC1zaXplPSIxNCIgbGVuZ3RoQWRqdXN0PSJzcGFjaW5nIiB0ZXh0TGVuZ3RoPSIyMSIgeD0iMTk1LjciIHk9IjMyMC43NDIyIj5LaG88L3RleHQ+PGxpbmUgc3R5bGU9InN0cm9rZTojMTgxODE4O3N0cm9rZS13aWR0aDowLjU7IiB4MT0iMTMyLjUiIHgyPSIyNDcuNSIgeTE9IjMzMSIgeTI9IjMzMSIvPjxyZWN0IGZpbGw9Im5vbmUiIGhlaWdodD0iNiIgc3R5bGU9InN0cm9rZTojNTk1OTU5O3N0cm9rZS13aWR0aDoxOyIgd2lkdGg9IjYiIHg9IjEzOS41IiB5PSIzNDAuOTkyMiIvPjx0ZXh0IGZpbGw9IiMwMDAwMDAiIGZvbnQtZmFtaWx5PSJzYW5zLXNlcmlmIiBmb250LXNpemU9IjE0IiBsZW5ndGhBZGp1c3Q9InNwYWNpbmciIHRleHRMZW5ndGg9IjE0IiB4PSIxNTEuNSIgeT0iMzQ4LjIzNDQiPklEPC90ZXh0PjxyZWN0IGZpbGw9Im5vbmUiIGhlaWdodD0iNiIgc3R5bGU9InN0cm9rZTojNTk1OTU5O3N0cm9rZS13aWR0aDoxOyIgd2lkdGg9IjYiIHg9IjEzOS41IiB5PSIzNTUuOTc2NiIvPjx0ZXh0IGZpbGw9IiMwMDAwMDAiIGZvbnQtZmFtaWx5PSJzYW5zLXNlcmlmIiBmb250LXNpemU9IjE0IiBsZW5ndGhBZGp1c3Q9InNwYWNpbmciIHRleHRMZW5ndGg9IjQ5IiB4PSIxNTEuNSIgeT0iMzYzLjIxODgiPlQmIzIzNDtuX2tobzwvdGV4dD48cmVjdCBmaWxsPSJub25lIiBoZWlnaHQ9IjYiIHN0eWxlPSJzdHJva2U6IzU5NTk1OTtzdHJva2Utd2lkdGg6MTsiIHdpZHRoPSI2IiB4PSIxMzkuNSIgeT0iMzcwLjk2MDkiLz48dGV4dCBmaWxsPSIjMDAwMDAwIiBmb250LWZhbWlseT0ic2Fucy1zZXJpZiIgZm9udC1zaXplPSIxNCIgbGVuZ3RoQWRqdXN0PSJzcGFjaW5nIiB0ZXh0TGVuZ3RoPSI5MSIgeD0iMTUxLjUiIHk9IjM3OC4yMDMxIj5UJiM3ODkzO25nX3MmIzc4ODk7X2wmIzQzMjsmIzc5MDc7bmc8L3RleHQ+PHJlY3QgZmlsbD0ibm9uZSIgaGVpZ2h0PSI2IiBzdHlsZT0ic3Ryb2tlOiM1OTU5NTk7c3Ryb2tlLXdpZHRoOjE7IiB3aWR0aD0iNiIgeD0iMTM5LjUiIHk9IjM4NS45NDUzIi8+PHRleHQgZmlsbD0iIzAwMDAwMCIgZm9udC1mYW1pbHk9InNhbnMtc2VyaWYiIGZvbnQtc2l6ZT0iMTQiIGxlbmd0aEFkanVzdD0ic3BhY2luZyIgdGV4dExlbmd0aD0iNTYiIHg9IjE1MS41IiB5PSIzOTMuMTg3NSI+JiMyNzI7JiM3ODgzO2FfJiMyNzM7aSYjNzg3NTttPC90ZXh0PjxsaW5lIHN0eWxlPSJzdHJva2U6IzE4MTgxODtzdHJva2Utd2lkdGg6MC41OyIgeDE9IjEzMi41IiB4Mj0iMjQ3LjUiIHkxPSIzOTguOTM3NSIgeTI9IjM5OC45Mzc1Ii8+PC9nPjxnIGNsYXNzPSJlbnRpdHkiIGRhdGEtZW50aXR5PSJHTU43IiBkYXRhLXNvdXJjZS1saW5lPSIyOSIgZGF0YS11aWQ9ImVudDAwMDgiIGlkPSJlbnRpdHlfR01ONyI+PHBhdGggZD0iTTEyNC41LDQxLjUgTDEyNC41LDY1LjQxNDEgQTAsMCAwIDAgMCAxMjQuNSw2NS40MTQxIEwzMTcuMyw2NS40MTQxIEwyMjEuOTUsMTYwLjg5IEwzMjUuMyw2NS40MTQxIEw1NDIsNjUuNDE0MSBBMCwwIDAgMCAwIDU0Miw2NS40MTQxIEw1NDIsNTEuNSBMNTMyLDQxLjUgTDEyNC41LDQxLjUgQTAsMCAwIDAgMCAxMjQuNSw0MS41IiBmaWxsPSIjRkFGQUZBIiBzdHlsZT0ic3Ryb2tlOiMxODE4MTg7c3Ryb2tlLXdpZHRoOjAuNTsiLz48cGF0aCBkPSJNNTMyLDQxLjUgTDUzMiw1MS41IEw1NDIsNTEuNSBMNTMyLDQxLjUiIGZpbGw9IiNGQUZBRkEiIHN0eWxlPSJzdHJva2U6IzE4MTgxODtzdHJva2Utd2lkdGg6MC41OyIvPjx0ZXh0IGZpbGw9IiMwMDAwMDAiIGZvbnQtZmFtaWx5PSJzYW5zLXNlcmlmIiBmb250LXNpemU9IjEzIiBsZW5ndGhBZGp1c3Q9InNwYWNpbmciIHRleHRMZW5ndGg9IjM5Ni41IiB4PSIxMzAuNSIgeT0iNTguNzg5MSI+UXUmIzc4NDM7biB0ciYjNzg4MzsgdmkmIzIzNDtuIHRoJiM3OTIxO2MgaGkmIzc4Nzk7biBDcmVhdGUsIFJlYWQsIFVwZGF0ZSwgRGVsZXRlIHRyJiMyMzQ7biBLaG88L3RleHQ+PC9nPjwhLS1yZXZlcnNlIGxpbmsgVXNlciB0byBBZG1pbi0tPjxnIGNsYXNzPSJsaW5rIiBkYXRhLWVudGl0eS0xPSJVc2VyIiBkYXRhLWVudGl0eS0yPSJBZG1pbiIgZGF0YS1zb3VyY2UtbGluZT0iMTEiIGRhdGEtdWlkPSJsbms0IiBpZD0ibGlua19Vc2VyX0FkbWluIj48cGF0aCBjb2RlTGluZT0iMTEiIGQ9Ik0xMDIuMDIzMSwxMDYuNjI4NyBDMTIzLjk3MzEsMTI3LjgwODcgMTM3LjY1LDE0MC45OSAxNTguMDQsMTYwLjY2IiBmaWxsPSJub25lIiBpZD0iVXNlci1iYWNrdG8tQWRtaW4iIHN0eWxlPSJzdHJva2U6IzE4MTgxODtzdHJva2Utd2lkdGg6MTsiLz48cG9seWdvbiBmaWxsPSJub25lIiBwb2ludHM9Ijg5LjA3LDk0LjEzLDk3Ljg1NjksMTEwLjk0NjQsMTA2LjE4OTMsMTAyLjMxMSw4OS4wNyw5NC4xMyIgc3R5bGU9InN0cm9rZTojMTgxODE4O3N0cm9rZS13aWR0aDoxOyIvPjwvZz48IS0tbGluayBBZG1pbiB0byBLaG8tLT48ZyBjbGFzcz0ibGluayIgZGF0YS1lbnRpdHktMT0iQWRtaW4iIGRhdGEtZW50aXR5LTI9IktobyIgZGF0YS1zb3VyY2UtbGluZT0iMjYiIGRhdGEtdWlkPSJsbms2IiBpZD0ibGlua19BZG1pbl9LaG8iPjxwYXRoIGNvZGVMaW5lPSIyNiIgZD0iTTE5MCwyMjQuMDYgQzE5MCwyNDUuMiAxOTAsMjczLjg5IDE5MCwyOTguNzQiIGZpbGw9Im5vbmUiIGlkPSJBZG1pbi1LaG8iIHN0eWxlPSJzdHJva2U6IzE4MTgxODtzdHJva2Utd2lkdGg6MTsiLz48dGV4dCBmaWxsPSIjMDAwMDAwIiBmb250LWZhbWlseT0ic2Fucy1zZXJpZiIgZm9udC1zaXplPSIxMyIgbGVuZ3RoQWRqdXN0PSJzcGFjaW5nIiB0ZXh0TGVuZ3RoPSI5MSIgeD0iMTkxIiB5PSIyNjcuMjg5MSI+UXUmIzc4NDM7biBsJiMyNTM7IChDUlVEKTwvdGV4dD48dGV4dCBmaWxsPSIjMDAwMDAwIiBmb250LWZhbWlseT0ic2Fucy1zZXJpZiIgZm9udC1zaXplPSIxMyIgbGVuZ3RoQWRqdXN0PSJzcGFjaW5nIiB0ZXh0TGVuZ3RoPSI2LjUiIHg9IjE4My40MzI4IiB5PSIyNDQuMjk0OCI+MTwvdGV4dD48dGV4dCBmaWxsPSIjMDAwMDAwIiBmb250LWZhbWlseT0ic2Fucy1zZXJpZiIgZm9udC1zaXplPSIxMyIgbGVuZ3RoQWRqdXN0PSJzcGFjaW5nIiB0ZXh0TGVuZ3RoPSIyNiIgeD0iMTYyLjE3MTkiIHk9IjI4OS41NTM0Ij4xLi4qPC90ZXh0PjwvZz48IS0tU1JDPVtSUDJuSmlDbTU0THRWeUxMNWJmZUF0TDVCQVhiRzVLN2dkUUVoQ0dxS0hDeDkwdUkwWVE2M1lucXUwREc5cTE4aTJQMjNBdHUzX3k5cHF1UGE5WnlkZHJ6eGRzbE1DR291cGJGYUlnZldZWE5nTzNFSXk3TzdnUUhnSnkyUTNoa2U0dHpJZ0FtSjBINkNUc2FBREpjSUxscjVHOUpsTUtpSTdYSE81UTg3RFNDd0U5cXc4d0piQ1U5Z3lRYXFfdVlDakxwb013am9MYmZnaEthWWdkbFNIYmxOWUdNZmxmb2hnLXlpUkw0dmgxN0R6cWtaaUNxYlppcEx1RmkyNy0wbU1HczlCZmdqSGx1QTU4eDdMTF9DcXQ5b0tnUm5qSUZTa3VOZmJ4dm9WVXhnVFRveFh3czNuSUItemtMY3hZMVphYUx1d0JhNGZIbm9QZThOankzUFZGd2xUdy12LW1FVnNUQkRmemVzTVhqbmdKSWo2MkxHUHRsdmkxX0F6M0R3WUVvTktlQ1NpNnJ3NjBZVURaMUIwalREbkk5aUIzU1ZoMkoyWGQyeWR5MF0tLT48L2c+PC9zdmc+;" vertex="1" parent="1">
            <mxGeometry x="640" y="1112" width="549" height="413" as="geometry" />
          </mxCell>
        </UserObject>
        <mxCell id="uVMDQoxGMwyd6C8O165r-4" value="&lt;font style=&quot;font-size: 18px;&quot;&gt;&lt;b style=&quot;&quot;&gt;Tồn kho&lt;/b&gt;&lt;/font&gt;" style="text;html=1;align=center;verticalAlign=middle;whiteSpace=wrap;rounded=0;" vertex="1" parent="1">
          <mxGeometry x="755" y="1070" width="200" height="30" as="geometry" />
        </mxCell>
        <UserObject label="" plantUmlData="{&quot;data&quot;:&quot;@startuml\nskinparam monochrome true\n\n&#39; Thực thể từ module Danh mục sản phẩm\nclass Product {\n  - ID\n  - Tên\n  - Giá\n  - Hình_ảnh\n}\n\n&#39; Thực thể từ module Kiểm soát truy cập\nclass User {\n  - ID\n  - Email\n  - Mật_khẩu\n}\n\n&#39; Sản phẩm trong module Giỏ hàng kế thừa từ Product\nProduct &lt;|-- ProductInCart\nclass ProductInCart {\n  - Số_lượng\n}\n\n&#39; Người mua kế thừa từ User\nUser &lt;|-- Buyer\nclass Buyer {\n  - Tên\n  - Số_điện_thoại\n  + Thêm_giỏ()\n  + Xóa_giỏ()\n  + Sửa_giỏ()\n}\n\n&#39; Quản trị viên kế thừa từ User\nUser &lt;|-- Admin\nclass Admin {\n\n  + Xem_toàn_bộ_giỏ()\n  + Kích_hoạt_giỏ()\n  + Vô_hiệu_hoá_giỏ()\n}\n\n&#39; Giỏ\nclass Cart {\n  - ID\n  - Tổng_chi_phí\n  - Trạng_thái\n}\n\n&#39; Mối quan hệ\nProductInCart \&quot;0...*\&quot; -- \&quot;0...*\&quot; Cart : chứa &gt;\nBuyer \&quot;1\&quot; -- \&quot;1\&quot; Cart : quản lý &gt;\nAdmin \&quot;1\&quot; -- \&quot;1..*\&quot; Cart : quản lý &gt;\n\nnote top of Admin\n  Quản trị viên xem toàn bộ giỏ và kích hoạt/vô hiệu hóa nếu không hợp lệ\nend note\n\n@enduml\n&quot;,&quot;format&quot;:&quot;svg&quot;}" id="uVMDQoxGMwyd6C8O165r-5">
          <mxCell style="shape=image;noLabel=1;verticalAlign=top;aspect=fixed;imageAspect=0;image=data:image/svg+xml,PHN2ZyB4bWxucz0iaHR0cDovL3d3dy53My5vcmcvMjAwMC9zdmciIHhtbG5zOnhsaW5rPSJodHRwOi8vd3d3LnczLm9yZy8xOTk5L3hsaW5rIiBjb250ZW50U3R5bGVUeXBlPSJ0ZXh0L2NzcyIgZGF0YS1kaWFncmFtLXR5cGU9IkNMQVNTIiBoZWlnaHQ9IjQ3M3B4IiBwcmVzZXJ2ZUFzcGVjdFJhdGlvPSJub25lIiBzdHlsZT0id2lkdGg6Nzg5cHg7aGVpZ2h0OjQ3M3B4O2JhY2tncm91bmQ6I0ZGRkZGRjsiIHZlcnNpb249IjEuMSIgdmlld0JveD0iMCAwIDc4OSA0NzMiIHdpZHRoPSI3ODlweCIgem9vbUFuZFBhbj0ibWFnbmlmeSI+PGRlZnMvPjxnPjwhLS1jbGFzcyBQcm9kdWN0LS0+PGcgY2xhc3M9ImVudGl0eSIgZGF0YS1lbnRpdHk9IlByb2R1Y3QiIGRhdGEtc291cmNlLWxpbmU9IjQiIGRhdGEtdWlkPSJlbnQwMDAyIiBpZD0iZW50aXR5X1Byb2R1Y3QiPjxyZWN0IGZpbGw9IiNGMUYxRjEiIGhlaWdodD0iMTA3LjkzNzUiIHJ4PSIyLjUiIHJ5PSIyLjUiIHN0eWxlPSJzdHJva2U6IzE4MTgxODtzdHJva2Utd2lkdGg6MC41OyIgd2lkdGg9IjgyIiB4PSIyNy41IiB5PSI3Ii8+PGVsbGlwc2UgY3g9IjQyLjk1IiBjeT0iMjMiIGZpbGw9IiNDMkMyQzIiIHJ4PSIxMSIgcnk9IjExIiBzdHlsZT0ic3Ryb2tlOiMxODE4MTg7c3Ryb2tlLXdpZHRoOjE7Ii8+PHBhdGggZD0iTTQwLjU3NSwyNy4yNSBMNDAuNTc1LDI5IEw0NS41MTI1LDI5IEw0NS41MTI1LDI3LjI1IEw0MC41NzUsMjcuMjUgWiBNNDEuMjYyNSwyNy45Mzc1IFE0MS4yNjI1LDI3LjkzNzUgNDEuMjYyNSwxOC43NSBMMzkuNTEyNSwxOC43NSBRMzkuNTEyNSwxOC43NSAzOS41MTI1LDI3LjkzNzUgTDQxLjI2MjUsMjcuOTM3NSBaIE00NC44MjUsMjcuOTM3NSBMNDYuNTc1LDI3LjkzNzUgUTQ2LjU3NSwyNy45Mzc1IDQ2LjU3NSwyNS4xMjUgTDQ0LjgyNSwyNS4xMjUgUTQ0LjgyNSwyNS4xMjUgNDQuODI1LDI3LjkzNzUgWiBNNDQuODI1LDE4Ljc1IFE0NC44MjUsMTguNzUgNDQuODI1LDIxLjU2MjUgTDQ2LjU3NSwyMS41NjI1IFE0Ni41NzUsMjEuNTYyNSA0Ni41NzUsMTguNzUgTDQ0LjgyNSwxOC43NSBaIE00MC41NzUsMTkuNDM3NSBMNDUuNTEyNSwxOS40Mzc1IEw0NS41MTI1LDE3LjY4NzUgTDQwLjU3NSwxNy42ODc1IEw0MC41NzUsMTkuNDM3NSBaICIgZmlsbD0iIzAwMDAwMCIvPjx0ZXh0IGZpbGw9IiMwMDAwMDAiIGZvbnQtZmFtaWx5PSJzYW5zLXNlcmlmIiBmb250LXNpemU9IjE0IiBsZW5ndGhBZGp1c3Q9InNwYWNpbmciIHRleHRMZW5ndGg9IjQ5IiB4PSI1Ny4wNSIgeT0iMjguNzQyMiI+UHJvZHVjdDwvdGV4dD48bGluZSBzdHlsZT0ic3Ryb2tlOiMxODE4MTg7c3Ryb2tlLXdpZHRoOjAuNTsiIHgxPSIyOC41IiB4Mj0iMTA4LjUiIHkxPSIzOSIgeTI9IjM5Ii8+PHJlY3QgZmlsbD0ibm9uZSIgaGVpZ2h0PSI2IiBzdHlsZT0ic3Ryb2tlOiM1OTU5NTk7c3Ryb2tlLXdpZHRoOjE7IiB3aWR0aD0iNiIgeD0iMzUuNSIgeT0iNDguOTkyMiIvPjx0ZXh0IGZpbGw9IiMwMDAwMDAiIGZvbnQtZmFtaWx5PSJzYW5zLXNlcmlmIiBmb250LXNpemU9IjE0IiBsZW5ndGhBZGp1c3Q9InNwYWNpbmciIHRleHRMZW5ndGg9IjE0IiB4PSI0Ny41IiB5PSI1Ni4yMzQ0Ij5JRDwvdGV4dD48cmVjdCBmaWxsPSJub25lIiBoZWlnaHQ9IjYiIHN0eWxlPSJzdHJva2U6IzU5NTk1OTtzdHJva2Utd2lkdGg6MTsiIHdpZHRoPSI2IiB4PSIzNS41IiB5PSI2My45NzY2Ii8+PHRleHQgZmlsbD0iIzAwMDAwMCIgZm9udC1mYW1pbHk9InNhbnMtc2VyaWYiIGZvbnQtc2l6ZT0iMTQiIGxlbmd0aEFkanVzdD0ic3BhY2luZyIgdGV4dExlbmd0aD0iMjEiIHg9IjQ3LjUiIHk9IjcxLjIxODgiPlQmIzIzNDtuPC90ZXh0PjxyZWN0IGZpbGw9Im5vbmUiIGhlaWdodD0iNiIgc3R5bGU9InN0cm9rZTojNTk1OTU5O3N0cm9rZS13aWR0aDoxOyIgd2lkdGg9IjYiIHg9IjM1LjUiIHk9Ijc4Ljk2MDkiLz48dGV4dCBmaWxsPSIjMDAwMDAwIiBmb250LWZhbWlseT0ic2Fucy1zZXJpZiIgZm9udC1zaXplPSIxNCIgbGVuZ3RoQWRqdXN0PSJzcGFjaW5nIiB0ZXh0TGVuZ3RoPSIyMSIgeD0iNDcuNSIgeT0iODYuMjAzMSI+R2kmIzIyNTs8L3RleHQ+PHJlY3QgZmlsbD0ibm9uZSIgaGVpZ2h0PSI2IiBzdHlsZT0ic3Ryb2tlOiM1OTU5NTk7c3Ryb2tlLXdpZHRoOjE7IiB3aWR0aD0iNiIgeD0iMzUuNSIgeT0iOTMuOTQ1MyIvPjx0ZXh0IGZpbGw9IiMwMDAwMDAiIGZvbnQtZmFtaWx5PSJzYW5zLXNlcmlmIiBmb250LXNpemU9IjE0IiBsZW5ndGhBZGp1c3Q9InNwYWNpbmciIHRleHRMZW5ndGg9IjU2IiB4PSI0Ny41IiB5PSIxMDEuMTg3NSI+SCYjMjM2O25oXyYjNzg0MztuaDwvdGV4dD48bGluZSBzdHlsZT0ic3Ryb2tlOiMxODE4MTg7c3Ryb2tlLXdpZHRoOjAuNTsiIHgxPSIyOC41IiB4Mj0iMTA4LjUiIHkxPSIxMDYuOTM3NSIgeTI9IjEwNi45Mzc1Ii8+PC9nPjwhLS1jbGFzcyBVc2VyLS0+PGcgY2xhc3M9ImVudGl0eSIgZGF0YS1lbnRpdHk9IlVzZXIiIGRhdGEtc291cmNlLWxpbmU9IjEyIiBkYXRhLXVpZD0iZW50MDAwMyIgaWQ9ImVudGl0eV9Vc2VyIj48cmVjdCBmaWxsPSIjRjFGMUYxIiBoZWlnaHQ9IjkyLjk1MzEiIHJ4PSIyLjUiIHJ5PSIyLjUiIHN0eWxlPSJzdHJva2U6IzE4MTgxODtzdHJva2Utd2lkdGg6MC41OyIgd2lkdGg9IjgyIiB4PSIxODIuNSIgeT0iMTQuNSIvPjxlbGxpcHNlIGN4PSIyMDcuNCIgY3k9IjMwLjUiIGZpbGw9IiNDMkMyQzIiIHJ4PSIxMSIgcnk9IjExIiBzdHlsZT0ic3Ryb2tlOiMxODE4MTg7c3Ryb2tlLXdpZHRoOjE7Ii8+PHBhdGggZD0iTTIwNS4wMjUsMzQuNzUgTDIwNS4wMjUsMzYuNSBMMjA5Ljk2MjUsMzYuNSBMMjA5Ljk2MjUsMzQuNzUgTDIwNS4wMjUsMzQuNzUgWiBNMjA1LjcxMjUsMzUuNDM3NSBRMjA1LjcxMjUsMzUuNDM3NSAyMDUuNzEyNSwyNi4yNSBMMjAzLjk2MjUsMjYuMjUgUTIwMy45NjI1LDI2LjI1IDIwMy45NjI1LDM1LjQzNzUgTDIwNS43MTI1LDM1LjQzNzUgWiBNMjA5LjI3NSwzNS40Mzc1IEwyMTEuMDI1LDM1LjQzNzUgUTIxMS4wMjUsMzUuNDM3NSAyMTEuMDI1LDMyLjYyNSBMMjA5LjI3NSwzMi42MjUgUTIwOS4yNzUsMzIuNjI1IDIwOS4yNzUsMzUuNDM3NSBaIE0yMDkuMjc1LDI2LjI1IFEyMDkuMjc1LDI2LjI1IDIwOS4yNzUsMjkuMDYyNSBMMjExLjAyNSwyOS4wNjI1IFEyMTEuMDI1LDI5LjA2MjUgMjExLjAyNSwyNi4yNSBMMjA5LjI3NSwyNi4yNSBaIE0yMDUuMDI1LDI2LjkzNzUgTDIwOS45NjI1LDI2LjkzNzUgTDIwOS45NjI1LDI1LjE4NzUgTDIwNS4wMjUsMjUuMTg3NSBMMjA1LjAyNSwyNi45Mzc1IFogIiBmaWxsPSIjMDAwMDAwIi8+PHRleHQgZmlsbD0iIzAwMDAwMCIgZm9udC1mYW1pbHk9InNhbnMtc2VyaWYiIGZvbnQtc2l6ZT0iMTQiIGxlbmd0aEFkanVzdD0ic3BhY2luZyIgdGV4dExlbmd0aD0iMjgiIHg9IjIyMy42IiB5PSIzNi4yNDIyIj5Vc2VyPC90ZXh0PjxsaW5lIHN0eWxlPSJzdHJva2U6IzE4MTgxODtzdHJva2Utd2lkdGg6MC41OyIgeDE9IjE4My41IiB4Mj0iMjYzLjUiIHkxPSI0Ni41IiB5Mj0iNDYuNSIvPjxyZWN0IGZpbGw9Im5vbmUiIGhlaWdodD0iNiIgc3R5bGU9InN0cm9rZTojNTk1OTU5O3N0cm9rZS13aWR0aDoxOyIgd2lkdGg9IjYiIHg9IjE5MC41IiB5PSI1Ni40OTIyIi8+PHRleHQgZmlsbD0iIzAwMDAwMCIgZm9udC1mYW1pbHk9InNhbnMtc2VyaWYiIGZvbnQtc2l6ZT0iMTQiIGxlbmd0aEFkanVzdD0ic3BhY2luZyIgdGV4dExlbmd0aD0iMTQiIHg9IjIwMi41IiB5PSI2My43MzQ0Ij5JRDwvdGV4dD48cmVjdCBmaWxsPSJub25lIiBoZWlnaHQ9IjYiIHN0eWxlPSJzdHJva2U6IzU5NTk1OTtzdHJva2Utd2lkdGg6MTsiIHdpZHRoPSI2IiB4PSIxOTAuNSIgeT0iNzEuNDc2NiIvPjx0ZXh0IGZpbGw9IiMwMDAwMDAiIGZvbnQtZmFtaWx5PSJzYW5zLXNlcmlmIiBmb250LXNpemU9IjE0IiBsZW5ndGhBZGp1c3Q9InNwYWNpbmciIHRleHRMZW5ndGg9IjM1IiB4PSIyMDIuNSIgeT0iNzguNzE4OCI+RW1haWw8L3RleHQ+PHJlY3QgZmlsbD0ibm9uZSIgaGVpZ2h0PSI2IiBzdHlsZT0ic3Ryb2tlOiM1OTU5NTk7c3Ryb2tlLXdpZHRoOjE7IiB3aWR0aD0iNiIgeD0iMTkwLjUiIHk9Ijg2LjQ2MDkiLz48dGV4dCBmaWxsPSIjMDAwMDAwIiBmb250LWZhbWlseT0ic2Fucy1zZXJpZiIgZm9udC1zaXplPSIxNCIgbGVuZ3RoQWRqdXN0PSJzcGFjaW5nIiB0ZXh0TGVuZ3RoPSI1NiIgeD0iMjAyLjUiIHk9IjkzLjcwMzEiPk0mIzc4NTM7dF9raCYjNzg0OTt1PC90ZXh0PjxsaW5lIHN0eWxlPSJzdHJva2U6IzE4MTgxODtzdHJva2Utd2lkdGg6MC41OyIgeDE9IjE4My41IiB4Mj0iMjYzLjUiIHkxPSI5OS40NTMxIiB5Mj0iOTkuNDUzMSIvPjwvZz48IS0tY2xhc3MgUHJvZHVjdEluQ2FydC0tPjxnIGNsYXNzPSJlbnRpdHkiIGRhdGEtZW50aXR5PSJQcm9kdWN0SW5DYXJ0IiBkYXRhLXNvdXJjZS1saW5lPSIxOSIgZGF0YS11aWQ9ImVudDAwMDQiIGlkPSJlbnRpdHlfUHJvZHVjdEluQ2FydCI+PHJlY3QgZmlsbD0iI0YxRjFGMSIgaGVpZ2h0PSI2Mi45ODQ0IiByeD0iMi41IiByeT0iMi41IiBzdHlsZT0ic3Ryb2tlOiMxODE4MTg7c3Ryb2tlLXdpZHRoOjAuNTsiIHdpZHRoPSIxMjMiIHg9IjciIHk9IjIwNiIvPjxlbGxpcHNlIGN4PSIyMiIgY3k9IjIyMiIgZmlsbD0iI0MyQzJDMiIgcng9IjExIiByeT0iMTEiIHN0eWxlPSJzdHJva2U6IzE4MTgxODtzdHJva2Utd2lkdGg6MTsiLz48cGF0aCBkPSJNMTkuNjI1LDIyNi4yNSBMMTkuNjI1LDIyOCBMMjQuNTYyNSwyMjggTDI0LjU2MjUsMjI2LjI1IEwxOS42MjUsMjI2LjI1IFogTTIwLjMxMjUsMjI2LjkzNzUgUTIwLjMxMjUsMjI2LjkzNzUgMjAuMzEyNSwyMTcuNzUgTDE4LjU2MjUsMjE3Ljc1IFExOC41NjI1LDIxNy43NSAxOC41NjI1LDIyNi45Mzc1IEwyMC4zMTI1LDIyNi45Mzc1IFogTTIzLjg3NSwyMjYuOTM3NSBMMjUuNjI1LDIyNi45Mzc1IFEyNS42MjUsMjI2LjkzNzUgMjUuNjI1LDIyNC4xMjUgTDIzLjg3NSwyMjQuMTI1IFEyMy44NzUsMjI0LjEyNSAyMy44NzUsMjI2LjkzNzUgWiBNMjMuODc1LDIxNy43NSBRMjMuODc1LDIxNy43NSAyMy44NzUsMjIwLjU2MjUgTDI1LjYyNSwyMjAuNTYyNSBRMjUuNjI1LDIyMC41NjI1IDI1LjYyNSwyMTcuNzUgTDIzLjg3NSwyMTcuNzUgWiBNMTkuNjI1LDIxOC40Mzc1IEwyNC41NjI1LDIxOC40Mzc1IEwyNC41NjI1LDIxNi42ODc1IEwxOS42MjUsMjE2LjY4NzUgTDE5LjYyNSwyMTguNDM3NSBaICIgZmlsbD0iIzAwMDAwMCIvPjx0ZXh0IGZpbGw9IiMwMDAwMDAiIGZvbnQtZmFtaWx5PSJzYW5zLXNlcmlmIiBmb250LXNpemU9IjE0IiBsZW5ndGhBZGp1c3Q9InNwYWNpbmciIHRleHRMZW5ndGg9IjkxIiB4PSIzNiIgeT0iMjI3Ljc0MjIiPlByb2R1Y3RJbkNhcnQ8L3RleHQ+PGxpbmUgc3R5bGU9InN0cm9rZTojMTgxODE4O3N0cm9rZS13aWR0aDowLjU7IiB4MT0iOCIgeDI9IjEyOSIgeTE9IjIzOCIgeTI9IjIzOCIvPjxyZWN0IGZpbGw9Im5vbmUiIGhlaWdodD0iNiIgc3R5bGU9InN0cm9rZTojNTk1OTU5O3N0cm9rZS13aWR0aDoxOyIgd2lkdGg9IjYiIHg9IjE1IiB5PSIyNDcuOTkyMiIvPjx0ZXh0IGZpbGw9IiMwMDAwMDAiIGZvbnQtZmFtaWx5PSJzYW5zLXNlcmlmIiBmb250LXNpemU9IjE0IiBsZW5ndGhBZGp1c3Q9InNwYWNpbmciIHRleHRMZW5ndGg9IjU2IiB4PSIyNyIgeT0iMjU1LjIzNDQiPlMmIzc4ODk7X2wmIzQzMjsmIzc5MDc7bmc8L3RleHQ+PGxpbmUgc3R5bGU9InN0cm9rZTojMTgxODE4O3N0cm9rZS13aWR0aDowLjU7IiB4MT0iOCIgeDI9IjEyOSIgeTE9IjI2MC45ODQ0IiB5Mj0iMjYwLjk4NDQiLz48L2c+PCEtLWNsYXNzIEJ1eWVyLS0+PGcgY2xhc3M9ImVudGl0eSIgZGF0YS1lbnRpdHk9IkJ1eWVyIiBkYXRhLXNvdXJjZS1saW5lPSIyNSIgZGF0YS11aWQ9ImVudDAwMDYiIGlkPSJlbnRpdHlfQnV5ZXIiPjxyZWN0IGZpbGw9IiNGMUYxRjEiIGhlaWdodD0iMTIyLjkyMTkiIHJ4PSIyLjUiIHJ5PSIyLjUiIHN0eWxlPSJzdHJva2U6IzE4MTgxODtzdHJva2Utd2lkdGg6MC41OyIgd2lkdGg9IjExNyIgeD0iMTY1IiB5PSIxNzYiLz48ZWxsaXBzZSBjeD0iMjAyLjUiIGN5PSIxOTIiIGZpbGw9IiNDMkMyQzIiIHJ4PSIxMSIgcnk9IjExIiBzdHlsZT0ic3Ryb2tlOiMxODE4MTg7c3Ryb2tlLXdpZHRoOjE7Ii8+PHBhdGggZD0iTTIwMC4xMjUsMTk2LjI1IEwyMDAuMTI1LDE5OCBMMjA1LjA2MjUsMTk4IEwyMDUuMDYyNSwxOTYuMjUgTDIwMC4xMjUsMTk2LjI1IFogTTIwMC44MTI1LDE5Ni45Mzc1IFEyMDAuODEyNSwxOTYuOTM3NSAyMDAuODEyNSwxODcuNzUgTDE5OS4wNjI1LDE4Ny43NSBRMTk5LjA2MjUsMTg3Ljc1IDE5OS4wNjI1LDE5Ni45Mzc1IEwyMDAuODEyNSwxOTYuOTM3NSBaIE0yMDQuMzc1LDE5Ni45Mzc1IEwyMDYuMTI1LDE5Ni45Mzc1IFEyMDYuMTI1LDE5Ni45Mzc1IDIwNi4xMjUsMTk0LjEyNSBMMjA0LjM3NSwxOTQuMTI1IFEyMDQuMzc1LDE5NC4xMjUgMjA0LjM3NSwxOTYuOTM3NSBaIE0yMDQuMzc1LDE4Ny43NSBRMjA0LjM3NSwxODcuNzUgMjA0LjM3NSwxOTAuNTYyNSBMMjA2LjEyNSwxOTAuNTYyNSBRMjA2LjEyNSwxOTAuNTYyNSAyMDYuMTI1LDE4Ny43NSBMMjA0LjM3NSwxODcuNzUgWiBNMjAwLjEyNSwxODguNDM3NSBMMjA1LjA2MjUsMTg4LjQzNzUgTDIwNS4wNjI1LDE4Ni42ODc1IEwyMDAuMTI1LDE4Ni42ODc1IEwyMDAuMTI1LDE4OC40Mzc1IFogIiBmaWxsPSIjMDAwMDAwIi8+PHRleHQgZmlsbD0iIzAwMDAwMCIgZm9udC1mYW1pbHk9InNhbnMtc2VyaWYiIGZvbnQtc2l6ZT0iMTQiIGxlbmd0aEFkanVzdD0ic3BhY2luZyIgdGV4dExlbmd0aD0iMzUiIHg9IjIyMS41IiB5PSIxOTcuNzQyMiI+QnV5ZXI8L3RleHQ+PGxpbmUgc3R5bGU9InN0cm9rZTojMTgxODE4O3N0cm9rZS13aWR0aDowLjU7IiB4MT0iMTY2IiB4Mj0iMjgxIiB5MT0iMjA4IiB5Mj0iMjA4Ii8+PHJlY3QgZmlsbD0ibm9uZSIgaGVpZ2h0PSI2IiBzdHlsZT0ic3Ryb2tlOiM1OTU5NTk7c3Ryb2tlLXdpZHRoOjE7IiB3aWR0aD0iNiIgeD0iMTczIiB5PSIyMTcuOTkyMiIvPjx0ZXh0IGZpbGw9IiMwMDAwMDAiIGZvbnQtZmFtaWx5PSJzYW5zLXNlcmlmIiBmb250LXNpemU9IjE0IiBsZW5ndGhBZGp1c3Q9InNwYWNpbmciIHRleHRMZW5ndGg9IjIxIiB4PSIxODUiIHk9IjIyNS4yMzQ0Ij5UJiMyMzQ7bjwvdGV4dD48cmVjdCBmaWxsPSJub25lIiBoZWlnaHQ9IjYiIHN0eWxlPSJzdHJva2U6IzU5NTk1OTtzdHJva2Utd2lkdGg6MTsiIHdpZHRoPSI2IiB4PSIxNzMiIHk9IjIzMi45NzY2Ii8+PHRleHQgZmlsbD0iIzAwMDAwMCIgZm9udC1mYW1pbHk9InNhbnMtc2VyaWYiIGZvbnQtc2l6ZT0iMTQiIGxlbmd0aEFkanVzdD0ic3BhY2luZyIgdGV4dExlbmd0aD0iOTEiIHg9IjE4NSIgeT0iMjQwLjIxODgiPlMmIzc4ODk7XyYjMjczO2kmIzc4Nzk7bl90aG8mIzc4NDE7aTwvdGV4dD48bGluZSBzdHlsZT0ic3Ryb2tlOiMxODE4MTg7c3Ryb2tlLXdpZHRoOjAuNTsiIHgxPSIxNjYiIHgyPSIyODEiIHkxPSIyNDUuOTY4OCIgeTI9IjI0NS45Njg4Ii8+PGVsbGlwc2UgY3g9IjE3NiIgY3k9IjI1OC45NjA5IiBmaWxsPSIjQTZBNkE2IiByeD0iMyIgcnk9IjMiIHN0eWxlPSJzdHJva2U6IzU0NTQ1NDtzdHJva2Utd2lkdGg6MTsiLz48dGV4dCBmaWxsPSIjMDAwMDAwIiBmb250LWZhbWlseT0ic2Fucy1zZXJpZiIgZm9udC1zaXplPSIxNCIgbGVuZ3RoQWRqdXN0PSJzcGFjaW5nIiB0ZXh0TGVuZ3RoPSI3MCIgeD0iMTg1IiB5PSIyNjMuMjAzMSI+VGgmIzIzNDttX2dpJiM3ODg3OygpPC90ZXh0PjxlbGxpcHNlIGN4PSIxNzYiIGN5PSIyNzMuOTQ1MyIgZmlsbD0iI0E2QTZBNiIgcng9IjMiIHJ5PSIzIiBzdHlsZT0ic3Ryb2tlOiM1NDU0NTQ7c3Ryb2tlLXdpZHRoOjE7Ii8+PHRleHQgZmlsbD0iIzAwMDAwMCIgZm9udC1mYW1pbHk9InNhbnMtc2VyaWYiIGZvbnQtc2l6ZT0iMTQiIGxlbmd0aEFkanVzdD0ic3BhY2luZyIgdGV4dExlbmd0aD0iNjMiIHg9IjE4NSIgeT0iMjc4LjE4NzUiPlgmIzI0MzthX2dpJiM3ODg3OygpPC90ZXh0PjxlbGxpcHNlIGN4PSIxNzYiIGN5PSIyODguOTI5NyIgZmlsbD0iI0E2QTZBNiIgcng9IjMiIHJ5PSIzIiBzdHlsZT0ic3Ryb2tlOiM1NDU0NTQ7c3Ryb2tlLXdpZHRoOjE7Ii8+PHRleHQgZmlsbD0iIzAwMDAwMCIgZm9udC1mYW1pbHk9InNhbnMtc2VyaWYiIGZvbnQtc2l6ZT0iMTQiIGxlbmd0aEFkanVzdD0ic3BhY2luZyIgdGV4dExlbmd0aD0iNjMiIHg9IjE4NSIgeT0iMjkzLjE3MTkiPlMmIzc5MTc7YV9naSYjNzg4NzsoKTwvdGV4dD48L2c+PCEtLWNsYXNzIEFkbWluLS0+PGcgY2xhc3M9ImVudGl0eSIgZGF0YS1lbnRpdHk9IkFkbWluIiBkYXRhLXNvdXJjZS1saW5lPSIzNSIgZGF0YS11aWQ9ImVudDAwMDgiIGlkPSJlbnRpdHlfQWRtaW4iPjxyZWN0IGZpbGw9IiNGMUYxRjEiIGhlaWdodD0iOTIuOTUzMSIgcng9IjIuNSIgcnk9IjIuNSIgc3R5bGU9InN0cm9rZTojMTgxODE4O3N0cm9rZS13aWR0aDowLjU7IiB3aWR0aD0iMTQ1IiB4PSIzMTciIHk9IjE5MSIvPjxlbGxpcHNlIGN4PSIzNjcuNzUiIGN5PSIyMDciIGZpbGw9IiNDMkMyQzIiIHJ4PSIxMSIgcnk9IjExIiBzdHlsZT0ic3Ryb2tlOiMxODE4MTg7c3Ryb2tlLXdpZHRoOjE7Ii8+PHBhdGggZD0iTTM2NS4zNzUsMjExLjI1IEwzNjUuMzc1LDIxMyBMMzcwLjMxMjUsMjEzIEwzNzAuMzEyNSwyMTEuMjUgTDM2NS4zNzUsMjExLjI1IFogTTM2Ni4wNjI1LDIxMS45Mzc1IFEzNjYuMDYyNSwyMTEuOTM3NSAzNjYuMDYyNSwyMDIuNzUgTDM2NC4zMTI1LDIwMi43NSBRMzY0LjMxMjUsMjAyLjc1IDM2NC4zMTI1LDIxMS45Mzc1IEwzNjYuMDYyNSwyMTEuOTM3NSBaIE0zNjkuNjI1LDIxMS45Mzc1IEwzNzEuMzc1LDIxMS45Mzc1IFEzNzEuMzc1LDIxMS45Mzc1IDM3MS4zNzUsMjA5LjEyNSBMMzY5LjYyNSwyMDkuMTI1IFEzNjkuNjI1LDIwOS4xMjUgMzY5LjYyNSwyMTEuOTM3NSBaIE0zNjkuNjI1LDIwMi43NSBRMzY5LjYyNSwyMDIuNzUgMzY5LjYyNSwyMDUuNTYyNSBMMzcxLjM3NSwyMDUuNTYyNSBRMzcxLjM3NSwyMDUuNTYyNSAzNzEuMzc1LDIwMi43NSBMMzY5LjYyNSwyMDIuNzUgWiBNMzY1LjM3NSwyMDMuNDM3NSBMMzcwLjMxMjUsMjAzLjQzNzUgTDM3MC4zMTI1LDIwMS42ODc1IEwzNjUuMzc1LDIwMS42ODc1IEwzNjUuMzc1LDIwMy40Mzc1IFogIiBmaWxsPSIjMDAwMDAwIi8+PHRleHQgZmlsbD0iIzAwMDAwMCIgZm9udC1mYW1pbHk9InNhbnMtc2VyaWYiIGZvbnQtc2l6ZT0iMTQiIGxlbmd0aEFkanVzdD0ic3BhY2luZyIgdGV4dExlbmd0aD0iMzUiIHg9IjM4OC4yNSIgeT0iMjEyLjc0MjIiPkFkbWluPC90ZXh0PjxsaW5lIHN0eWxlPSJzdHJva2U6IzE4MTgxODtzdHJva2Utd2lkdGg6MC41OyIgeDE9IjMxOCIgeDI9IjQ2MSIgeTE9IjIyMyIgeTI9IjIyMyIvPjxsaW5lIHN0eWxlPSJzdHJva2U6IzE4MTgxODtzdHJva2Utd2lkdGg6MC41OyIgeDE9IjMxOCIgeDI9IjQ2MSIgeTE9IjIzMSIgeTI9IjIzMSIvPjxlbGxpcHNlIGN4PSIzMjgiIGN5PSIyNDMuOTkyMiIgZmlsbD0iI0E2QTZBNiIgcng9IjMiIHJ5PSIzIiBzdHlsZT0ic3Ryb2tlOiM1NDU0NTQ7c3Ryb2tlLXdpZHRoOjE7Ii8+PHRleHQgZmlsbD0iIzAwMDAwMCIgZm9udC1mYW1pbHk9InNhbnMtc2VyaWYiIGZvbnQtc2l6ZT0iMTQiIGxlbmd0aEFkanVzdD0ic3BhY2luZyIgdGV4dExlbmd0aD0iMTE5IiB4PSIzMzciIHk9IjI0OC4yMzQ0Ij5YZW1fdG8mIzIyNDtuX2ImIzc4OTc7X2dpJiM3ODg3OygpPC90ZXh0PjxlbGxpcHNlIGN4PSIzMjgiIGN5PSIyNTguOTc2NiIgZmlsbD0iI0E2QTZBNiIgcng9IjMiIHJ5PSIzIiBzdHlsZT0ic3Ryb2tlOiM1NDU0NTQ7c3Ryb2tlLXdpZHRoOjE7Ii8+PHRleHQgZmlsbD0iIzAwMDAwMCIgZm9udC1mYW1pbHk9InNhbnMtc2VyaWYiIGZvbnQtc2l6ZT0iMTQiIGxlbmd0aEFkanVzdD0ic3BhY2luZyIgdGV4dExlbmd0aD0iMTA1IiB4PSIzMzciIHk9IjI2My4yMTg4Ij5LJiMyMzc7Y2hfaG8mIzc4NDE7dF9naSYjNzg4NzsoKTwvdGV4dD48ZWxsaXBzZSBjeD0iMzI4IiBjeT0iMjczLjk2MDkiIGZpbGw9IiNBNkE2QTYiIHJ4PSIzIiByeT0iMyIgc3R5bGU9InN0cm9rZTojNTQ1NDU0O3N0cm9rZS13aWR0aDoxOyIvPjx0ZXh0IGZpbGw9IiMwMDAwMDAiIGZvbnQtZmFtaWx5PSJzYW5zLXNlcmlmIiBmb250LXNpemU9IjE0IiBsZW5ndGhBZGp1c3Q9InNwYWNpbmciIHRleHRMZW5ndGg9IjExOSIgeD0iMzM3IiB5PSIyNzguMjAzMSI+ViYjMjQ0O19oaSYjNzg3OTt1X2hvJiMyMjU7X2dpJiM3ODg3OygpPC90ZXh0PjwvZz48IS0tY2xhc3MgQ2FydC0tPjxnIGNsYXNzPSJlbnRpdHkiIGRhdGEtZW50aXR5PSJDYXJ0IiBkYXRhLXNvdXJjZS1saW5lPSI0NCIgZGF0YS11aWQ9ImVudDAwMTAiIGlkPSJlbnRpdHlfQ2FydCI+PHJlY3QgZmlsbD0iI0YxRjFGMSIgaGVpZ2h0PSI5Mi45NTMxIiByeD0iMi41IiByeT0iMi41IiBzdHlsZT0ic3Ryb2tlOiMxODE4MTg7c3Ryb2tlLXdpZHRoOjAuNTsiIHdpZHRoPSIxMTAiIHg9IjE2OC41IiB5PSIzNzQiLz48ZWxsaXBzZSBjeD0iMjA2IiBjeT0iMzkwIiBmaWxsPSIjQzJDMkMyIiByeD0iMTEiIHJ5PSIxMSIgc3R5bGU9InN0cm9rZTojMTgxODE4O3N0cm9rZS13aWR0aDoxOyIvPjxwYXRoIGQ9Ik0yMDMuNjI1LDM5NC4yNSBMMjAzLjYyNSwzOTYgTDIwOC41NjI1LDM5NiBMMjA4LjU2MjUsMzk0LjI1IEwyMDMuNjI1LDM5NC4yNSBaIE0yMDQuMzEyNSwzOTQuOTM3NSBRMjA0LjMxMjUsMzk0LjkzNzUgMjA0LjMxMjUsMzg1Ljc1IEwyMDIuNTYyNSwzODUuNzUgUTIwMi41NjI1LDM4NS43NSAyMDIuNTYyNSwzOTQuOTM3NSBMMjA0LjMxMjUsMzk0LjkzNzUgWiBNMjA3Ljg3NSwzOTQuOTM3NSBMMjA5LjYyNSwzOTQuOTM3NSBRMjA5LjYyNSwzOTQuOTM3NSAyMDkuNjI1LDM5Mi4xMjUgTDIwNy44NzUsMzkyLjEyNSBRMjA3Ljg3NSwzOTIuMTI1IDIwNy44NzUsMzk0LjkzNzUgWiBNMjA3Ljg3NSwzODUuNzUgUTIwNy44NzUsMzg1Ljc1IDIwNy44NzUsMzg4LjU2MjUgTDIwOS42MjUsMzg4LjU2MjUgUTIwOS42MjUsMzg4LjU2MjUgMjA5LjYyNSwzODUuNzUgTDIwNy44NzUsMzg1Ljc1IFogTTIwMy42MjUsMzg2LjQzNzUgTDIwOC41NjI1LDM4Ni40Mzc1IEwyMDguNTYyNSwzODQuNjg3NSBMMjAzLjYyNSwzODQuNjg3NSBMMjAzLjYyNSwzODYuNDM3NSBaICIgZmlsbD0iIzAwMDAwMCIvPjx0ZXh0IGZpbGw9IiMwMDAwMDAiIGZvbnQtZmFtaWx5PSJzYW5zLXNlcmlmIiBmb250LXNpemU9IjE0IiBsZW5ndGhBZGp1c3Q9InNwYWNpbmciIHRleHRMZW5ndGg9IjI4IiB4PSIyMjUiIHk9IjM5NS43NDIyIj5DYXJ0PC90ZXh0PjxsaW5lIHN0eWxlPSJzdHJva2U6IzE4MTgxODtzdHJva2Utd2lkdGg6MC41OyIgeDE9IjE2OS41IiB4Mj0iMjc3LjUiIHkxPSI0MDYiIHkyPSI0MDYiLz48cmVjdCBmaWxsPSJub25lIiBoZWlnaHQ9IjYiIHN0eWxlPSJzdHJva2U6IzU5NTk1OTtzdHJva2Utd2lkdGg6MTsiIHdpZHRoPSI2IiB4PSIxNzYuNSIgeT0iNDE1Ljk5MjIiLz48dGV4dCBmaWxsPSIjMDAwMDAwIiBmb250LWZhbWlseT0ic2Fucy1zZXJpZiIgZm9udC1zaXplPSIxNCIgbGVuZ3RoQWRqdXN0PSJzcGFjaW5nIiB0ZXh0TGVuZ3RoPSIxNCIgeD0iMTg4LjUiIHk9IjQyMy4yMzQ0Ij5JRDwvdGV4dD48cmVjdCBmaWxsPSJub25lIiBoZWlnaHQ9IjYiIHN0eWxlPSJzdHJva2U6IzU5NTk1OTtzdHJva2Utd2lkdGg6MTsiIHdpZHRoPSI2IiB4PSIxNzYuNSIgeT0iNDMwLjk3NjYiLz48dGV4dCBmaWxsPSIjMDAwMDAwIiBmb250LWZhbWlseT0ic2Fucy1zZXJpZiIgZm9udC1zaXplPSIxNCIgbGVuZ3RoQWRqdXN0PSJzcGFjaW5nIiB0ZXh0TGVuZ3RoPSI4NCIgeD0iMTg4LjUiIHk9IjQzOC4yMTg4Ij5UJiM3ODkzO25nX2NoaV9waCYjMjM3OzwvdGV4dD48cmVjdCBmaWxsPSJub25lIiBoZWlnaHQ9IjYiIHN0eWxlPSJzdHJva2U6IzU5NTk1OTtzdHJva2Utd2lkdGg6MTsiIHdpZHRoPSI2IiB4PSIxNzYuNSIgeT0iNDQ1Ljk2MDkiLz48dGV4dCBmaWxsPSIjMDAwMDAwIiBmb250LWZhbWlseT0ic2Fucy1zZXJpZiIgZm9udC1zaXplPSIxNCIgbGVuZ3RoQWRqdXN0PSJzcGFjaW5nIiB0ZXh0TGVuZ3RoPSI3MCIgeD0iMTg4LjUiIHk9IjQ1My4yMDMxIj5UciYjNzg0MTtuZ190aCYjMjI1O2k8L3RleHQ+PGxpbmUgc3R5bGU9InN0cm9rZTojMTgxODE4O3N0cm9rZS13aWR0aDowLjU7IiB4MT0iMTY5LjUiIHgyPSIyNzcuNSIgeTE9IjQ1OC45NTMxIiB5Mj0iNDU4Ljk1MzEiLz48L2c+PGcgY2xhc3M9ImVudGl0eSIgZGF0YS1lbnRpdHk9IkdNTjE0IiBkYXRhLXNvdXJjZS1saW5lPSI1NiIgZGF0YS11aWQ9ImVudDAwMTUiIGlkPSJlbnRpdHlfR01OMTQiPjxwYXRoIGQ9Ik0zMDAsNDkgTDMwMCw3Mi45MTQxIEEwLDAgMCAwIDAgMzAwLDcyLjkxNDEgTDUyNy43Niw3Mi45MTQxIEw0MjkuMzEsMTkwLjggTDUzNS43Niw3Mi45MTQxIEw3ODIuNSw3Mi45MTQxIEEwLDAgMCAwIDAgNzgyLjUsNzIuOTE0MSBMNzgyLjUsNTkgTDc3Mi41LDQ5IEwzMDAsNDkgQTAsMCAwIDAgMCAzMDAsNDkiIGZpbGw9IiNGQUZBRkEiIHN0eWxlPSJzdHJva2U6IzE4MTgxODtzdHJva2Utd2lkdGg6MC41OyIvPjxwYXRoIGQ9Ik03NzIuNSw0OSBMNzcyLjUsNTkgTDc4Mi41LDU5IEw3NzIuNSw0OSIgZmlsbD0iI0ZBRkFGQSIgc3R5bGU9InN0cm9rZTojMTgxODE4O3N0cm9rZS13aWR0aDowLjU7Ii8+PHRleHQgZmlsbD0iIzAwMDAwMCIgZm9udC1mYW1pbHk9InNhbnMtc2VyaWYiIGZvbnQtc2l6ZT0iMTMiIGxlbmd0aEFkanVzdD0ic3BhY2luZyIgdGV4dExlbmd0aD0iNDYxLjUiIHg9IjMwNiIgeT0iNjYuMjg5MSI+UXUmIzc4NDM7biB0ciYjNzg4MzsgdmkmIzIzNDtuIHhlbSB0byYjMjI0O24gYiYjNzg5NzsgZ2kmIzc4ODc7IHYmIzIyNDsgayYjMjM3O2NoIGhvJiM3ODQxO3QvdiYjMjQ0OyBoaSYjNzg3OTt1IGgmIzI0MzthIG4mIzc4NzE7dSBraCYjMjQ0O25nIGgmIzc5MDc7cCBsJiM3ODc5OzwvdGV4dD48L2c+PCEtLXJldmVyc2UgbGluayBQcm9kdWN0IHRvIFByb2R1Y3RJbkNhcnQtLT48ZyBjbGFzcz0ibGluayIgZGF0YS1lbnRpdHktMT0iUHJvZHVjdCIgZGF0YS1lbnRpdHktMj0iUHJvZHVjdEluQ2FydCIgZGF0YS1zb3VyY2UtbGluZT0iMTkiIGRhdGEtdWlkPSJsbms1IiBpZD0ibGlua19Qcm9kdWN0X1Byb2R1Y3RJbkNhcnQiPjxwYXRoIGNvZGVMaW5lPSIxOSIgZD0iTTY4LjUsMTMzLjMgQzY4LjUsMTYyLjk3IDY4LjUsMTgwLjg0IDY4LjUsMjA1LjgzIiBmaWxsPSJub25lIiBpZD0iUHJvZHVjdC1iYWNrdG8tUHJvZHVjdEluQ2FydCIgc3R5bGU9InN0cm9rZTojMTgxODE4O3N0cm9rZS13aWR0aDoxOyIvPjxwb2x5Z29uIGZpbGw9Im5vbmUiIHBvaW50cz0iNjguNSwxMTUuMyw2Mi41LDEzMy4zLDc0LjUsMTMzLjMsNjguNSwxMTUuMyIgc3R5bGU9InN0cm9rZTojMTgxODE4O3N0cm9rZS13aWR0aDoxOyIvPjwvZz48IS0tcmV2ZXJzZSBsaW5rIFVzZXIgdG8gQnV5ZXItLT48ZyBjbGFzcz0ibGluayIgZGF0YS1lbnRpdHktMT0iVXNlciIgZGF0YS1lbnRpdHktMj0iQnV5ZXIiIGRhdGEtc291cmNlLWxpbmU9IjI1IiBkYXRhLXVpZD0ibG5rNyIgaWQ9ImxpbmtfVXNlcl9CdXllciI+PHBhdGggY29kZUxpbmU9IjI1IiBkPSJNMjIzLjUsMTI1Ljg1IEMyMjMuNSwxNDYuNjUgMjIzLjUsMTUzLjU0IDIyMy41LDE3NS44NiIgZmlsbD0ibm9uZSIgaWQ9IlVzZXItYmFja3RvLUJ1eWVyIiBzdHlsZT0ic3Ryb2tlOiMxODE4MTg7c3Ryb2tlLXdpZHRoOjE7Ii8+PHBvbHlnb24gZmlsbD0ibm9uZSIgcG9pbnRzPSIyMjMuNSwxMDcuODUsMjE3LjUsMTI1Ljg1LDIyOS41LDEyNS44NSwyMjMuNSwxMDcuODUiIHN0eWxlPSJzdHJva2U6IzE4MTgxODtzdHJva2Utd2lkdGg6MTsiLz48L2c+PCEtLXJldmVyc2UgbGluayBVc2VyIHRvIEFkbWluLS0+PGcgY2xhc3M9ImxpbmsiIGRhdGEtZW50aXR5LTE9IlVzZXIiIGRhdGEtZW50aXR5LTI9IkFkbWluIiBkYXRhLXNvdXJjZS1saW5lPSIzNSIgZGF0YS11aWQ9ImxuazkiIGlkPSJsaW5rX1VzZXJfQWRtaW4iPjxwYXRoIGNvZGVMaW5lPSIzNSIgZD0iTTI3Ni45MzU5LDExOC4xNzIgQzMwMS43MDU5LDE0NC4yMTIgMzIwLjg0LDE2NC4zMyAzNDYuMDQsMTkwLjgxIiBmaWxsPSJub25lIiBpZD0iVXNlci1iYWNrdG8tQWRtaW4iIHN0eWxlPSJzdHJva2U6IzE4MTgxODtzdHJva2Utd2lkdGg6MTsiLz48cG9seWdvbiBmaWxsPSJub25lIiBwb2ludHM9IjI2NC41MywxMDUuMTMsMjcyLjU4ODYsMTIyLjMwNzMsMjgxLjI4MzIsMTE0LjAzNjcsMjY0LjUzLDEwNS4xMyIgc3R5bGU9InN0cm9rZTojMTgxODE4O3N0cm9rZS13aWR0aDoxOyIvPjwvZz48IS0tbGluayBQcm9kdWN0SW5DYXJ0IHRvIENhcnQtLT48ZyBjbGFzcz0ibGluayIgZGF0YS1lbnRpdHktMT0iUHJvZHVjdEluQ2FydCIgZGF0YS1lbnRpdHktMj0iQ2FydCIgZGF0YS1zb3VyY2UtbGluZT0iNTEiIGRhdGEtdWlkPSJsbmsxMSIgaWQ9ImxpbmtfUHJvZHVjdEluQ2FydF9DYXJ0Ij48cGF0aCBjb2RlTGluZT0iNTEiIGQ9Ik05NC43OSwyNjkuMiBDMTE5LjMyLDI5Ny44NSAxNTYuMjQsMzQwLjk2IDE4NC4yNiwzNzMuNjciIGZpbGw9Im5vbmUiIGlkPSJQcm9kdWN0SW5DYXJ0LUNhcnQiIHN0eWxlPSJzdHJva2U6IzE4MTgxODtzdHJva2Utd2lkdGg6MTsiLz48cG9seWdvbiBmaWxsPSIjMDAwMDAwIiBwb2ludHM9IjE2My43NTI0LDM0MC43NTQ3LDE2MC4xMDEsMzMxLjk3MywxNTUuNjM2NiwzMzUuNzk2NCwxNjMuNzUyNCwzNDAuNzU0NyIgc3R5bGU9InN0cm9rZTojMDAwMDAwO3N0cm9rZS13aWR0aDoxOyIvPjx0ZXh0IGZpbGw9IiMwMDAwMDAiIGZvbnQtZmFtaWx5PSJzYW5zLXNlcmlmIiBmb250LXNpemU9IjEzIiBsZW5ndGhBZGp1c3Q9InNwYWNpbmciIHRleHRMZW5ndGg9IjI2IiB4PSIxNjkuNSIgeT0iMzQyLjI4OTEiPmNoJiM3OTEzO2E8L3RleHQ+PHRleHQgZmlsbD0iIzAwMDAwMCIgZm9udC1mYW1pbHk9InNhbnMtc2VyaWYiIGZvbnQtc2l6ZT0iMTMiIGxlbmd0aEFkanVzdD0ic3BhY2luZyIgdGV4dExlbmd0aD0iMzIuNSIgeD0iNjQuOTYzOSIgeT0iMjg5LjQ2MzciPjAuLi4qPC90ZXh0Pjx0ZXh0IGZpbGw9IiMwMDAwMDAiIGZvbnQtZmFtaWx5PSJzYW5zLXNlcmlmIiBmb250LXNpemU9IjEzIiBsZW5ndGhBZGp1c3Q9InNwYWNpbmciIHRleHRMZW5ndGg9IjMyLjUiIHg9IjE0My40OTYiIHk9IjM2NC41MzYyIj4wLi4uKjwvdGV4dD48L2c+PCEtLWxpbmsgQnV5ZXIgdG8gQ2FydC0tPjxnIGNsYXNzPSJsaW5rIiBkYXRhLWVudGl0eS0xPSJCdXllciIgZGF0YS1lbnRpdHktMj0iQ2FydCIgZGF0YS1zb3VyY2UtbGluZT0iNTIiIGRhdGEtdWlkPSJsbmsxMiIgaWQ9ImxpbmtfQnV5ZXJfQ2FydCI+PHBhdGggY29kZUxpbmU9IjUyIiBkPSJNMjIzLjUsMjk5LjAyIEMyMjMuNSwzMjMuNDggMjIzLjUsMzUxLjIzIDIyMy41LDM3My45MyIgZmlsbD0ibm9uZSIgaWQ9IkJ1eWVyLUNhcnQiIHN0eWxlPSJzdHJva2U6IzE4MTgxODtzdHJva2Utd2lkdGg6MTsiLz48cG9seWdvbiBmaWxsPSIjMDAwMDAwIiBwb2ludHM9IjIyOC41LDM0MS45NTcsMjMxLjQzODksMzMyLjkxMTksMjI1LjU2MTEsMzMyLjkxMTksMjI4LjUsMzQxLjk1NyIgc3R5bGU9InN0cm9rZTojMDAwMDAwO3N0cm9rZS13aWR0aDoxOyIvPjx0ZXh0IGZpbGw9IiMwMDAwMDAiIGZvbnQtZmFtaWx5PSJzYW5zLXNlcmlmIiBmb250LXNpemU9IjEzIiBsZW5ndGhBZGp1c3Q9InNwYWNpbmciIHRleHRMZW5ndGg9IjQ1LjUiIHg9IjIzNy41IiB5PSIzNDIuMjg5MSI+cXUmIzc4NDM7biBsJiMyNTM7PC90ZXh0Pjx0ZXh0IGZpbGw9IiMwMDAwMDAiIGZvbnQtZmFtaWx5PSJzYW5zLXNlcmlmIiBmb250LXNpemU9IjEzIiBsZW5ndGhBZGp1c3Q9InNwYWNpbmciIHRleHRMZW5ndGg9IjYuNSIgeD0iMjE3LjE4MiIgeT0iMzE5LjIzMTIiPjE8L3RleHQ+PHRleHQgZmlsbD0iIzAwMDAwMCIgZm9udC1mYW1pbHk9InNhbnMtc2VyaWYiIGZvbnQtc2l6ZT0iMTMiIGxlbmd0aEFkanVzdD0ic3BhY2luZyIgdGV4dExlbmd0aD0iNi41IiB4PSIyMTcuMDQ0NSIgeT0iMzY0LjUwODkiPjE8L3RleHQ+PC9nPjwhLS1saW5rIEFkbWluIHRvIENhcnQtLT48ZyBjbGFzcz0ibGluayIgZGF0YS1lbnRpdHktMT0iQWRtaW4iIGRhdGEtZW50aXR5LTI9IkNhcnQiIGRhdGEtc291cmNlLWxpbmU9IjUzIiBkYXRhLXVpZD0ibG5rMTMiIGlkPSJsaW5rX0FkbWluX0NhcnQiPjxwYXRoIGNvZGVMaW5lPSI1MyIgZD0iTTM0Ny42MSwyODQuMTcgQzMyMi40NSwzMTEuNjEgMjkwLjU0LDM0Ni40MSAyNjUuMzgsMzczLjg0IiBmaWxsPSJub25lIiBpZD0iQWRtaW4tQ2FydCIgc3R5bGU9InN0cm9rZTojMTgxODE4O3N0cm9rZS13aWR0aDoxOyIvPjxwb2x5Z29uIGZpbGw9IiMwMDAwMDAiIHBvaW50cz0iMzA4LjEyMDcsMzQwLjY0MjEsMzE2LjQsMzM1Ljk2MiwzMTIuMDY3OSwzMzEuOTg5NCwzMDguMTIwNywzNDAuNjQyMSIgc3R5bGU9InN0cm9rZTojMDAwMDAwO3N0cm9rZS13aWR0aDoxOyIvPjx0ZXh0IGZpbGw9IiMwMDAwMDAiIGZvbnQtZmFtaWx5PSJzYW5zLXNlcmlmIiBmb250LXNpemU9IjEzIiBsZW5ndGhBZGp1c3Q9InNwYWNpbmciIHRleHRMZW5ndGg9IjQ1LjUiIHg9IjMyMC41IiB5PSIzNDIuMjg5MSI+cXUmIzc4NDM7biBsJiMyNTM7PC90ZXh0Pjx0ZXh0IGZpbGw9IiMwMDAwMDAiIGZvbnQtZmFtaWx5PSJzYW5zLXNlcmlmIiBmb250LXNpemU9IjEzIiBsZW5ndGhBZGp1c3Q9InNwYWNpbmciIHRleHRMZW5ndGg9IjYuNSIgeD0iMzM1LjA1MzUiIHk9IjMwNC4zMzkiPjE8L3RleHQ+PHRleHQgZmlsbD0iIzAwMDAwMCIgZm9udC1mYW1pbHk9InNhbnMtc2VyaWYiIGZvbnQtc2l6ZT0iMTMiIGxlbmd0aEFkanVzdD0ic3BhY2luZyIgdGV4dExlbmd0aD0iMjYiIHg9IjI0NC4xNjMzIiB5PSIzNjQuNDA0Ij4xLi4qPC90ZXh0PjwvZz48IS0tU1JDPVtYTENfUnpHbTVEX3BBUHZrdVBfa2UyajJiTzJZS2JMNWUxUjRQZmJTWUF0NEpmZXU5b2ZXT2taRzBOTFd3ODNLcXVjWEJJVTFVYkNZbjYzNHpfMHR1VGJFWmVqMENFTmJ2dlZ0LV9FU0NrNG9mbUtMODNBUFhRcDhIMElnZ0E4V2swOXhwM0hWR3IzdVUwVkFEMVZPREF4STIzUWVQMjFDeW9jNHFqR3AySmFwelBhOG1mSU05Sm1raTJqS3kzZTA2Q0JNWGRsaXdORmZZYXNrZnd2dWczekJIa3BkQjdaeEp4ZmpaZVkwQ2pESlBTS1RHNlpnVVR4SUZJc1plaV9yRzUyVWtjZTctbkg5aEJoQWEtb2t3Q0xQY09teGJhcmFVR3pDZG9BS2NGZ3g0dDkxbFBCTUt6MXZrX0RjRUVwMEJOY1Y1Z2ZsdGNFamg1dEo3OUZxdm5WSnA2SmlQSm9BeFVqNzNnQVlWeDlQSXU3cHZOWmtMR1Z1eGtVeGtmc3hwREdIXzNYNjB1VUlBOVFQVWlobnUwUDZnaXk1WVFzcGd6U1N5Ym5WcVh3MHR5dl84cXhTYXlnNWYwaEo3QzY0OHlqXzlUdVQyb3ZSWVF2NllQdWw0YUhiNjJmdk9QZ0o3bEVzZGVVQ0VCTWdUXzFDQm1ZcFBZZXlyVEUtRUJVY2JjYWJ1LXdRY1VRM1o0ZDhFQ2NQZGRraUcwTzQ1VENPWW5rb1d1NW5zQS1lMUZIcTZGSXREaFdyNmVzazNtMXpUUU4zUnFFOHRNU0tyV0VfWGk2UVJyZlJEa3B4dzVCejNQank0Q2tjcks2emxhMWMybC13QjhWaVBQaWFfNnE5aG9BeWlaUEJpNWMyWW1LYy1YR0ljb0p1OTZ6RXowOXlVZFlQQm9iOE41cTUyVENCbERZZVZ2UDNRWnI3U1dvTS0xUzBdLS0+PC9nPjwvc3ZnPg==;" vertex="1" parent="1">
            <mxGeometry x="590" y="1840" width="789" height="473" as="geometry" />
          </mxCell>
        </UserObject>
        <mxCell id="uVMDQoxGMwyd6C8O165r-7" value="&lt;font style=&quot;font-size: 18px;&quot;&gt;&lt;b style=&quot;&quot;&gt;Giỏ hàng&lt;/b&gt;&lt;/font&gt;" style="text;html=1;align=center;verticalAlign=middle;whiteSpace=wrap;rounded=0;" vertex="1" parent="1">
          <mxGeometry x="810" y="1790" width="200" height="30" as="geometry" />
        </mxCell>
        <UserObject label="" plantUmlData="{&quot;data&quot;:&quot;@startuml\nskinparam monochrome true\n\n&#39; Thực thể từ module Kiểm soát truy cập\nclass User {\n  - ID\n  - Email\n  - Mật_khẩu\n}\n\n&#39; Thực thể từ module Giỏ hàng\nclass Cart {\n  - ID\n  - Tổng_chi_phí\n  - Trạng_thái\n}\n\n&#39; Người mua kế thừa từ User\nUser &lt;|-- Buyer\nclass Buyer {\n  - Tên\n  - Số_điện_thoại\n  - Nhapthongtin()\n}\n\n&#39; Info Giỏ kế thừa từ Cart\nCart &lt;|-- CartInfo\nclass CartInfo {\n  - Sản_phẩm_danh_sách\n}\n\n&#39; Thanh toán\nclass Payment {\n  - ID\n  - Tổng_tiền\n  - Thời_gian\n  - PaymentMethod_ID\n  - PaymentStatus_ID\n  - Địa_chỉ_giao\n  - Danh_sách_sản_phẩm\n  - Tên_người_mua\n  - Số_điện_thoại\n  + Thực_hiện_thanh_toán()\n}\n\n&#39; Phương thức thanh toán\nclass PaymentMethod {\n  - ID\n  - Tên_phương_thức\n  - Mô_tả\n}\n\n&#39; Trạng thái thanh toán\nclass PaymentStatus {\n  - ID\n  - Tên_trạng_thái\n  - Mô_tả\n}\n\n&#39; Mối quan hệ\nBuyer \&quot;1\&quot; -- \&quot;0..*\&quot; Payment : thực hiện\nCartInfo \&quot;1\&quot; -- \&quot;1\&quot; Payment : tạo\nPayment \&quot;1\&quot; -- \&quot;1\&quot; PaymentMethod : sử dụng\nPaymentStatus \&quot;1\&quot; -- \&quot;1...*\&quot; Payment : áp dụng\n\nnote top of Payment\n  Mối quan hệ 1:1 giữa Thanh toán và Phương thức thanh toán\nend note\n\nnote top of PaymentStatus\n  Trạng thái có thể là \&quot;Thành công\&quot; hoặc \&quot;Thất bại\&quot; cho nhiều Thanh toán\nend note\n\n@enduml\n&quot;,&quot;format&quot;:&quot;svg&quot;}" id="uVMDQoxGMwyd6C8O165r-8">
          <mxCell style="shape=image;noLabel=1;verticalAlign=top;aspect=fixed;imageAspect=0;image=data:image/svg+xml,PHN2ZyB4bWxucz0iaHR0cDovL3d3dy53My5vcmcvMjAwMC9zdmciIHhtbG5zOnhsaW5rPSJodHRwOi8vd3d3LnczLm9yZy8xOTk5L3hsaW5rIiBjb250ZW50U3R5bGVUeXBlPSJ0ZXh0L2NzcyIgZGF0YS1kaWFncmFtLXR5cGU9IkNMQVNTIiBoZWlnaHQ9IjcwMXB4IiBwcmVzZXJ2ZUFzcGVjdFJhdGlvPSJub25lIiBzdHlsZT0id2lkdGg6OTEwcHg7aGVpZ2h0OjcwMXB4O2JhY2tncm91bmQ6I0ZGRkZGRjsiIHZlcnNpb249IjEuMSIgdmlld0JveD0iMCAwIDkxMCA3MDEiIHdpZHRoPSI5MTBweCIgem9vbUFuZFBhbj0ibWFnbmlmeSI+PGRlZnMvPjxnPjwhLS1jbGFzcyBVc2VyLS0+PGcgY2xhc3M9ImVudGl0eSIgZGF0YS1lbnRpdHk9IlVzZXIiIGRhdGEtc291cmNlLWxpbmU9IjQiIGRhdGEtdWlkPSJlbnQwMDAyIiBpZD0iZW50aXR5X1VzZXIiPjxyZWN0IGZpbGw9IiNGMUYxRjEiIGhlaWdodD0iOTIuOTUzMSIgcng9IjIuNSIgcnk9IjIuNSIgc3R5bGU9InN0cm9rZTojMTgxODE4O3N0cm9rZS13aWR0aDowLjU7IiB3aWR0aD0iODIiIHg9IjI4IiB5PSI3Ii8+PGVsbGlwc2UgY3g9IjUyLjkiIGN5PSIyMyIgZmlsbD0iI0MyQzJDMiIgcng9IjExIiByeT0iMTEiIHN0eWxlPSJzdHJva2U6IzE4MTgxODtzdHJva2Utd2lkdGg6MTsiLz48cGF0aCBkPSJNNTAuNTI1LDI3LjI1IEw1MC41MjUsMjkgTDU1LjQ2MjUsMjkgTDU1LjQ2MjUsMjcuMjUgTDUwLjUyNSwyNy4yNSBaIE01MS4yMTI1LDI3LjkzNzUgUTUxLjIxMjUsMjcuOTM3NSA1MS4yMTI1LDE4Ljc1IEw0OS40NjI1LDE4Ljc1IFE0OS40NjI1LDE4Ljc1IDQ5LjQ2MjUsMjcuOTM3NSBMNTEuMjEyNSwyNy45Mzc1IFogTTU0Ljc3NSwyNy45Mzc1IEw1Ni41MjUsMjcuOTM3NSBRNTYuNTI1LDI3LjkzNzUgNTYuNTI1LDI1LjEyNSBMNTQuNzc1LDI1LjEyNSBRNTQuNzc1LDI1LjEyNSA1NC43NzUsMjcuOTM3NSBaIE01NC43NzUsMTguNzUgUTU0Ljc3NSwxOC43NSA1NC43NzUsMjEuNTYyNSBMNTYuNTI1LDIxLjU2MjUgUTU2LjUyNSwyMS41NjI1IDU2LjUyNSwxOC43NSBMNTQuNzc1LDE4Ljc1IFogTTUwLjUyNSwxOS40Mzc1IEw1NS40NjI1LDE5LjQzNzUgTDU1LjQ2MjUsMTcuNjg3NSBMNTAuNTI1LDE3LjY4NzUgTDUwLjUyNSwxOS40Mzc1IFogIiBmaWxsPSIjMDAwMDAwIi8+PHRleHQgZmlsbD0iIzAwMDAwMCIgZm9udC1mYW1pbHk9InNhbnMtc2VyaWYiIGZvbnQtc2l6ZT0iMTQiIGxlbmd0aEFkanVzdD0ic3BhY2luZyIgdGV4dExlbmd0aD0iMjgiIHg9IjY5LjEiIHk9IjI4Ljc0MjIiPlVzZXI8L3RleHQ+PGxpbmUgc3R5bGU9InN0cm9rZTojMTgxODE4O3N0cm9rZS13aWR0aDowLjU7IiB4MT0iMjkiIHgyPSIxMDkiIHkxPSIzOSIgeTI9IjM5Ii8+PHJlY3QgZmlsbD0ibm9uZSIgaGVpZ2h0PSI2IiBzdHlsZT0ic3Ryb2tlOiM1OTU5NTk7c3Ryb2tlLXdpZHRoOjE7IiB3aWR0aD0iNiIgeD0iMzYiIHk9IjQ4Ljk5MjIiLz48dGV4dCBmaWxsPSIjMDAwMDAwIiBmb250LWZhbWlseT0ic2Fucy1zZXJpZiIgZm9udC1zaXplPSIxNCIgbGVuZ3RoQWRqdXN0PSJzcGFjaW5nIiB0ZXh0TGVuZ3RoPSIxNCIgeD0iNDgiIHk9IjU2LjIzNDQiPklEPC90ZXh0PjxyZWN0IGZpbGw9Im5vbmUiIGhlaWdodD0iNiIgc3R5bGU9InN0cm9rZTojNTk1OTU5O3N0cm9rZS13aWR0aDoxOyIgd2lkdGg9IjYiIHg9IjM2IiB5PSI2My45NzY2Ii8+PHRleHQgZmlsbD0iIzAwMDAwMCIgZm9udC1mYW1pbHk9InNhbnMtc2VyaWYiIGZvbnQtc2l6ZT0iMTQiIGxlbmd0aEFkanVzdD0ic3BhY2luZyIgdGV4dExlbmd0aD0iMzUiIHg9IjQ4IiB5PSI3MS4yMTg4Ij5FbWFpbDwvdGV4dD48cmVjdCBmaWxsPSJub25lIiBoZWlnaHQ9IjYiIHN0eWxlPSJzdHJva2U6IzU5NTk1OTtzdHJva2Utd2lkdGg6MTsiIHdpZHRoPSI2IiB4PSIzNiIgeT0iNzguOTYwOSIvPjx0ZXh0IGZpbGw9IiMwMDAwMDAiIGZvbnQtZmFtaWx5PSJzYW5zLXNlcmlmIiBmb250LXNpemU9IjE0IiBsZW5ndGhBZGp1c3Q9InNwYWNpbmciIHRleHRMZW5ndGg9IjU2IiB4PSI0OCIgeT0iODYuMjAzMSI+TSYjNzg1Mzt0X2toJiM3ODQ5O3U8L3RleHQ+PGxpbmUgc3R5bGU9InN0cm9rZTojMTgxODE4O3N0cm9rZS13aWR0aDowLjU7IiB4MT0iMjkiIHgyPSIxMDkiIHkxPSI5MS45NTMxIiB5Mj0iOTEuOTUzMSIvPjwvZz48IS0tY2xhc3MgQ2FydC0tPjxnIGNsYXNzPSJlbnRpdHkiIGRhdGEtZW50aXR5PSJDYXJ0IiBkYXRhLXNvdXJjZS1saW5lPSIxMSIgZGF0YS11aWQ9ImVudDAwMDMiIGlkPSJlbnRpdHlfQ2FydCI+PHJlY3QgZmlsbD0iI0YxRjFGMSIgaGVpZ2h0PSI5Mi45NTMxIiByeD0iMi41IiByeT0iMi41IiBzdHlsZT0ic3Ryb2tlOiMxODE4MTg7c3Ryb2tlLXdpZHRoOjAuNTsiIHdpZHRoPSIxMTAiIHg9IjE2NiIgeT0iNyIvPjxlbGxpcHNlIGN4PSIyMDMuNSIgY3k9IjIzIiBmaWxsPSIjQzJDMkMyIiByeD0iMTEiIHJ5PSIxMSIgc3R5bGU9InN0cm9rZTojMTgxODE4O3N0cm9rZS13aWR0aDoxOyIvPjxwYXRoIGQ9Ik0yMDEuMTI1LDI3LjI1IEwyMDEuMTI1LDI5IEwyMDYuMDYyNSwyOSBMMjA2LjA2MjUsMjcuMjUgTDIwMS4xMjUsMjcuMjUgWiBNMjAxLjgxMjUsMjcuOTM3NSBRMjAxLjgxMjUsMjcuOTM3NSAyMDEuODEyNSwxOC43NSBMMjAwLjA2MjUsMTguNzUgUTIwMC4wNjI1LDE4Ljc1IDIwMC4wNjI1LDI3LjkzNzUgTDIwMS44MTI1LDI3LjkzNzUgWiBNMjA1LjM3NSwyNy45Mzc1IEwyMDcuMTI1LDI3LjkzNzUgUTIwNy4xMjUsMjcuOTM3NSAyMDcuMTI1LDI1LjEyNSBMMjA1LjM3NSwyNS4xMjUgUTIwNS4zNzUsMjUuMTI1IDIwNS4zNzUsMjcuOTM3NSBaIE0yMDUuMzc1LDE4Ljc1IFEyMDUuMzc1LDE4Ljc1IDIwNS4zNzUsMjEuNTYyNSBMMjA3LjEyNSwyMS41NjI1IFEyMDcuMTI1LDIxLjU2MjUgMjA3LjEyNSwxOC43NSBMMjA1LjM3NSwxOC43NSBaIE0yMDEuMTI1LDE5LjQzNzUgTDIwNi4wNjI1LDE5LjQzNzUgTDIwNi4wNjI1LDE3LjY4NzUgTDIwMS4xMjUsMTcuNjg3NSBMMjAxLjEyNSwxOS40Mzc1IFogIiBmaWxsPSIjMDAwMDAwIi8+PHRleHQgZmlsbD0iIzAwMDAwMCIgZm9udC1mYW1pbHk9InNhbnMtc2VyaWYiIGZvbnQtc2l6ZT0iMTQiIGxlbmd0aEFkanVzdD0ic3BhY2luZyIgdGV4dExlbmd0aD0iMjgiIHg9IjIyMi41IiB5PSIyOC43NDIyIj5DYXJ0PC90ZXh0PjxsaW5lIHN0eWxlPSJzdHJva2U6IzE4MTgxODtzdHJva2Utd2lkdGg6MC41OyIgeDE9IjE2NyIgeDI9IjI3NSIgeTE9IjM5IiB5Mj0iMzkiLz48cmVjdCBmaWxsPSJub25lIiBoZWlnaHQ9IjYiIHN0eWxlPSJzdHJva2U6IzU5NTk1OTtzdHJva2Utd2lkdGg6MTsiIHdpZHRoPSI2IiB4PSIxNzQiIHk9IjQ4Ljk5MjIiLz48dGV4dCBmaWxsPSIjMDAwMDAwIiBmb250LWZhbWlseT0ic2Fucy1zZXJpZiIgZm9udC1zaXplPSIxNCIgbGVuZ3RoQWRqdXN0PSJzcGFjaW5nIiB0ZXh0TGVuZ3RoPSIxNCIgeD0iMTg2IiB5PSI1Ni4yMzQ0Ij5JRDwvdGV4dD48cmVjdCBmaWxsPSJub25lIiBoZWlnaHQ9IjYiIHN0eWxlPSJzdHJva2U6IzU5NTk1OTtzdHJva2Utd2lkdGg6MTsiIHdpZHRoPSI2IiB4PSIxNzQiIHk9IjYzLjk3NjYiLz48dGV4dCBmaWxsPSIjMDAwMDAwIiBmb250LWZhbWlseT0ic2Fucy1zZXJpZiIgZm9udC1zaXplPSIxNCIgbGVuZ3RoQWRqdXN0PSJzcGFjaW5nIiB0ZXh0TGVuZ3RoPSI4NCIgeD0iMTg2IiB5PSI3MS4yMTg4Ij5UJiM3ODkzO25nX2NoaV9waCYjMjM3OzwvdGV4dD48cmVjdCBmaWxsPSJub25lIiBoZWlnaHQ9IjYiIHN0eWxlPSJzdHJva2U6IzU5NTk1OTtzdHJva2Utd2lkdGg6MTsiIHdpZHRoPSI2IiB4PSIxNzQiIHk9Ijc4Ljk2MDkiLz48dGV4dCBmaWxsPSIjMDAwMDAwIiBmb250LWZhbWlseT0ic2Fucy1zZXJpZiIgZm9udC1zaXplPSIxNCIgbGVuZ3RoQWRqdXN0PSJzcGFjaW5nIiB0ZXh0TGVuZ3RoPSI3MCIgeD0iMTg2IiB5PSI4Ni4yMDMxIj5UciYjNzg0MTtuZ190aCYjMjI1O2k8L3RleHQ+PGxpbmUgc3R5bGU9InN0cm9rZTojMTgxODE4O3N0cm9rZS13aWR0aDowLjU7IiB4MT0iMTY3IiB4Mj0iMjc1IiB5MT0iOTEuOTUzMSIgeTI9IjkxLjk1MzEiLz48L2c+PCEtLWNsYXNzIEJ1eWVyLS0+PGcgY2xhc3M9ImVudGl0eSIgZGF0YS1lbnRpdHk9IkJ1eWVyIiBkYXRhLXNvdXJjZS1saW5lPSIxOCIgZGF0YS11aWQ9ImVudDAwMDQiIGlkPSJlbnRpdHlfQnV5ZXIiPjxyZWN0IGZpbGw9IiNGMUYxRjEiIGhlaWdodD0iOTIuOTUzMSIgcng9IjIuNSIgcnk9IjIuNSIgc3R5bGU9InN0cm9rZTojMTgxODE4O3N0cm9rZS13aWR0aDowLjU7IiB3aWR0aD0iMTI0IiB4PSI3IiB5PSIxNjEiLz48ZWxsaXBzZSBjeD0iNDcuNjUiIGN5PSIxNzciIGZpbGw9IiNDMkMyQzIiIHJ4PSIxMSIgcnk9IjExIiBzdHlsZT0ic3Ryb2tlOiMxODE4MTg7c3Ryb2tlLXdpZHRoOjE7Ii8+PHBhdGggZD0iTTQ1LjI3NSwxODEuMjUgTDQ1LjI3NSwxODMgTDUwLjIxMjUsMTgzIEw1MC4yMTI1LDE4MS4yNSBMNDUuMjc1LDE4MS4yNSBaIE00NS45NjI1LDE4MS45Mzc1IFE0NS45NjI1LDE4MS45Mzc1IDQ1Ljk2MjUsMTcyLjc1IEw0NC4yMTI1LDE3Mi43NSBRNDQuMjEyNSwxNzIuNzUgNDQuMjEyNSwxODEuOTM3NSBMNDUuOTYyNSwxODEuOTM3NSBaIE00OS41MjUsMTgxLjkzNzUgTDUxLjI3NSwxODEuOTM3NSBRNTEuMjc1LDE4MS45Mzc1IDUxLjI3NSwxNzkuMTI1IEw0OS41MjUsMTc5LjEyNSBRNDkuNTI1LDE3OS4xMjUgNDkuNTI1LDE4MS45Mzc1IFogTTQ5LjUyNSwxNzIuNzUgUTQ5LjUyNSwxNzIuNzUgNDkuNTI1LDE3NS41NjI1IEw1MS4yNzUsMTc1LjU2MjUgUTUxLjI3NSwxNzUuNTYyNSA1MS4yNzUsMTcyLjc1IEw0OS41MjUsMTcyLjc1IFogTTQ1LjI3NSwxNzMuNDM3NSBMNTAuMjEyNSwxNzMuNDM3NSBMNTAuMjEyNSwxNzEuNjg3NSBMNDUuMjc1LDE3MS42ODc1IEw0NS4yNzUsMTczLjQzNzUgWiAiIGZpbGw9IiMwMDAwMDAiLz48dGV4dCBmaWxsPSIjMDAwMDAwIiBmb250LWZhbWlseT0ic2Fucy1zZXJpZiIgZm9udC1zaXplPSIxNCIgbGVuZ3RoQWRqdXN0PSJzcGFjaW5nIiB0ZXh0TGVuZ3RoPSIzNSIgeD0iNjcuMzUiIHk9IjE4Mi43NDIyIj5CdXllcjwvdGV4dD48bGluZSBzdHlsZT0ic3Ryb2tlOiMxODE4MTg7c3Ryb2tlLXdpZHRoOjAuNTsiIHgxPSI4IiB4Mj0iMTMwIiB5MT0iMTkzIiB5Mj0iMTkzIi8+PHJlY3QgZmlsbD0ibm9uZSIgaGVpZ2h0PSI2IiBzdHlsZT0ic3Ryb2tlOiM1OTU5NTk7c3Ryb2tlLXdpZHRoOjE7IiB3aWR0aD0iNiIgeD0iMTUiIHk9IjIwMi45OTIyIi8+PHRleHQgZmlsbD0iIzAwMDAwMCIgZm9udC1mYW1pbHk9InNhbnMtc2VyaWYiIGZvbnQtc2l6ZT0iMTQiIGxlbmd0aEFkanVzdD0ic3BhY2luZyIgdGV4dExlbmd0aD0iMjEiIHg9IjI3IiB5PSIyMTAuMjM0NCI+VCYjMjM0O248L3RleHQ+PHJlY3QgZmlsbD0ibm9uZSIgaGVpZ2h0PSI2IiBzdHlsZT0ic3Ryb2tlOiM1OTU5NTk7c3Ryb2tlLXdpZHRoOjE7IiB3aWR0aD0iNiIgeD0iMTUiIHk9IjIxNy45NzY2Ii8+PHRleHQgZmlsbD0iIzAwMDAwMCIgZm9udC1mYW1pbHk9InNhbnMtc2VyaWYiIGZvbnQtc2l6ZT0iMTQiIGxlbmd0aEFkanVzdD0ic3BhY2luZyIgdGV4dExlbmd0aD0iOTEiIHg9IjI3IiB5PSIyMjUuMjE4OCI+UyYjNzg4OTtfJiMyNzM7aSYjNzg3OTtuX3RobyYjNzg0MTtpPC90ZXh0PjxsaW5lIHN0eWxlPSJzdHJva2U6IzE4MTgxODtzdHJva2Utd2lkdGg6MC41OyIgeDE9IjgiIHgyPSIxMzAiIHkxPSIyMzAuOTY4OCIgeTI9IjIzMC45Njg4Ii8+PHJlY3QgZmlsbD0iIzgwODA4MCIgaGVpZ2h0PSI2IiBzdHlsZT0ic3Ryb2tlOiM1OTU5NTk7c3Ryb2tlLXdpZHRoOjE7IiB3aWR0aD0iNiIgeD0iMTUiIHk9IjI0MC45NjA5Ii8+PHRleHQgZmlsbD0iIzAwMDAwMCIgZm9udC1mYW1pbHk9InNhbnMtc2VyaWYiIGZvbnQtc2l6ZT0iMTQiIGxlbmd0aEFkanVzdD0ic3BhY2luZyIgdGV4dExlbmd0aD0iOTgiIHg9IjI3IiB5PSIyNDguMjAzMSI+TmhhcHRob25ndGluKCk8L3RleHQ+PC9nPjwhLS1jbGFzcyBDYXJ0SW5mby0tPjxnIGNsYXNzPSJlbnRpdHkiIGRhdGEtZW50aXR5PSJDYXJ0SW5mbyIgZGF0YS1zb3VyY2UtbGluZT0iMjYiIGRhdGEtdWlkPSJlbnQwMDA2IiBpZD0iZW50aXR5X0NhcnRJbmZvIj48cmVjdCBmaWxsPSIjRjFGMUYxIiBoZWlnaHQ9IjYyLjk4NDQiIHJ4PSIyLjUiIHJ5PSIyLjUiIHN0eWxlPSJzdHJva2U6IzE4MTgxODtzdHJva2Utd2lkdGg6MC41OyIgd2lkdGg9IjE1MiIgeD0iMTY2IiB5PSIxNzYiLz48ZWxsaXBzZSBjeD0iMjA5LjgiIGN5PSIxOTIiIGZpbGw9IiNDMkMyQzIiIHJ4PSIxMSIgcnk9IjExIiBzdHlsZT0ic3Ryb2tlOiMxODE4MTg7c3Ryb2tlLXdpZHRoOjE7Ii8+PHBhdGggZD0iTTIwNy40MjUsMTk2LjI1IEwyMDcuNDI1LDE5OCBMMjEyLjM2MjUsMTk4IEwyMTIuMzYyNSwxOTYuMjUgTDIwNy40MjUsMTk2LjI1IFogTTIwOC4xMTI1LDE5Ni45Mzc1IFEyMDguMTEyNSwxOTYuOTM3NSAyMDguMTEyNSwxODcuNzUgTDIwNi4zNjI1LDE4Ny43NSBRMjA2LjM2MjUsMTg3Ljc1IDIwNi4zNjI1LDE5Ni45Mzc1IEwyMDguMTEyNSwxOTYuOTM3NSBaIE0yMTEuNjc1LDE5Ni45Mzc1IEwyMTMuNDI1LDE5Ni45Mzc1IFEyMTMuNDI1LDE5Ni45Mzc1IDIxMy40MjUsMTk0LjEyNSBMMjExLjY3NSwxOTQuMTI1IFEyMTEuNjc1LDE5NC4xMjUgMjExLjY3NSwxOTYuOTM3NSBaIE0yMTEuNjc1LDE4Ny43NSBRMjExLjY3NSwxODcuNzUgMjExLjY3NSwxOTAuNTYyNSBMMjEzLjQyNSwxOTAuNTYyNSBRMjEzLjQyNSwxOTAuNTYyNSAyMTMuNDI1LDE4Ny43NSBMMjExLjY3NSwxODcuNzUgWiBNMjA3LjQyNSwxODguNDM3NSBMMjEyLjM2MjUsMTg4LjQzNzUgTDIxMi4zNjI1LDE4Ni42ODc1IEwyMDcuNDI1LDE4Ni42ODc1IEwyMDcuNDI1LDE4OC40Mzc1IFogIiBmaWxsPSIjMDAwMDAwIi8+PHRleHQgZmlsbD0iIzAwMDAwMCIgZm9udC1mYW1pbHk9InNhbnMtc2VyaWYiIGZvbnQtc2l6ZT0iMTQiIGxlbmd0aEFkanVzdD0ic3BhY2luZyIgdGV4dExlbmd0aD0iNTYiIHg9IjIzMC4yIiB5PSIxOTcuNzQyMiI+Q2FydEluZm88L3RleHQ+PGxpbmUgc3R5bGU9InN0cm9rZTojMTgxODE4O3N0cm9rZS13aWR0aDowLjU7IiB4MT0iMTY3IiB4Mj0iMzE3IiB5MT0iMjA4IiB5Mj0iMjA4Ii8+PHJlY3QgZmlsbD0ibm9uZSIgaGVpZ2h0PSI2IiBzdHlsZT0ic3Ryb2tlOiM1OTU5NTk7c3Ryb2tlLXdpZHRoOjE7IiB3aWR0aD0iNiIgeD0iMTc0IiB5PSIyMTcuOTkyMiIvPjx0ZXh0IGZpbGw9IiMwMDAwMDAiIGZvbnQtZmFtaWx5PSJzYW5zLXNlcmlmIiBmb250LXNpemU9IjE0IiBsZW5ndGhBZGp1c3Q9InNwYWNpbmciIHRleHRMZW5ndGg9IjEyNiIgeD0iMTg2IiB5PSIyMjUuMjM0NCI+UyYjNzg0MztuX3BoJiM3ODQ5O21fZGFuaF9zJiMyMjU7Y2g8L3RleHQ+PGxpbmUgc3R5bGU9InN0cm9rZTojMTgxODE4O3N0cm9rZS13aWR0aDowLjU7IiB4MT0iMTY3IiB4Mj0iMzE3IiB5MT0iMjMwLjk4NDQiIHkyPSIyMzAuOTg0NCIvPjwvZz48IS0tY2xhc3MgUGF5bWVudC0tPjxnIGNsYXNzPSJlbnRpdHkiIGRhdGEtZW50aXR5PSJQYXltZW50IiBkYXRhLXNvdXJjZS1saW5lPSIzMiIgZGF0YS11aWQ9ImVudDAwMDgiIGlkPSJlbnRpdHlfUGF5bWVudCI+PHJlY3QgZmlsbD0iI0YxRjFGMSIgaGVpZ2h0PSIxOTcuODQzOCIgcng9IjIuNSIgcnk9IjIuNSIgc3R5bGU9InN0cm9rZTojMTgxODE4O3N0cm9rZS13aWR0aDowLjU7IiB3aWR0aD0iMTgwIiB4PSIyMzgiIHk9IjMyOSIvPjxlbGxpcHNlIGN4PSIyOTkuMjUiIGN5PSIzNDUiIGZpbGw9IiNDMkMyQzIiIHJ4PSIxMSIgcnk9IjExIiBzdHlsZT0ic3Ryb2tlOiMxODE4MTg7c3Ryb2tlLXdpZHRoOjE7Ii8+PHBhdGggZD0iTTI5Ni44NzUsMzQ5LjI1IEwyOTYuODc1LDM1MSBMMzAxLjgxMjUsMzUxIEwzMDEuODEyNSwzNDkuMjUgTDI5Ni44NzUsMzQ5LjI1IFogTTI5Ny41NjI1LDM0OS45Mzc1IFEyOTcuNTYyNSwzNDkuOTM3NSAyOTcuNTYyNSwzNDAuNzUgTDI5NS44MTI1LDM0MC43NSBRMjk1LjgxMjUsMzQwLjc1IDI5NS44MTI1LDM0OS45Mzc1IEwyOTcuNTYyNSwzNDkuOTM3NSBaIE0zMDEuMTI1LDM0OS45Mzc1IEwzMDIuODc1LDM0OS45Mzc1IFEzMDIuODc1LDM0OS45Mzc1IDMwMi44NzUsMzQ3LjEyNSBMMzAxLjEyNSwzNDcuMTI1IFEzMDEuMTI1LDM0Ny4xMjUgMzAxLjEyNSwzNDkuOTM3NSBaIE0zMDEuMTI1LDM0MC43NSBRMzAxLjEyNSwzNDAuNzUgMzAxLjEyNSwzNDMuNTYyNSBMMzAyLjg3NSwzNDMuNTYyNSBRMzAyLjg3NSwzNDMuNTYyNSAzMDIuODc1LDM0MC43NSBMMzAxLjEyNSwzNDAuNzUgWiBNMjk2Ljg3NSwzNDEuNDM3NSBMMzAxLjgxMjUsMzQxLjQzNzUgTDMwMS44MTI1LDMzOS42ODc1IEwyOTYuODc1LDMzOS42ODc1IEwyOTYuODc1LDM0MS40Mzc1IFogIiBmaWxsPSIjMDAwMDAwIi8+PHRleHQgZmlsbD0iIzAwMDAwMCIgZm9udC1mYW1pbHk9InNhbnMtc2VyaWYiIGZvbnQtc2l6ZT0iMTQiIGxlbmd0aEFkanVzdD0ic3BhY2luZyIgdGV4dExlbmd0aD0iNDkiIHg9IjMxOS43NSIgeT0iMzUwLjc0MjIiPlBheW1lbnQ8L3RleHQ+PGxpbmUgc3R5bGU9InN0cm9rZTojMTgxODE4O3N0cm9rZS13aWR0aDowLjU7IiB4MT0iMjM5IiB4Mj0iNDE3IiB5MT0iMzYxIiB5Mj0iMzYxIi8+PHJlY3QgZmlsbD0ibm9uZSIgaGVpZ2h0PSI2IiBzdHlsZT0ic3Ryb2tlOiM1OTU5NTk7c3Ryb2tlLXdpZHRoOjE7IiB3aWR0aD0iNiIgeD0iMjQ2IiB5PSIzNzAuOTkyMiIvPjx0ZXh0IGZpbGw9IiMwMDAwMDAiIGZvbnQtZmFtaWx5PSJzYW5zLXNlcmlmIiBmb250LXNpemU9IjE0IiBsZW5ndGhBZGp1c3Q9InNwYWNpbmciIHRleHRMZW5ndGg9IjE0IiB4PSIyNTgiIHk9IjM3OC4yMzQ0Ij5JRDwvdGV4dD48cmVjdCBmaWxsPSJub25lIiBoZWlnaHQ9IjYiIHN0eWxlPSJzdHJva2U6IzU5NTk1OTtzdHJva2Utd2lkdGg6MTsiIHdpZHRoPSI2IiB4PSIyNDYiIHk9IjM4NS45NzY2Ii8+PHRleHQgZmlsbD0iIzAwMDAwMCIgZm9udC1mYW1pbHk9InNhbnMtc2VyaWYiIGZvbnQtc2l6ZT0iMTQiIGxlbmd0aEFkanVzdD0ic3BhY2luZyIgdGV4dExlbmd0aD0iNjMiIHg9IjI1OCIgeT0iMzkzLjIxODgiPlQmIzc4OTM7bmdfdGkmIzc4NzM7bjwvdGV4dD48cmVjdCBmaWxsPSJub25lIiBoZWlnaHQ9IjYiIHN0eWxlPSJzdHJva2U6IzU5NTk1OTtzdHJva2Utd2lkdGg6MTsiIHdpZHRoPSI2IiB4PSIyNDYiIHk9IjQwMC45NjA5Ii8+PHRleHQgZmlsbD0iIzAwMDAwMCIgZm9udC1mYW1pbHk9InNhbnMtc2VyaWYiIGZvbnQtc2l6ZT0iMTQiIGxlbmd0aEFkanVzdD0ic3BhY2luZyIgdGV4dExlbmd0aD0iNjMiIHg9IjI1OCIgeT0iNDA4LjIwMzEiPlRoJiM3OTAxO2lfZ2lhbjwvdGV4dD48cmVjdCBmaWxsPSJub25lIiBoZWlnaHQ9IjYiIHN0eWxlPSJzdHJva2U6IzU5NTk1OTtzdHJva2Utd2lkdGg6MTsiIHdpZHRoPSI2IiB4PSIyNDYiIHk9IjQxNS45NDUzIi8+PHRleHQgZmlsbD0iIzAwMDAwMCIgZm9udC1mYW1pbHk9InNhbnMtc2VyaWYiIGZvbnQtc2l6ZT0iMTQiIGxlbmd0aEFkanVzdD0ic3BhY2luZyIgdGV4dExlbmd0aD0iMTEyIiB4PSIyNTgiIHk9IjQyMy4xODc1Ij5QYXltZW50TWV0aG9kX0lEPC90ZXh0PjxyZWN0IGZpbGw9Im5vbmUiIGhlaWdodD0iNiIgc3R5bGU9InN0cm9rZTojNTk1OTU5O3N0cm9rZS13aWR0aDoxOyIgd2lkdGg9IjYiIHg9IjI0NiIgeT0iNDMwLjkyOTciLz48dGV4dCBmaWxsPSIjMDAwMDAwIiBmb250LWZhbWlseT0ic2Fucy1zZXJpZiIgZm9udC1zaXplPSIxNCIgbGVuZ3RoQWRqdXN0PSJzcGFjaW5nIiB0ZXh0TGVuZ3RoPSIxMTIiIHg9IjI1OCIgeT0iNDM4LjE3MTkiPlBheW1lbnRTdGF0dXNfSUQ8L3RleHQ+PHJlY3QgZmlsbD0ibm9uZSIgaGVpZ2h0PSI2IiBzdHlsZT0ic3Ryb2tlOiM1OTU5NTk7c3Ryb2tlLXdpZHRoOjE7IiB3aWR0aD0iNiIgeD0iMjQ2IiB5PSI0NDUuOTE0MSIvPjx0ZXh0IGZpbGw9IiMwMDAwMDAiIGZvbnQtZmFtaWx5PSJzYW5zLXNlcmlmIiBmb250LXNpemU9IjE0IiBsZW5ndGhBZGp1c3Q9InNwYWNpbmciIHRleHRMZW5ndGg9Ijg0IiB4PSIyNTgiIHk9IjQ1My4xNTYzIj4mIzI3MjsmIzc4ODM7YV9jaCYjNzg4MTtfZ2lhbzwvdGV4dD48cmVjdCBmaWxsPSJub25lIiBoZWlnaHQ9IjYiIHN0eWxlPSJzdHJva2U6IzU5NTk1OTtzdHJva2Utd2lkdGg6MTsiIHdpZHRoPSI2IiB4PSIyNDYiIHk9IjQ2MC44OTg0Ii8+PHRleHQgZmlsbD0iIzAwMDAwMCIgZm9udC1mYW1pbHk9InNhbnMtc2VyaWYiIGZvbnQtc2l6ZT0iMTQiIGxlbmd0aEFkanVzdD0ic3BhY2luZyIgdGV4dExlbmd0aD0iMTI2IiB4PSIyNTgiIHk9IjQ2OC4xNDA2Ij5EYW5oX3MmIzIyNTtjaF9zJiM3ODQzO25fcGgmIzc4NDk7bTwvdGV4dD48cmVjdCBmaWxsPSJub25lIiBoZWlnaHQ9IjYiIHN0eWxlPSJzdHJva2U6IzU5NTk1OTtzdHJva2Utd2lkdGg6MTsiIHdpZHRoPSI2IiB4PSIyNDYiIHk9IjQ3NS44ODI4Ii8+PHRleHQgZmlsbD0iIzAwMDAwMCIgZm9udC1mYW1pbHk9InNhbnMtc2VyaWYiIGZvbnQtc2l6ZT0iMTQiIGxlbmd0aEFkanVzdD0ic3BhY2luZyIgdGV4dExlbmd0aD0iOTEiIHg9IjI1OCIgeT0iNDgzLjEyNSI+VCYjMjM0O25fbmcmIzQzMjsmIzc5MDE7aV9tdWE8L3RleHQ+PHJlY3QgZmlsbD0ibm9uZSIgaGVpZ2h0PSI2IiBzdHlsZT0ic3Ryb2tlOiM1OTU5NTk7c3Ryb2tlLXdpZHRoOjE7IiB3aWR0aD0iNiIgeD0iMjQ2IiB5PSI0OTAuODY3MiIvPjx0ZXh0IGZpbGw9IiMwMDAwMDAiIGZvbnQtZmFtaWx5PSJzYW5zLXNlcmlmIiBmb250LXNpemU9IjE0IiBsZW5ndGhBZGp1c3Q9InNwYWNpbmciIHRleHRMZW5ndGg9IjkxIiB4PSIyNTgiIHk9IjQ5OC4xMDk0Ij5TJiM3ODg5O18mIzI3MztpJiM3ODc5O25fdGhvJiM3ODQxO2k8L3RleHQ+PGxpbmUgc3R5bGU9InN0cm9rZTojMTgxODE4O3N0cm9rZS13aWR0aDowLjU7IiB4MT0iMjM5IiB4Mj0iNDE3IiB5MT0iNTAzLjg1OTQiIHkyPSI1MDMuODU5NCIvPjxlbGxpcHNlIGN4PSIyNDkiIGN5PSI1MTYuODUxNiIgZmlsbD0iI0E2QTZBNiIgcng9IjMiIHJ5PSIzIiBzdHlsZT0ic3Ryb2tlOiM1NDU0NTQ7c3Ryb2tlLXdpZHRoOjE7Ii8+PHRleHQgZmlsbD0iIzAwMDAwMCIgZm9udC1mYW1pbHk9InNhbnMtc2VyaWYiIGZvbnQtc2l6ZT0iMTQiIGxlbmd0aEFkanVzdD0ic3BhY2luZyIgdGV4dExlbmd0aD0iMTU0IiB4PSIyNTgiIHk9IjUyMS4wOTM4Ij5UaCYjNzkyMTtjX2hpJiM3ODc5O25fdGhhbmhfdG8mIzIyNTtuKCk8L3RleHQ+PC9nPjwhLS1jbGFzcyBQYXltZW50TWV0aG9kLS0+PGcgY2xhc3M9ImVudGl0eSIgZGF0YS1lbnRpdHk9IlBheW1lbnRNZXRob2QiIGRhdGEtc291cmNlLWxpbmU9IjQ2IiBkYXRhLXVpZD0iZW50MDAwOSIgaWQ9ImVudGl0eV9QYXltZW50TWV0aG9kIj48cmVjdCBmaWxsPSIjRjFGMUYxIiBoZWlnaHQ9IjkyLjk1MzEiIHJ4PSIyLjUiIHJ5PSIyLjUiIHN0eWxlPSJzdHJva2U6IzE4MTgxODtzdHJva2Utd2lkdGg6MC41OyIgd2lkdGg9IjEzMSIgeD0iMjYyLjUiIHk9IjYwMiIvPjxlbGxpcHNlIGN4PSIyODEuMSIgY3k9IjYxOCIgZmlsbD0iI0MyQzJDMiIgcng9IjExIiByeT0iMTEiIHN0eWxlPSJzdHJva2U6IzE4MTgxODtzdHJva2Utd2lkdGg6MTsiLz48cGF0aCBkPSJNMjc4LjcyNSw2MjIuMjUgTDI3OC43MjUsNjI0IEwyODMuNjYyNSw2MjQgTDI4My42NjI1LDYyMi4yNSBMMjc4LjcyNSw2MjIuMjUgWiBNMjc5LjQxMjUsNjIyLjkzNzUgUTI3OS40MTI1LDYyMi45Mzc1IDI3OS40MTI1LDYxMy43NSBMMjc3LjY2MjUsNjEzLjc1IFEyNzcuNjYyNSw2MTMuNzUgMjc3LjY2MjUsNjIyLjkzNzUgTDI3OS40MTI1LDYyMi45Mzc1IFogTTI4Mi45NzUsNjIyLjkzNzUgTDI4NC43MjUsNjIyLjkzNzUgUTI4NC43MjUsNjIyLjkzNzUgMjg0LjcyNSw2MjAuMTI1IEwyODIuOTc1LDYyMC4xMjUgUTI4Mi45NzUsNjIwLjEyNSAyODIuOTc1LDYyMi45Mzc1IFogTTI4Mi45NzUsNjEzLjc1IFEyODIuOTc1LDYxMy43NSAyODIuOTc1LDYxNi41NjI1IEwyODQuNzI1LDYxNi41NjI1IFEyODQuNzI1LDYxNi41NjI1IDI4NC43MjUsNjEzLjc1IEwyODIuOTc1LDYxMy43NSBaIE0yNzguNzI1LDYxNC40Mzc1IEwyODMuNjYyNSw2MTQuNDM3NSBMMjgzLjY2MjUsNjEyLjY4NzUgTDI3OC43MjUsNjEyLjY4NzUgTDI3OC43MjUsNjE0LjQzNzUgWiAiIGZpbGw9IiMwMDAwMDAiLz48dGV4dCBmaWxsPSIjMDAwMDAwIiBmb250LWZhbWlseT0ic2Fucy1zZXJpZiIgZm9udC1zaXplPSIxNCIgbGVuZ3RoQWRqdXN0PSJzcGFjaW5nIiB0ZXh0TGVuZ3RoPSI5MSIgeD0iMjk1LjkiIHk9IjYyMy43NDIyIj5QYXltZW50TWV0aG9kPC90ZXh0PjxsaW5lIHN0eWxlPSJzdHJva2U6IzE4MTgxODtzdHJva2Utd2lkdGg6MC41OyIgeDE9IjI2My41IiB4Mj0iMzkyLjUiIHkxPSI2MzQiIHkyPSI2MzQiLz48cmVjdCBmaWxsPSJub25lIiBoZWlnaHQ9IjYiIHN0eWxlPSJzdHJva2U6IzU5NTk1OTtzdHJva2Utd2lkdGg6MTsiIHdpZHRoPSI2IiB4PSIyNzAuNSIgeT0iNjQzLjk5MjIiLz48dGV4dCBmaWxsPSIjMDAwMDAwIiBmb250LWZhbWlseT0ic2Fucy1zZXJpZiIgZm9udC1zaXplPSIxNCIgbGVuZ3RoQWRqdXN0PSJzcGFjaW5nIiB0ZXh0TGVuZ3RoPSIxNCIgeD0iMjgyLjUiIHk9IjY1MS4yMzQ0Ij5JRDwvdGV4dD48cmVjdCBmaWxsPSJub25lIiBoZWlnaHQ9IjYiIHN0eWxlPSJzdHJva2U6IzU5NTk1OTtzdHJva2Utd2lkdGg6MTsiIHdpZHRoPSI2IiB4PSIyNzAuNSIgeT0iNjU4Ljk3NjYiLz48dGV4dCBmaWxsPSIjMDAwMDAwIiBmb250LWZhbWlseT0ic2Fucy1zZXJpZiIgZm9udC1zaXplPSIxNCIgbGVuZ3RoQWRqdXN0PSJzcGFjaW5nIiB0ZXh0TGVuZ3RoPSIxMDUiIHg9IjI4Mi41IiB5PSI2NjYuMjE4OCI+VCYjMjM0O25fcGgmIzQzMjsmIzQxNztuZ190aCYjNzkxMztjPC90ZXh0PjxyZWN0IGZpbGw9Im5vbmUiIGhlaWdodD0iNiIgc3R5bGU9InN0cm9rZTojNTk1OTU5O3N0cm9rZS13aWR0aDoxOyIgd2lkdGg9IjYiIHg9IjI3MC41IiB5PSI2NzMuOTYwOSIvPjx0ZXh0IGZpbGw9IiMwMDAwMDAiIGZvbnQtZmFtaWx5PSJzYW5zLXNlcmlmIiBmb250LXNpemU9IjE0IiBsZW5ndGhBZGp1c3Q9InNwYWNpbmciIHRleHRMZW5ndGg9IjM1IiB4PSIyODIuNSIgeT0iNjgxLjIwMzEiPk0mIzI0NDtfdCYjNzg0Mzs8L3RleHQ+PGxpbmUgc3R5bGU9InN0cm9rZTojMTgxODE4O3N0cm9rZS13aWR0aDowLjU7IiB4MT0iMjYzLjUiIHgyPSIzOTIuNSIgeTE9IjY4Ni45NTMxIiB5Mj0iNjg2Ljk1MzEiLz48L2c+PCEtLWNsYXNzIFBheW1lbnRTdGF0dXMtLT48ZyBjbGFzcz0iZW50aXR5IiBkYXRhLWVudGl0eT0iUGF5bWVudFN0YXR1cyIgZGF0YS1zb3VyY2UtbGluZT0iNTMiIGRhdGEtdWlkPSJlbnQwMDEwIiBpZD0iZW50aXR5X1BheW1lbnRTdGF0dXMiPjxyZWN0IGZpbGw9IiNGMUYxRjEiIGhlaWdodD0iOTIuOTUzMSIgcng9IjIuNSIgcnk9IjIuNSIgc3R5bGU9InN0cm9rZTojMTgxODE4O3N0cm9rZS13aWR0aDowLjU7IiB3aWR0aD0iMTI0IiB4PSIzNTMiIHk9IjE2MSIvPjxlbGxpcHNlIGN4PSIzNjguNDUiIGN5PSIxNzciIGZpbGw9IiNDMkMyQzIiIHJ4PSIxMSIgcnk9IjExIiBzdHlsZT0ic3Ryb2tlOiMxODE4MTg7c3Ryb2tlLXdpZHRoOjE7Ii8+PHBhdGggZD0iTTM2Ni4wNzUsMTgxLjI1IEwzNjYuMDc1LDE4MyBMMzcxLjAxMjUsMTgzIEwzNzEuMDEyNSwxODEuMjUgTDM2Ni4wNzUsMTgxLjI1IFogTTM2Ni43NjI1LDE4MS45Mzc1IFEzNjYuNzYyNSwxODEuOTM3NSAzNjYuNzYyNSwxNzIuNzUgTDM2NS4wMTI1LDE3Mi43NSBRMzY1LjAxMjUsMTcyLjc1IDM2NS4wMTI1LDE4MS45Mzc1IEwzNjYuNzYyNSwxODEuOTM3NSBaIE0zNzAuMzI1LDE4MS45Mzc1IEwzNzIuMDc1LDE4MS45Mzc1IFEzNzIuMDc1LDE4MS45Mzc1IDM3Mi4wNzUsMTc5LjEyNSBMMzcwLjMyNSwxNzkuMTI1IFEzNzAuMzI1LDE3OS4xMjUgMzcwLjMyNSwxODEuOTM3NSBaIE0zNzAuMzI1LDE3Mi43NSBRMzcwLjMyNSwxNzIuNzUgMzcwLjMyNSwxNzUuNTYyNSBMMzcyLjA3NSwxNzUuNTYyNSBRMzcyLjA3NSwxNzUuNTYyNSAzNzIuMDc1LDE3Mi43NSBMMzcwLjMyNSwxNzIuNzUgWiBNMzY2LjA3NSwxNzMuNDM3NSBMMzcxLjAxMjUsMTczLjQzNzUgTDM3MS4wMTI1LDE3MS42ODc1IEwzNjYuMDc1LDE3MS42ODc1IEwzNjYuMDc1LDE3My40Mzc1IFogIiBmaWxsPSIjMDAwMDAwIi8+PHRleHQgZmlsbD0iIzAwMDAwMCIgZm9udC1mYW1pbHk9InNhbnMtc2VyaWYiIGZvbnQtc2l6ZT0iMTQiIGxlbmd0aEFkanVzdD0ic3BhY2luZyIgdGV4dExlbmd0aD0iOTEiIHg9IjM4Mi41NSIgeT0iMTgyLjc0MjIiPlBheW1lbnRTdGF0dXM8L3RleHQ+PGxpbmUgc3R5bGU9InN0cm9rZTojMTgxODE4O3N0cm9rZS13aWR0aDowLjU7IiB4MT0iMzU0IiB4Mj0iNDc2IiB5MT0iMTkzIiB5Mj0iMTkzIi8+PHJlY3QgZmlsbD0ibm9uZSIgaGVpZ2h0PSI2IiBzdHlsZT0ic3Ryb2tlOiM1OTU5NTk7c3Ryb2tlLXdpZHRoOjE7IiB3aWR0aD0iNiIgeD0iMzYxIiB5PSIyMDIuOTkyMiIvPjx0ZXh0IGZpbGw9IiMwMDAwMDAiIGZvbnQtZmFtaWx5PSJzYW5zLXNlcmlmIiBmb250LXNpemU9IjE0IiBsZW5ndGhBZGp1c3Q9InNwYWNpbmciIHRleHRMZW5ndGg9IjE0IiB4PSIzNzMiIHk9IjIxMC4yMzQ0Ij5JRDwvdGV4dD48cmVjdCBmaWxsPSJub25lIiBoZWlnaHQ9IjYiIHN0eWxlPSJzdHJva2U6IzU5NTk1OTtzdHJva2Utd2lkdGg6MTsiIHdpZHRoPSI2IiB4PSIzNjEiIHk9IjIxNy45NzY2Ii8+PHRleHQgZmlsbD0iIzAwMDAwMCIgZm9udC1mYW1pbHk9InNhbnMtc2VyaWYiIGZvbnQtc2l6ZT0iMTQiIGxlbmd0aEFkanVzdD0ic3BhY2luZyIgdGV4dExlbmd0aD0iOTgiIHg9IjM3MyIgeT0iMjI1LjIxODgiPlQmIzIzNDtuX3RyJiM3ODQxO25nX3RoJiMyMjU7aTwvdGV4dD48cmVjdCBmaWxsPSJub25lIiBoZWlnaHQ9IjYiIHN0eWxlPSJzdHJva2U6IzU5NTk1OTtzdHJva2Utd2lkdGg6MTsiIHdpZHRoPSI2IiB4PSIzNjEiIHk9IjIzMi45NjA5Ii8+PHRleHQgZmlsbD0iIzAwMDAwMCIgZm9udC1mYW1pbHk9InNhbnMtc2VyaWYiIGZvbnQtc2l6ZT0iMTQiIGxlbmd0aEFkanVzdD0ic3BhY2luZyIgdGV4dExlbmd0aD0iMzUiIHg9IjM3MyIgeT0iMjQwLjIwMzEiPk0mIzI0NDtfdCYjNzg0Mzs8L3RleHQ+PGxpbmUgc3R5bGU9InN0cm9rZTojMTgxODE4O3N0cm9rZS13aWR0aDowLjU7IiB4MT0iMzU0IiB4Mj0iNDc2IiB5MT0iMjQ1Ljk1MzEiIHkyPSIyNDUuOTUzMSIvPjwvZz48ZyBjbGFzcz0iZW50aXR5IiBkYXRhLWVudGl0eT0iR01OMTUiIGRhdGEtc291cmNlLWxpbmU9IjY2IiBkYXRhLXVpZD0iZW50MDAxNiIgaWQ9ImVudGl0eV9HTU4xNSI+PHBhdGggZD0iTTUxMiwxOTUuNSBMNTEyLDIxOS40MTQxIEEwLDAgMCAwIDAgNTEyLDIxOS40MTQxIEw2ODQuNjMsMjE5LjQxNDEgTDQxOC4zNCwzNzUuMDUgTDY5Mi42MywyMTkuNDE0MSBMOTAzLjUsMjE5LjQxNDEgQTAsMCAwIDAgMCA5MDMuNSwyMTkuNDE0MSBMOTAzLjUsMjA1LjUgTDg5My41LDE5NS41IEw1MTIsMTk1LjUgQTAsMCAwIDAgMCA1MTIsMTk1LjUiIGZpbGw9IiNGQUZBRkEiIHN0eWxlPSJzdHJva2U6IzE4MTgxODtzdHJva2Utd2lkdGg6MC41OyIvPjxwYXRoIGQ9Ik04OTMuNSwxOTUuNSBMODkzLjUsMjA1LjUgTDkwMy41LDIwNS41IEw4OTMuNSwxOTUuNSIgZmlsbD0iI0ZBRkFGQSIgc3R5bGU9InN0cm9rZTojMTgxODE4O3N0cm9rZS13aWR0aDowLjU7Ii8+PHRleHQgZmlsbD0iIzAwMDAwMCIgZm9udC1mYW1pbHk9InNhbnMtc2VyaWYiIGZvbnQtc2l6ZT0iMTMiIGxlbmd0aEFkanVzdD0ic3BhY2luZyIgdGV4dExlbmd0aD0iMzcwLjUiIHg9IjUxOCIgeT0iMjEyLjc4OTEiPk0mIzc4ODk7aSBxdWFuIGgmIzc4Nzk7IDE6MSBnaSYjNzkxOTthIFRoYW5oIHRvJiMyMjU7biB2JiMyMjQ7IFBoJiM0MzI7JiM0MTc7bmcgdGgmIzc5MTM7YyB0aGFuaCB0byYjMjI1O248L3RleHQ+PC9nPjxnIGNsYXNzPSJlbnRpdHkiIGRhdGEtZW50aXR5PSJHTU4xOCIgZGF0YS1zb3VyY2UtbGluZT0iNzAiIGRhdGEtdWlkPSJlbnQwMDE5IiBpZD0iZW50aXR5X0dNTjE4Ij48cGF0aCBkPSJNMzExLDQxLjUgTDMxMSw2NS40MTQxIEEwLDAgMCAwIDAgMzExLDY1LjQxNDEgTDUzNC45Myw2NS40MTQxIEw0NTUuMzQsMTYwLjc0IEw1NDIuOTMsNjUuNDE0MSBMNzg3LDY1LjQxNDEgQTAsMCAwIDAgMCA3ODcsNjUuNDE0MSBMNzg3LDUxLjUgTDc3Nyw0MS41IEwzMTEsNDEuNSBBMCwwIDAgMCAwIDMxMSw0MS41IiBmaWxsPSIjRkFGQUZBIiBzdHlsZT0ic3Ryb2tlOiMxODE4MTg7c3Ryb2tlLXdpZHRoOjAuNTsiLz48cGF0aCBkPSJNNzc3LDQxLjUgTDc3Nyw1MS41IEw3ODcsNTEuNSBMNzc3LDQxLjUiIGZpbGw9IiNGQUZBRkEiIHN0eWxlPSJzdHJva2U6IzE4MTgxODtzdHJva2Utd2lkdGg6MC41OyIvPjx0ZXh0IGZpbGw9IiMwMDAwMDAiIGZvbnQtZmFtaWx5PSJzYW5zLXNlcmlmIiBmb250LXNpemU9IjEzIiBsZW5ndGhBZGp1c3Q9InNwYWNpbmciIHRleHRMZW5ndGg9IjQ1NSIgeD0iMzE3IiB5PSI1OC43ODkxIj5UciYjNzg0MTtuZyB0aCYjMjI1O2kgYyYjMjQzOyB0aCYjNzg3NTsgbCYjMjI0OyAiVGgmIzIyNDtuaCBjJiMyNDQ7bmciIGhvJiM3ODYzO2MgIlRoJiM3ODQ1O3QgYiYjNzg0MTtpIiBjaG8gbmhpJiM3ODczO3UgVGhhbmggdG8mIzIyNTtuPC90ZXh0PjwvZz48IS0tcmV2ZXJzZSBsaW5rIFVzZXIgdG8gQnV5ZXItLT48ZyBjbGFzcz0ibGluayIgZGF0YS1lbnRpdHktMT0iVXNlciIgZGF0YS1lbnRpdHktMj0iQnV5ZXIiIGRhdGEtc291cmNlLWxpbmU9IjE4IiBkYXRhLXVpZD0ibG5rNSIgaWQ9ImxpbmtfVXNlcl9CdXllciI+PHBhdGggY29kZUxpbmU9IjE4IiBkPSJNNjksMTE4LjExIEM2OSwxMzcuMzQgNjksMTQxLjY5IDY5LDE2MC45MyIgZmlsbD0ibm9uZSIgaWQ9IlVzZXItYmFja3RvLUJ1eWVyIiBzdHlsZT0ic3Ryb2tlOiMxODE4MTg7c3Ryb2tlLXdpZHRoOjE7Ii8+PHBvbHlnb24gZmlsbD0ibm9uZSIgcG9pbnRzPSI2OSwxMDAuMTEsNjMsMTE4LjExLDc1LDExOC4xMSw2OSwxMDAuMTEiIHN0eWxlPSJzdHJva2U6IzE4MTgxODtzdHJva2Utd2lkdGg6MTsiLz48L2c+PCEtLXJldmVyc2UgbGluayBDYXJ0IHRvIENhcnRJbmZvLS0+PGcgY2xhc3M9ImxpbmsiIGRhdGEtZW50aXR5LTE9IkNhcnQiIGRhdGEtZW50aXR5LTI9IkNhcnRJbmZvIiBkYXRhLXNvdXJjZS1saW5lPSIyNiIgZGF0YS11aWQ9ImxuazciIGlkPSJsaW5rX0NhcnRfQ2FydEluZm8iPjxwYXRoIGNvZGVMaW5lPSIyNiIgZD0iTTIyOS43NjE5LDExNy45NDA4IEMyMzMuMTQxOSwxNDIuNDIwOCAyMzQuNzYsMTU0LjExIDIzNy43NiwxNzUuODQiIGZpbGw9Im5vbmUiIGlkPSJDYXJ0LWJhY2t0by1DYXJ0SW5mbyIgc3R5bGU9InN0cm9rZTojMTgxODE4O3N0cm9rZS13aWR0aDoxOyIvPjxwb2x5Z29uIGZpbGw9Im5vbmUiIHBvaW50cz0iMjI3LjMsMTAwLjExLDIyMy44MTgzLDExOC43NjE1LDIzNS43MDU2LDExNy4xMjAyLDIyNy4zLDEwMC4xMSIgc3R5bGU9InN0cm9rZTojMTgxODE4O3N0cm9rZS13aWR0aDoxOyIvPjwvZz48IS0tbGluayBCdXllciB0byBQYXltZW50LS0+PGcgY2xhc3M9ImxpbmsiIGRhdGEtZW50aXR5LTE9IkJ1eWVyIiBkYXRhLWVudGl0eS0yPSJQYXltZW50IiBkYXRhLXNvdXJjZS1saW5lPSI2MCIgZGF0YS11aWQ9ImxuazExIiBpZD0ibGlua19CdXllcl9QYXltZW50Ij48cGF0aCBjb2RlTGluZT0iNjAiIGQ9Ik0xMjIuOTgsMjU0LjA0IEMxNTYuMTksMjgyLjA1IDE5OS41OCwzMTguNjYgMjM3Ljg5LDM1MC45OCIgZmlsbD0ibm9uZSIgaWQ9IkJ1eWVyLVBheW1lbnQiIHN0eWxlPSJzdHJva2U6IzE4MTgxODtzdHJva2Utd2lkdGg6MTsiLz48dGV4dCBmaWxsPSIjMDAwMDAwIiBmb250LWZhbWlseT0ic2Fucy1zZXJpZiIgZm9udC1zaXplPSIxMyIgbGVuZ3RoQWRqdXN0PSJzcGFjaW5nIiB0ZXh0TGVuZ3RoPSI1OC41IiB4PSIxNzciIHk9IjI5Ny4yODkxIj50aCYjNzkyMTtjIGhpJiM3ODc5O248L3RleHQ+PHRleHQgZmlsbD0iIzAwMDAwMCIgZm9udC1mYW1pbHk9InNhbnMtc2VyaWYiIGZvbnQtc2l6ZT0iMTMiIGxlbmd0aEFkanVzdD0ic3BhY2luZyIgdGV4dExlbmd0aD0iNi41IiB4PSIxMjQuNTA0NCIgeT0iMjc0LjE4OTkiPjE8L3RleHQ+PHRleHQgZmlsbD0iIzAwMDAwMCIgZm9udC1mYW1pbHk9InNhbnMtc2VyaWYiIGZvbnQtc2l6ZT0iMTMiIGxlbmd0aEFkanVzdD0ic3BhY2luZyIgdGV4dExlbmd0aD0iMjYiIHg9IjIwMy45OTU2IiB5PSIzNDMuOTE1NSI+MC4uKjwvdGV4dD48L2c+PCEtLWxpbmsgQ2FydEluZm8gdG8gUGF5bWVudC0tPjxnIGNsYXNzPSJsaW5rIiBkYXRhLWVudGl0eS0xPSJDYXJ0SW5mbyIgZGF0YS1lbnRpdHktMj0iUGF5bWVudCIgZGF0YS1zb3VyY2UtbGluZT0iNjEiIGRhdGEtdWlkPSJsbmsxMiIgaWQ9ImxpbmtfQ2FydEluZm9fUGF5bWVudCI+PHBhdGggY29kZUxpbmU9IjYxIiBkPSJNMjU0LjE0LDIzOS4zNCBDMjYzLjM1LDI2Mi43NSAyNzYuNTYsMjk2LjMxIDI4OS4yNywzMjguNiIgZmlsbD0ibm9uZSIgaWQ9IkNhcnRJbmZvLVBheW1lbnQiIHN0eWxlPSJzdHJva2U6IzE4MTgxODtzdHJva2Utd2lkdGg6MTsiLz48dGV4dCBmaWxsPSIjMDAwMDAwIiBmb250LWZhbWlseT0ic2Fucy1zZXJpZiIgZm9udC1zaXplPSIxMyIgbGVuZ3RoQWRqdXN0PSJzcGFjaW5nIiB0ZXh0TGVuZ3RoPSIxOS41IiB4PSIyNzkiIHk9IjI5Ny4yODkxIj50JiM3ODQxO288L3RleHQ+PHRleHQgZmlsbD0iIzAwMDAwMCIgZm9udC1mYW1pbHk9InNhbnMtc2VyaWYiIGZvbnQtc2l6ZT0iMTMiIGxlbmd0aEFkanVzdD0ic3BhY2luZyIgdGV4dExlbmd0aD0iNi41IiB4PSIyNDkuOTg4NyIgeT0iMjU5LjI2ODgiPjE8L3RleHQ+PHRleHQgZmlsbD0iIzAwMDAwMCIgZm9udC1mYW1pbHk9InNhbnMtc2VyaWYiIGZvbnQtc2l6ZT0iMTMiIGxlbmd0aEFkanVzdD0ic3BhY2luZyIgdGV4dExlbmd0aD0iNi41IiB4PSIyNzkuOTY0NiIgeT0iMzE5LjQ5MjgiPjE8L3RleHQ+PC9nPjwhLS1saW5rIFBheW1lbnQgdG8gUGF5bWVudE1ldGhvZC0tPjxnIGNsYXNzPSJsaW5rIiBkYXRhLWVudGl0eS0xPSJQYXltZW50IiBkYXRhLWVudGl0eS0yPSJQYXltZW50TWV0aG9kIiBkYXRhLXNvdXJjZS1saW5lPSI2MiIgZGF0YS11aWQ9ImxuazEzIiBpZD0ibGlua19QYXltZW50X1BheW1lbnRNZXRob2QiPjxwYXRoIGNvZGVMaW5lPSI2MiIgZD0iTTMyOCw1MjcuMDcgQzMyOCw1NTMuMTYgMzI4LDU4MC4xMSAzMjgsNjAxLjg5IiBmaWxsPSJub25lIiBpZD0iUGF5bWVudC1QYXltZW50TWV0aG9kIiBzdHlsZT0ic3Ryb2tlOiMxODE4MTg7c3Ryb2tlLXdpZHRoOjE7Ii8+PHRleHQgZmlsbD0iIzAwMDAwMCIgZm9udC1mYW1pbHk9InNhbnMtc2VyaWYiIGZvbnQtc2l6ZT0iMTMiIGxlbmd0aEFkanVzdD0ic3BhY2luZyIgdGV4dExlbmd0aD0iNDUuNSIgeD0iMzI5IiB5PSI1NzAuMjg5MSI+cyYjNzkxNzsgZCYjNzkwOTtuZzwvdGV4dD48dGV4dCBmaWxsPSIjMDAwMDAwIiBmb250LWZhbWlseT0ic2Fucy1zZXJpZiIgZm9udC1zaXplPSIxMyIgbGVuZ3RoQWRqdXN0PSJzcGFjaW5nIiB0ZXh0TGVuZ3RoPSI2LjUiIHg9IjMyMS43OTgiIHk9IjU0Ny4xNTEyIj4xPC90ZXh0Pjx0ZXh0IGZpbGw9IiMwMDAwMDAiIGZvbnQtZmFtaWx5PSJzYW5zLXNlcmlmIiBmb250LXNpemU9IjEzIiBsZW5ndGhBZGp1c3Q9InNwYWNpbmciIHRleHRMZW5ndGg9IjYuNSIgeD0iMzIxLjU0NDUiIHk9IjU5Mi40NjIzIj4xPC90ZXh0PjwvZz48IS0tbGluayBQYXltZW50U3RhdHVzIHRvIFBheW1lbnQtLT48ZyBjbGFzcz0ibGluayIgZGF0YS1lbnRpdHktMT0iUGF5bWVudFN0YXR1cyIgZGF0YS1lbnRpdHktMj0iUGF5bWVudCIgZGF0YS1zb3VyY2UtbGluZT0iNjMiIGRhdGEtdWlkPSJsbmsxNCIgaWQ9ImxpbmtfUGF5bWVudFN0YXR1c19QYXltZW50Ij48cGF0aCBjb2RlTGluZT0iNjMiIGQ9Ik0zOTYuODcsMjU0LjA0IEMzODguMiwyNzUuOCAzNzcuNDcsMzAyLjc1IDM2Ny4wOCwzMjguODQiIGZpbGw9Im5vbmUiIGlkPSJQYXltZW50U3RhdHVzLVBheW1lbnQiIHN0eWxlPSJzdHJva2U6IzE4MTgxODtzdHJva2Utd2lkdGg6MTsiLz48dGV4dCBmaWxsPSIjMDAwMDAwIiBmb250LWZhbWlseT0ic2Fucy1zZXJpZiIgZm9udC1zaXplPSIxMyIgbGVuZ3RoQWRqdXN0PSJzcGFjaW5nIiB0ZXh0TGVuZ3RoPSI0NS41IiB4PSIzODYiIHk9IjI5Ny4yODkxIj4mIzIyNTtwIGQmIzc5MDk7bmc8L3RleHQ+PHRleHQgZmlsbD0iIzAwMDAwMCIgZm9udC1mYW1pbHk9InNhbnMtc2VyaWYiIGZvbnQtc2l6ZT0iMTMiIGxlbmd0aEFkanVzdD0ic3BhY2luZyIgdGV4dExlbmd0aD0iNi41IiB4PSIzODcuODAzMyIgeT0iMjc0LjE4OTkiPjE8L3RleHQ+PHRleHQgZmlsbD0iIzAwMDAwMCIgZm9udC1mYW1pbHk9InNhbnMtc2VyaWYiIGZvbnQtc2l6ZT0iMTMiIGxlbmd0aEFkanVzdD0ic3BhY2luZyIgdGV4dExlbmd0aD0iMzIuNSIgeD0iMzM3LjAxMiIgeT0iMzE5LjQyMzQiPjEuLi4qPC90ZXh0PjwvZz48IS0tU1JDPVtWTEhEUXpqMDRCdGhMbW93ejBrUi1jZndRYkRBQTB3MWtFVGJBb2pRT01qTmJMTzVhX09HVVdZYlhwUTc3V0NuOU9TcWNBT3FLOTBFRkladVYtbV93VW83WkVLdUZjYnREM0RsdGZpZHZVRU9mcElaMklJMll1MWI4V2IxUGFOZVVHeldvNUpyRW0yOVpxeVdMTk01SVFEWTRpQmg2MkM5dkFBVUlQcXpYSzJMeXpHQjlaSkZ1S3FVUGQzYTBOSFdUeVN5TllPcWRmWkowRkNhNkpETE5YUlVud3FXaG4zYUF4M3dkNFVreUdrUW9OUlplUWcteXVXNEIyT2ZnLVNzYmdib1hhNzl3YmJpQ1ZRWW5STWdwYzk4MldmWkxWdXBTNVZLdWtidkZKRnFpbS1UM1ptbGZkWXRZRVJpODhWckpzdUUxd2V3OVJVZEVEdTlIbkkxU0I1dmlTVGVZZFNVb1BXX1Y2SVhUX2NYUzVKazA2aS1kWTViV0ZMOWZ3LW1EVEw3M2hOeW1QNGJBZlVHNFVNQ3ZGS2lPOHM4NjAyOS0gLTJrVWZ6RWF2MWxiYWxZRUNVTVlyUl9CMlBISkV0VGJHcjJ2MzRZaGltNTNvSUxIVHU0UngtZndXajV3TE5yTVRTQjR6clAzYVJvYk82TjBYQmtMYTVtNVRsS1ZFQUNHTFpwSGRTczMxamZ6emRZVWU2UkRmZlVRV2xUOHU5YmlvUTU3WVByN09aak8xclF0bjI5ZXBqWGhQZDBjRWItMTJsRDFXSlBDa0ZUX1dEYTd5RXhXZEIwNEt1eVFwWV92bUNRbWRfUXhKeHNid2xpNndCdWhMWDlsQUwxY2xIVUFuVTFYVFZTeHdPdUtWZ0dnc2VFOHJMVHU3Vk1maENpd2d4REtTX0lmaUJaR2s4Vkd3R1czZmlDdkJkNjJ0aHo3YUd1elktd3diTHVOdnpsTk1GOEh3MDFEaUJPQUg2aWxRSVdfa0YtOVhGaXhXX3I3dUhYejhQN0ZjWF9fR3JxTDlLTjRqdmdqX2FHQzA1U2d0ZlNqM3diMWx1X10tLT48L2c+PC9zdmc+;" vertex="1" parent="1">
            <mxGeometry x="520" y="2480" width="910" height="701" as="geometry" />
          </mxCell>
        </UserObject>
        <mxCell id="uVMDQoxGMwyd6C8O165r-9" value="&lt;font style=&quot;font-size: 18px;&quot;&gt;&lt;b style=&quot;&quot;&gt;Quy trình thanh toán&lt;/b&gt;&lt;/font&gt;" style="text;html=1;align=center;verticalAlign=middle;whiteSpace=wrap;rounded=0;" vertex="1" parent="1">
          <mxGeometry x="800" y="2410" width="200" height="30" as="geometry" />
        </mxCell>
        <UserObject label="" plantUmlData="{&#xa;  &quot;data&quot;: &quot;@startuml\nskinparam monochrome true\n\n&#39; User\nclass User {\n  - ID\n  - Email\n  - Mật_khẩu\n  - Role_ID\n  + Đăng_nhập()\n  + Đăng_xuất()\n}\n\n&#39; Role\nclass Role {\n  - ID\n  - Tên_vai_trò\n  - Mô_tả\n}\n\n&#39; Mối quan hệ\nRole \&quot;1\&quot; -- \&quot;1..*\&quot; User\n\n\nnote top of Role\n  Một vai trò có thể gán cho nhiều User (Người mua, Quản trị viên)\nend note\n\n\n@enduml&quot;,&#xa;  &quot;format&quot;: &quot;svg&quot;&#xa;}" id="uVMDQoxGMwyd6C8O165r-10">
          <mxCell style="shape=image;noLabel=1;verticalAlign=top;aspect=fixed;imageAspect=0;image=data:image/svg+xml,PHN2ZyB4bWxucz0iaHR0cDovL3d3dy53My5vcmcvMjAwMC9zdmciIHhtbG5zOnhsaW5rPSJodHRwOi8vd3d3LnczLm9yZy8xOTk5L3hsaW5rIiBjb250ZW50U3R5bGVUeXBlPSJ0ZXh0L2NzcyIgZGF0YS1kaWFncmFtLXR5cGU9IkNMQVNTIiBoZWlnaHQ9IjM4N3B4IiBwcmVzZXJ2ZUFzcGVjdFJhdGlvPSJub25lIiBzdHlsZT0id2lkdGg6NDUwcHg7aGVpZ2h0OjM4N3B4O2JhY2tncm91bmQ6I0ZGRkZGRjsiIHZlcnNpb249IjEuMSIgdmlld0JveD0iMCAwIDQ1MCAzODciIHdpZHRoPSI0NTBweCIgem9vbUFuZFBhbj0ibWFnbmlmeSI+PGRlZnMvPjxnPjwhLS1jbGFzcyBVc2VyLS0+PGcgY2xhc3M9ImVudGl0eSIgZGF0YS1lbnRpdHk9IlVzZXIiIGRhdGEtc291cmNlLWxpbmU9IjQiIGRhdGEtdWlkPSJlbnQwMDAyIiBpZD0iZW50aXR5X1VzZXIiPjxyZWN0IGZpbGw9IiNGMUYxRjEiIGhlaWdodD0iMTM3LjkwNjMiIHJ4PSIyLjUiIHJ5PSIyLjUiIHN0eWxlPSJzdHJva2U6IzE4MTgxODtzdHJva2Utd2lkdGg6MC41OyIgd2lkdGg9IjEwMyIgeD0iMTczIiB5PSIyNDMiLz48ZWxsaXBzZSBjeD0iMjA3LjM1IiBjeT0iMjU5IiBmaWxsPSIjQzJDMkMyIiByeD0iMTEiIHJ5PSIxMSIgc3R5bGU9InN0cm9rZTojMTgxODE4O3N0cm9rZS13aWR0aDoxOyIvPjxwYXRoIGQ9Ik0yMDQuOTc1LDI2My4yNSBMMjA0Ljk3NSwyNjUgTDIwOS45MTI1LDI2NSBMMjA5LjkxMjUsMjYzLjI1IEwyMDQuOTc1LDI2My4yNSBaIE0yMDUuNjYyNSwyNjMuOTM3NSBRMjA1LjY2MjUsMjYzLjkzNzUgMjA1LjY2MjUsMjU0Ljc1IEwyMDMuOTEyNSwyNTQuNzUgUTIwMy45MTI1LDI1NC43NSAyMDMuOTEyNSwyNjMuOTM3NSBMMjA1LjY2MjUsMjYzLjkzNzUgWiBNMjA5LjIyNSwyNjMuOTM3NSBMMjEwLjk3NSwyNjMuOTM3NSBRMjEwLjk3NSwyNjMuOTM3NSAyMTAuOTc1LDI2MS4xMjUgTDIwOS4yMjUsMjYxLjEyNSBRMjA5LjIyNSwyNjEuMTI1IDIwOS4yMjUsMjYzLjkzNzUgWiBNMjA5LjIyNSwyNTQuNzUgUTIwOS4yMjUsMjU0Ljc1IDIwOS4yMjUsMjU3LjU2MjUgTDIxMC45NzUsMjU3LjU2MjUgUTIxMC45NzUsMjU3LjU2MjUgMjEwLjk3NSwyNTQuNzUgTDIwOS4yMjUsMjU0Ljc1IFogTTIwNC45NzUsMjU1LjQzNzUgTDIwOS45MTI1LDI1NS40Mzc1IEwyMDkuOTEyNSwyNTMuNjg3NSBMMjA0Ljk3NSwyNTMuNjg3NSBMMjA0Ljk3NSwyNTUuNDM3NSBaICIgZmlsbD0iIzAwMDAwMCIvPjx0ZXh0IGZpbGw9IiMwMDAwMDAiIGZvbnQtZmFtaWx5PSJzYW5zLXNlcmlmIiBmb250LXNpemU9IjE0IiBsZW5ndGhBZGp1c3Q9InNwYWNpbmciIHRleHRMZW5ndGg9IjI4IiB4PSIyMjUuNjUiIHk9IjI2NC43NDIyIj5Vc2VyPC90ZXh0PjxsaW5lIHN0eWxlPSJzdHJva2U6IzE4MTgxODtzdHJva2Utd2lkdGg6MC41OyIgeDE9IjE3NCIgeDI9IjI3NSIgeTE9IjI3NSIgeTI9IjI3NSIvPjxyZWN0IGZpbGw9Im5vbmUiIGhlaWdodD0iNiIgc3R5bGU9InN0cm9rZTojNTk1OTU5O3N0cm9rZS13aWR0aDoxOyIgd2lkdGg9IjYiIHg9IjE4MSIgeT0iMjg0Ljk5MjIiLz48dGV4dCBmaWxsPSIjMDAwMDAwIiBmb250LWZhbWlseT0ic2Fucy1zZXJpZiIgZm9udC1zaXplPSIxNCIgbGVuZ3RoQWRqdXN0PSJzcGFjaW5nIiB0ZXh0TGVuZ3RoPSIxNCIgeD0iMTkzIiB5PSIyOTIuMjM0NCI+SUQ8L3RleHQ+PHJlY3QgZmlsbD0ibm9uZSIgaGVpZ2h0PSI2IiBzdHlsZT0ic3Ryb2tlOiM1OTU5NTk7c3Ryb2tlLXdpZHRoOjE7IiB3aWR0aD0iNiIgeD0iMTgxIiB5PSIyOTkuOTc2NiIvPjx0ZXh0IGZpbGw9IiMwMDAwMDAiIGZvbnQtZmFtaWx5PSJzYW5zLXNlcmlmIiBmb250LXNpemU9IjE0IiBsZW5ndGhBZGp1c3Q9InNwYWNpbmciIHRleHRMZW5ndGg9IjM1IiB4PSIxOTMiIHk9IjMwNy4yMTg4Ij5FbWFpbDwvdGV4dD48cmVjdCBmaWxsPSJub25lIiBoZWlnaHQ9IjYiIHN0eWxlPSJzdHJva2U6IzU5NTk1OTtzdHJva2Utd2lkdGg6MTsiIHdpZHRoPSI2IiB4PSIxODEiIHk9IjMxNC45NjA5Ii8+PHRleHQgZmlsbD0iIzAwMDAwMCIgZm9udC1mYW1pbHk9InNhbnMtc2VyaWYiIGZvbnQtc2l6ZT0iMTQiIGxlbmd0aEFkanVzdD0ic3BhY2luZyIgdGV4dExlbmd0aD0iNTYiIHg9IjE5MyIgeT0iMzIyLjIwMzEiPk0mIzc4NTM7dF9raCYjNzg0OTt1PC90ZXh0PjxyZWN0IGZpbGw9Im5vbmUiIGhlaWdodD0iNiIgc3R5bGU9InN0cm9rZTojNTk1OTU5O3N0cm9rZS13aWR0aDoxOyIgd2lkdGg9IjYiIHg9IjE4MSIgeT0iMzI5Ljk0NTMiLz48dGV4dCBmaWxsPSIjMDAwMDAwIiBmb250LWZhbWlseT0ic2Fucy1zZXJpZiIgZm9udC1zaXplPSIxNCIgbGVuZ3RoQWRqdXN0PSJzcGFjaW5nIiB0ZXh0TGVuZ3RoPSI0OSIgeD0iMTkzIiB5PSIzMzcuMTg3NSI+Um9sZV9JRDwvdGV4dD48bGluZSBzdHlsZT0ic3Ryb2tlOiMxODE4MTg7c3Ryb2tlLXdpZHRoOjAuNTsiIHgxPSIxNzQiIHgyPSIyNzUiIHkxPSIzNDIuOTM3NSIgeTI9IjM0Mi45Mzc1Ii8+PGVsbGlwc2UgY3g9IjE4NCIgY3k9IjM1NS45Mjk3IiBmaWxsPSIjQTZBNkE2IiByeD0iMyIgcnk9IjMiIHN0eWxlPSJzdHJva2U6IzU0NTQ1NDtzdHJva2Utd2lkdGg6MTsiLz48dGV4dCBmaWxsPSIjMDAwMDAwIiBmb250LWZhbWlseT0ic2Fucy1zZXJpZiIgZm9udC1zaXplPSIxNCIgbGVuZ3RoQWRqdXN0PSJzcGFjaW5nIiB0ZXh0TGVuZ3RoPSI3NyIgeD0iMTkzIiB5PSIzNjAuMTcxOSI+JiMyNzI7JiMyNTk7bmdfbmgmIzc4NTM7cCgpPC90ZXh0PjxlbGxpcHNlIGN4PSIxODQiIGN5PSIzNzAuOTE0MSIgZmlsbD0iI0E2QTZBNiIgcng9IjMiIHJ5PSIzIiBzdHlsZT0ic3Ryb2tlOiM1NDU0NTQ7c3Ryb2tlLXdpZHRoOjE7Ii8+PHRleHQgZmlsbD0iIzAwMDAwMCIgZm9udC1mYW1pbHk9InNhbnMtc2VyaWYiIGZvbnQtc2l6ZT0iMTQiIGxlbmd0aEFkanVzdD0ic3BhY2luZyIgdGV4dExlbmd0aD0iNzciIHg9IjE5MyIgeT0iMzc1LjE1NjMiPiYjMjcyOyYjMjU5O25nX3h1JiM3ODQ1O3QoKTwvdGV4dD48L2c+PCEtLWNsYXNzIFJvbGUtLT48ZyBjbGFzcz0iZW50aXR5IiBkYXRhLWVudGl0eT0iUm9sZSIgZGF0YS1zb3VyY2UtbGluZT0iMTQiIGRhdGEtdWlkPSJlbnQwMDAzIiBpZD0iZW50aXR5X1JvbGUiPjxyZWN0IGZpbGw9IiNGMUYxRjEiIGhlaWdodD0iOTIuOTUzMSIgcng9IjIuNSIgcnk9IjIuNSIgc3R5bGU9InN0cm9rZTojMTgxODE4O3N0cm9rZS13aWR0aDowLjU7IiB3aWR0aD0iMTAzIiB4PSIxNzMiIHk9IjkwIi8+PGVsbGlwc2UgY3g9IjIwNy4zNSIgY3k9IjEwNiIgZmlsbD0iI0MyQzJDMiIgcng9IjExIiByeT0iMTEiIHN0eWxlPSJzdHJva2U6IzE4MTgxODtzdHJva2Utd2lkdGg6MTsiLz48cGF0aCBkPSJNMjA0Ljk3NSwxMTAuMjUgTDIwNC45NzUsMTEyIEwyMDkuOTEyNSwxMTIgTDIwOS45MTI1LDExMC4yNSBMMjA0Ljk3NSwxMTAuMjUgWiBNMjA1LjY2MjUsMTEwLjkzNzUgUTIwNS42NjI1LDExMC45Mzc1IDIwNS42NjI1LDEwMS43NSBMMjAzLjkxMjUsMTAxLjc1IFEyMDMuOTEyNSwxMDEuNzUgMjAzLjkxMjUsMTEwLjkzNzUgTDIwNS42NjI1LDExMC45Mzc1IFogTTIwOS4yMjUsMTEwLjkzNzUgTDIxMC45NzUsMTEwLjkzNzUgUTIxMC45NzUsMTEwLjkzNzUgMjEwLjk3NSwxMDguMTI1IEwyMDkuMjI1LDEwOC4xMjUgUTIwOS4yMjUsMTA4LjEyNSAyMDkuMjI1LDExMC45Mzc1IFogTTIwOS4yMjUsMTAxLjc1IFEyMDkuMjI1LDEwMS43NSAyMDkuMjI1LDEwNC41NjI1IEwyMTAuOTc1LDEwNC41NjI1IFEyMTAuOTc1LDEwNC41NjI1IDIxMC45NzUsMTAxLjc1IEwyMDkuMjI1LDEwMS43NSBaIE0yMDQuOTc1LDEwMi40Mzc1IEwyMDkuOTEyNSwxMDIuNDM3NSBMMjA5LjkxMjUsMTAwLjY4NzUgTDIwNC45NzUsMTAwLjY4NzUgTDIwNC45NzUsMTAyLjQzNzUgWiAiIGZpbGw9IiMwMDAwMDAiLz48dGV4dCBmaWxsPSIjMDAwMDAwIiBmb250LWZhbWlseT0ic2Fucy1zZXJpZiIgZm9udC1zaXplPSIxNCIgbGVuZ3RoQWRqdXN0PSJzcGFjaW5nIiB0ZXh0TGVuZ3RoPSIyOCIgeD0iMjI1LjY1IiB5PSIxMTEuNzQyMiI+Um9sZTwvdGV4dD48bGluZSBzdHlsZT0ic3Ryb2tlOiMxODE4MTg7c3Ryb2tlLXdpZHRoOjAuNTsiIHgxPSIxNzQiIHgyPSIyNzUiIHkxPSIxMjIiIHkyPSIxMjIiLz48cmVjdCBmaWxsPSJub25lIiBoZWlnaHQ9IjYiIHN0eWxlPSJzdHJva2U6IzU5NTk1OTtzdHJva2Utd2lkdGg6MTsiIHdpZHRoPSI2IiB4PSIxODEiIHk9IjEzMS45OTIyIi8+PHRleHQgZmlsbD0iIzAwMDAwMCIgZm9udC1mYW1pbHk9InNhbnMtc2VyaWYiIGZvbnQtc2l6ZT0iMTQiIGxlbmd0aEFkanVzdD0ic3BhY2luZyIgdGV4dExlbmd0aD0iMTQiIHg9IjE5MyIgeT0iMTM5LjIzNDQiPklEPC90ZXh0PjxyZWN0IGZpbGw9Im5vbmUiIGhlaWdodD0iNiIgc3R5bGU9InN0cm9rZTojNTk1OTU5O3N0cm9rZS13aWR0aDoxOyIgd2lkdGg9IjYiIHg9IjE4MSIgeT0iMTQ2Ljk3NjYiLz48dGV4dCBmaWxsPSIjMDAwMDAwIiBmb250LWZhbWlseT0ic2Fucy1zZXJpZiIgZm9udC1zaXplPSIxNCIgbGVuZ3RoQWRqdXN0PSJzcGFjaW5nIiB0ZXh0TGVuZ3RoPSI3NyIgeD0iMTkzIiB5PSIxNTQuMjE4OCI+VCYjMjM0O25fdmFpX3RyJiMyNDI7PC90ZXh0PjxyZWN0IGZpbGw9Im5vbmUiIGhlaWdodD0iNiIgc3R5bGU9InN0cm9rZTojNTk1OTU5O3N0cm9rZS13aWR0aDoxOyIgd2lkdGg9IjYiIHg9IjE4MSIgeT0iMTYxLjk2MDkiLz48dGV4dCBmaWxsPSIjMDAwMDAwIiBmb250LWZhbWlseT0ic2Fucy1zZXJpZiIgZm9udC1zaXplPSIxNCIgbGVuZ3RoQWRqdXN0PSJzcGFjaW5nIiB0ZXh0TGVuZ3RoPSIzNSIgeD0iMTkzIiB5PSIxNjkuMjAzMSI+TSYjMjQ0O190JiM3ODQzOzwvdGV4dD48bGluZSBzdHlsZT0ic3Ryb2tlOiMxODE4MTg7c3Ryb2tlLXdpZHRoOjAuNTsiIHgxPSIxNzQiIHgyPSIyNzUiIHkxPSIxNzQuOTUzMSIgeTI9IjE3NC45NTMxIi8+PC9nPjxnIGNsYXNzPSJlbnRpdHkiIGRhdGEtZW50aXR5PSJHTU41IiBkYXRhLXNvdXJjZS1saW5lPSIyNSIgZGF0YS11aWQ9ImVudDAwMDYiIGlkPSJlbnRpdHlfR01ONSI+PHBhdGggZD0iTTYsNiBMNiwyOS45MTQxIEEwLDAgMCAwIDAgNiwyOS45MTQxIEwyMjAuNSwyOS45MTQxIEwyMjQuNSw4OS43NSBMMjI4LjUsMjkuOTE0MSBMNDQzLDI5LjkxNDEgQTAsMCAwIDAgMCA0NDMsMjkuOTE0MSBMNDQzLDE2IEw0MzMsNiBMNiw2IEEwLDAgMCAwIDAgNiw2IiBmaWxsPSIjRkFGQUZBIiBzdHlsZT0ic3Ryb2tlOiMxODE4MTg7c3Ryb2tlLXdpZHRoOjAuNTsiLz48cGF0aCBkPSJNNDMzLDYgTDQzMywxNiBMNDQzLDE2IEw0MzMsNiIgZmlsbD0iI0ZBRkFGQSIgc3R5bGU9InN0cm9rZTojMTgxODE4O3N0cm9rZS13aWR0aDowLjU7Ii8+PHRleHQgZmlsbD0iIzAwMDAwMCIgZm9udC1mYW1pbHk9InNhbnMtc2VyaWYiIGZvbnQtc2l6ZT0iMTMiIGxlbmd0aEFkanVzdD0ic3BhY2luZyIgdGV4dExlbmd0aD0iNDE2IiB4PSIxMiIgeT0iMjMuMjg5MSI+TSYjNzg5Nzt0IHZhaSB0ciYjMjQyOyBjJiMyNDM7IHRoJiM3ODc1OyBnJiMyMjU7biBjaG8gbmhpJiM3ODczO3UgVXNlciAoTmcmIzQzMjsmIzc5MDE7aSBtdWEsIFF1JiM3ODQzO24gdHImIzc4ODM7IHZpJiMyMzQ7bik8L3RleHQ+PC9nPjwhLS1saW5rIFJvbGUgdG8gVXNlci0tPjxnIGNsYXNzPSJsaW5rIiBkYXRhLWVudGl0eS0xPSJSb2xlIiBkYXRhLWVudGl0eS0yPSJVc2VyIiBkYXRhLXNvdXJjZS1saW5lPSIyMSIgZGF0YS11aWQ9ImxuazQiIGlkPSJsaW5rX1JvbGVfVXNlciI+PHBhdGggY29kZUxpbmU9IjIxIiBkPSJNMjI0LjUsMTgzLjA5IEMyMjQuNSwyMDEuMzYgMjI0LjUsMjIyLjggMjI0LjUsMjQyLjg2IiBmaWxsPSJub25lIiBpZD0iUm9sZS1Vc2VyIiBzdHlsZT0ic3Ryb2tlOiMxODE4MTg7c3Ryb2tlLXdpZHRoOjE7Ii8+PHRleHQgZmlsbD0iIzAwMDAwMCIgZm9udC1mYW1pbHk9InNhbnMtc2VyaWYiIGZvbnQtc2l6ZT0iMTMiIGxlbmd0aEFkanVzdD0ic3BhY2luZyIgdGV4dExlbmd0aD0iNi41IiB4PSIyMTguMDk2MSIgeT0iMjAzLjI0NzIiPjE8L3RleHQ+PHRleHQgZmlsbD0iIzAwMDAwMCIgZm9udC1mYW1pbHk9InNhbnMtc2VyaWYiIGZvbnQtc2l6ZT0iMTMiIGxlbmd0aEFkanVzdD0ic3BhY2luZyIgdGV4dExlbmd0aD0iMjYiIHg9IjE5Ni45OTY5IiB5PSIyMzMuNDYxNSI+MS4uKjwvdGV4dD48L2c+PCEtLVNSQz1bTFAybkppQ202OEh0RnlLZjJvc0dJaG0zMzBuNTBpNWlNSTRhTGZGVjhSNGg5Q0kwRVoybW1DWjBXMmU2YTJlWE80aDZMN3FGbG1jc21tM0pWX2hqa3lfZFBZUWY0aEtlS0lmSUlMd2hDZU1rSlNoTzVpd1FqNlA5OFBlY0k1bXA4Q1JYVlhXN2ZQMTVLNUZSaFpJVnZSUHpDczVuZWVnS1hzaXhNMy1pNXZIblNnVWhRWkota3hpb2pkdExSZFZaT1R4cTJfRm9GLW9xVm9TLTV2QmhrbHlTZUZxdHJ4UFQza1FmeEh1YkJlcVd2QlF4T280WHNlaUduc3ZDOWpsSEs4T25LamVMTDFOS25PMjREcHpmazdKdVQySno1eEhCTUkzaE5tWDloYTJ2akRzajZOdlhUOUhqRmNwdEI1NFFpT2pacnM5OXBjZ3hVeW9iVS1ZT2ZOR0UzX2UxXS0tPjwvZz48L3N2Zz4=;" vertex="1" parent="1">
            <mxGeometry x="1582.5" y="300" width="450" height="387" as="geometry" />
          </mxCell>
        </UserObject>
        <mxCell id="uVMDQoxGMwyd6C8O165r-11" value="&lt;font style=&quot;font-size: 18px;&quot;&gt;&lt;b style=&quot;&quot;&gt;Kiểm soát truy cập&lt;/b&gt;&lt;/font&gt;" style="text;html=1;align=center;verticalAlign=middle;whiteSpace=wrap;rounded=0;" vertex="1" parent="1">
          <mxGeometry x="1707.5" y="260" width="200" height="30" as="geometry" />
        </mxCell>
        <UserObject label="" plantUmlData="{&#xa;  &quot;data&quot;: &quot;@startuml\nskinparam monochrome true\n\n&#39; Thực thể từ module Danh mục sản phẩm\nclass Product {\n  - ID\n  - Tên\n  - Giá\n  - Hình_ảnh\n}\n\n&#39; Thực thể từ module Kiểm soát truy cập\nclass User {\n  - ID\n  - Email\n  - Mật_khẩu\n}\n\n&#39; Người mua kế thừa từ User\nUser &lt;|-- Buyer\nclass Buyer {\n  - Tên\n  - Số_điện_thoại\n  + Tạo_đánh_giá()\n}\n\n&#39; Sản phẩm trong module Đánh giá kế thừa từ Product\nProduct &lt;|-- ProductInRating\nclass ProductInRating {\n  - Mô_tả\n}\n\n&#39; Rating\nclass Rating {\n  - ID\n  - Số_sao\n  - Bình_luận\n  - Ngày_đánh_giá\n  - Buyer_ID\n  - ProductInRating_ID\n}\n\n&#39; Mối quan hệ\n\nRating \&quot;0...*\&quot; -- \&quot;0...*\&quot; ProductInRating : có\nBuyer \&quot;1\&quot; -- \&quot;1..*\&quot; Rating : tạo\n\nnote top of Buyer\n  Người mua chỉ tạo Rating cho sản phẩm đã mua\nend note\n\n\n\n@enduml\n&quot;,&#xa;  &quot;format&quot;: &quot;svg&quot;&#xa;}" id="uVMDQoxGMwyd6C8O165r-12">
          <mxCell style="shape=image;noLabel=1;verticalAlign=top;aspect=fixed;imageAspect=0;image=data:image/svg+xml,PHN2ZyB4bWxucz0iaHR0cDovL3d3dy53My5vcmcvMjAwMC9zdmciIHhtbG5zOnhsaW5rPSJodHRwOi8vd3d3LnczLm9yZy8xOTk5L3hsaW5rIiBjb250ZW50U3R5bGVUeXBlPSJ0ZXh0L2NzcyIgZGF0YS1kaWFncmFtLXR5cGU9IkNMQVNTIiBoZWlnaHQ9IjYxMXB4IiBwcmVzZXJ2ZUFzcGVjdFJhdGlvPSJub25lIiBzdHlsZT0id2lkdGg6NDc1cHg7aGVpZ2h0OjYxMXB4O2JhY2tncm91bmQ6I0ZGRkZGRjsiIHZlcnNpb249IjEuMSIgdmlld0JveD0iMCAwIDQ3NSA2MTEiIHdpZHRoPSI0NzVweCIgem9vbUFuZFBhbj0ibWFnbmlmeSI+PGRlZnMvPjxnPjwhLS1jbGFzcyBQcm9kdWN0LS0+PGcgY2xhc3M9ImVudGl0eSIgZGF0YS1lbnRpdHk9IlByb2R1Y3QiIGRhdGEtc291cmNlLWxpbmU9IjQiIGRhdGEtdWlkPSJlbnQwMDAyIiBpZD0iZW50aXR5X1Byb2R1Y3QiPjxyZWN0IGZpbGw9IiNGMUYxRjEiIGhlaWdodD0iMTA3LjkzNzUiIHJ4PSIyLjUiIHJ5PSIyLjUiIHN0eWxlPSJzdHJva2U6IzE4MTgxODtzdHJva2Utd2lkdGg6MC41OyIgd2lkdGg9IjgyIiB4PSI3IiB5PSIzNDQiLz48ZWxsaXBzZSBjeD0iMjIuNDUiIGN5PSIzNjAiIGZpbGw9IiNDMkMyQzIiIHJ4PSIxMSIgcnk9IjExIiBzdHlsZT0ic3Ryb2tlOiMxODE4MTg7c3Ryb2tlLXdpZHRoOjE7Ii8+PHBhdGggZD0iTTIwLjA3NSwzNjQuMjUgTDIwLjA3NSwzNjYgTDI1LjAxMjUsMzY2IEwyNS4wMTI1LDM2NC4yNSBMMjAuMDc1LDM2NC4yNSBaIE0yMC43NjI1LDM2NC45Mzc1IFEyMC43NjI1LDM2NC45Mzc1IDIwLjc2MjUsMzU1Ljc1IEwxOS4wMTI1LDM1NS43NSBRMTkuMDEyNSwzNTUuNzUgMTkuMDEyNSwzNjQuOTM3NSBMMjAuNzYyNSwzNjQuOTM3NSBaIE0yNC4zMjUsMzY0LjkzNzUgTDI2LjA3NSwzNjQuOTM3NSBRMjYuMDc1LDM2NC45Mzc1IDI2LjA3NSwzNjIuMTI1IEwyNC4zMjUsMzYyLjEyNSBRMjQuMzI1LDM2Mi4xMjUgMjQuMzI1LDM2NC45Mzc1IFogTTI0LjMyNSwzNTUuNzUgUTI0LjMyNSwzNTUuNzUgMjQuMzI1LDM1OC41NjI1IEwyNi4wNzUsMzU4LjU2MjUgUTI2LjA3NSwzNTguNTYyNSAyNi4wNzUsMzU1Ljc1IEwyNC4zMjUsMzU1Ljc1IFogTTIwLjA3NSwzNTYuNDM3NSBMMjUuMDEyNSwzNTYuNDM3NSBMMjUuMDEyNSwzNTQuNjg3NSBMMjAuMDc1LDM1NC42ODc1IEwyMC4wNzUsMzU2LjQzNzUgWiAiIGZpbGw9IiMwMDAwMDAiLz48dGV4dCBmaWxsPSIjMDAwMDAwIiBmb250LWZhbWlseT0ic2Fucy1zZXJpZiIgZm9udC1zaXplPSIxNCIgbGVuZ3RoQWRqdXN0PSJzcGFjaW5nIiB0ZXh0TGVuZ3RoPSI0OSIgeD0iMzYuNTUiIHk9IjM2NS43NDIyIj5Qcm9kdWN0PC90ZXh0PjxsaW5lIHN0eWxlPSJzdHJva2U6IzE4MTgxODtzdHJva2Utd2lkdGg6MC41OyIgeDE9IjgiIHgyPSI4OCIgeTE9IjM3NiIgeTI9IjM3NiIvPjxyZWN0IGZpbGw9Im5vbmUiIGhlaWdodD0iNiIgc3R5bGU9InN0cm9rZTojNTk1OTU5O3N0cm9rZS13aWR0aDoxOyIgd2lkdGg9IjYiIHg9IjE1IiB5PSIzODUuOTkyMiIvPjx0ZXh0IGZpbGw9IiMwMDAwMDAiIGZvbnQtZmFtaWx5PSJzYW5zLXNlcmlmIiBmb250LXNpemU9IjE0IiBsZW5ndGhBZGp1c3Q9InNwYWNpbmciIHRleHRMZW5ndGg9IjE0IiB4PSIyNyIgeT0iMzkzLjIzNDQiPklEPC90ZXh0PjxyZWN0IGZpbGw9Im5vbmUiIGhlaWdodD0iNiIgc3R5bGU9InN0cm9rZTojNTk1OTU5O3N0cm9rZS13aWR0aDoxOyIgd2lkdGg9IjYiIHg9IjE1IiB5PSI0MDAuOTc2NiIvPjx0ZXh0IGZpbGw9IiMwMDAwMDAiIGZvbnQtZmFtaWx5PSJzYW5zLXNlcmlmIiBmb250LXNpemU9IjE0IiBsZW5ndGhBZGp1c3Q9InNwYWNpbmciIHRleHRMZW5ndGg9IjIxIiB4PSIyNyIgeT0iNDA4LjIxODgiPlQmIzIzNDtuPC90ZXh0PjxyZWN0IGZpbGw9Im5vbmUiIGhlaWdodD0iNiIgc3R5bGU9InN0cm9rZTojNTk1OTU5O3N0cm9rZS13aWR0aDoxOyIgd2lkdGg9IjYiIHg9IjE1IiB5PSI0MTUuOTYwOSIvPjx0ZXh0IGZpbGw9IiMwMDAwMDAiIGZvbnQtZmFtaWx5PSJzYW5zLXNlcmlmIiBmb250LXNpemU9IjE0IiBsZW5ndGhBZGp1c3Q9InNwYWNpbmciIHRleHRMZW5ndGg9IjIxIiB4PSIyNyIgeT0iNDIzLjIwMzEiPkdpJiMyMjU7PC90ZXh0PjxyZWN0IGZpbGw9Im5vbmUiIGhlaWdodD0iNiIgc3R5bGU9InN0cm9rZTojNTk1OTU5O3N0cm9rZS13aWR0aDoxOyIgd2lkdGg9IjYiIHg9IjE1IiB5PSI0MzAuOTQ1MyIvPjx0ZXh0IGZpbGw9IiMwMDAwMDAiIGZvbnQtZmFtaWx5PSJzYW5zLXNlcmlmIiBmb250LXNpemU9IjE0IiBsZW5ndGhBZGp1c3Q9InNwYWNpbmciIHRleHRMZW5ndGg9IjU2IiB4PSIyNyIgeT0iNDM4LjE4NzUiPkgmIzIzNjtuaF8mIzc4NDM7bmg8L3RleHQ+PGxpbmUgc3R5bGU9InN0cm9rZTojMTgxODE4O3N0cm9rZS13aWR0aDowLjU7IiB4MT0iOCIgeDI9Ijg4IiB5MT0iNDQzLjkzNzUiIHkyPSI0NDMuOTM3NSIvPjwvZz48IS0tY2xhc3MgVXNlci0tPjxnIGNsYXNzPSJlbnRpdHkiIGRhdGEtZW50aXR5PSJVc2VyIiBkYXRhLXNvdXJjZS1saW5lPSIxMiIgZGF0YS11aWQ9ImVudDAwMDMiIGlkPSJlbnRpdHlfVXNlciI+PHJlY3QgZmlsbD0iI0YxRjFGMSIgaGVpZ2h0PSI5Mi45NTMxIiByeD0iMi41IiByeT0iMi41IiBzdHlsZT0ic3Ryb2tlOiMxODE4MTg7c3Ryb2tlLXdpZHRoOjAuNTsiIHdpZHRoPSI4MiIgeD0iNDUiIHk9IjciLz48ZWxsaXBzZSBjeD0iNjkuOSIgY3k9IjIzIiBmaWxsPSIjQzJDMkMyIiByeD0iMTEiIHJ5PSIxMSIgc3R5bGU9InN0cm9rZTojMTgxODE4O3N0cm9rZS13aWR0aDoxOyIvPjxwYXRoIGQ9Ik02Ny41MjUsMjcuMjUgTDY3LjUyNSwyOSBMNzIuNDYyNSwyOSBMNzIuNDYyNSwyNy4yNSBMNjcuNTI1LDI3LjI1IFogTTY4LjIxMjUsMjcuOTM3NSBRNjguMjEyNSwyNy45Mzc1IDY4LjIxMjUsMTguNzUgTDY2LjQ2MjUsMTguNzUgUTY2LjQ2MjUsMTguNzUgNjYuNDYyNSwyNy45Mzc1IEw2OC4yMTI1LDI3LjkzNzUgWiBNNzEuNzc1LDI3LjkzNzUgTDczLjUyNSwyNy45Mzc1IFE3My41MjUsMjcuOTM3NSA3My41MjUsMjUuMTI1IEw3MS43NzUsMjUuMTI1IFE3MS43NzUsMjUuMTI1IDcxLjc3NSwyNy45Mzc1IFogTTcxLjc3NSwxOC43NSBRNzEuNzc1LDE4Ljc1IDcxLjc3NSwyMS41NjI1IEw3My41MjUsMjEuNTYyNSBRNzMuNTI1LDIxLjU2MjUgNzMuNTI1LDE4Ljc1IEw3MS43NzUsMTguNzUgWiBNNjcuNTI1LDE5LjQzNzUgTDcyLjQ2MjUsMTkuNDM3NSBMNzIuNDYyNSwxNy42ODc1IEw2Ny41MjUsMTcuNjg3NSBMNjcuNTI1LDE5LjQzNzUgWiAiIGZpbGw9IiMwMDAwMDAiLz48dGV4dCBmaWxsPSIjMDAwMDAwIiBmb250LWZhbWlseT0ic2Fucy1zZXJpZiIgZm9udC1zaXplPSIxNCIgbGVuZ3RoQWRqdXN0PSJzcGFjaW5nIiB0ZXh0TGVuZ3RoPSIyOCIgeD0iODYuMSIgeT0iMjguNzQyMiI+VXNlcjwvdGV4dD48bGluZSBzdHlsZT0ic3Ryb2tlOiMxODE4MTg7c3Ryb2tlLXdpZHRoOjAuNTsiIHgxPSI0NiIgeDI9IjEyNiIgeTE9IjM5IiB5Mj0iMzkiLz48cmVjdCBmaWxsPSJub25lIiBoZWlnaHQ9IjYiIHN0eWxlPSJzdHJva2U6IzU5NTk1OTtzdHJva2Utd2lkdGg6MTsiIHdpZHRoPSI2IiB4PSI1MyIgeT0iNDguOTkyMiIvPjx0ZXh0IGZpbGw9IiMwMDAwMDAiIGZvbnQtZmFtaWx5PSJzYW5zLXNlcmlmIiBmb250LXNpemU9IjE0IiBsZW5ndGhBZGp1c3Q9InNwYWNpbmciIHRleHRMZW5ndGg9IjE0IiB4PSI2NSIgeT0iNTYuMjM0NCI+SUQ8L3RleHQ+PHJlY3QgZmlsbD0ibm9uZSIgaGVpZ2h0PSI2IiBzdHlsZT0ic3Ryb2tlOiM1OTU5NTk7c3Ryb2tlLXdpZHRoOjE7IiB3aWR0aD0iNiIgeD0iNTMiIHk9IjYzLjk3NjYiLz48dGV4dCBmaWxsPSIjMDAwMDAwIiBmb250LWZhbWlseT0ic2Fucy1zZXJpZiIgZm9udC1zaXplPSIxNCIgbGVuZ3RoQWRqdXN0PSJzcGFjaW5nIiB0ZXh0TGVuZ3RoPSIzNSIgeD0iNjUiIHk9IjcxLjIxODgiPkVtYWlsPC90ZXh0PjxyZWN0IGZpbGw9Im5vbmUiIGhlaWdodD0iNiIgc3R5bGU9InN0cm9rZTojNTk1OTU5O3N0cm9rZS13aWR0aDoxOyIgd2lkdGg9IjYiIHg9IjUzIiB5PSI3OC45NjA5Ii8+PHRleHQgZmlsbD0iIzAwMDAwMCIgZm9udC1mYW1pbHk9InNhbnMtc2VyaWYiIGZvbnQtc2l6ZT0iMTQiIGxlbmd0aEFkanVzdD0ic3BhY2luZyIgdGV4dExlbmd0aD0iNTYiIHg9IjY1IiB5PSI4Ni4yMDMxIj5NJiM3ODUzO3Rfa2gmIzc4NDk7dTwvdGV4dD48bGluZSBzdHlsZT0ic3Ryb2tlOiMxODE4MTg7c3Ryb2tlLXdpZHRoOjAuNTsiIHgxPSI0NiIgeDI9IjEyNiIgeTE9IjkxLjk1MzEiIHkyPSI5MS45NTMxIi8+PC9nPjwhLS1jbGFzcyBCdXllci0tPjxnIGNsYXNzPSJlbnRpdHkiIGRhdGEtZW50aXR5PSJCdXllciIgZGF0YS1zb3VyY2UtbGluZT0iMTkiIGRhdGEtdWlkPSJlbnQwMDA0IiBpZD0iZW50aXR5X0J1eWVyIj48cmVjdCBmaWxsPSIjRjFGMUYxIiBoZWlnaHQ9IjkyLjk1MzEiIHJ4PSIyLjUiIHJ5PSIyLjUiIHN0eWxlPSJzdHJva2U6IzE4MTgxODtzdHJva2Utd2lkdGg6MC41OyIgd2lkdGg9IjEyNCIgeD0iMTM4IiB5PSIxNjEiLz48ZWxsaXBzZSBjeD0iMTc4LjY1IiBjeT0iMTc3IiBmaWxsPSIjQzJDMkMyIiByeD0iMTEiIHJ5PSIxMSIgc3R5bGU9InN0cm9rZTojMTgxODE4O3N0cm9rZS13aWR0aDoxOyIvPjxwYXRoIGQ9Ik0xNzYuMjc1LDE4MS4yNSBMMTc2LjI3NSwxODMgTDE4MS4yMTI1LDE4MyBMMTgxLjIxMjUsMTgxLjI1IEwxNzYuMjc1LDE4MS4yNSBaIE0xNzYuOTYyNSwxODEuOTM3NSBRMTc2Ljk2MjUsMTgxLjkzNzUgMTc2Ljk2MjUsMTcyLjc1IEwxNzUuMjEyNSwxNzIuNzUgUTE3NS4yMTI1LDE3Mi43NSAxNzUuMjEyNSwxODEuOTM3NSBMMTc2Ljk2MjUsMTgxLjkzNzUgWiBNMTgwLjUyNSwxODEuOTM3NSBMMTgyLjI3NSwxODEuOTM3NSBRMTgyLjI3NSwxODEuOTM3NSAxODIuMjc1LDE3OS4xMjUgTDE4MC41MjUsMTc5LjEyNSBRMTgwLjUyNSwxNzkuMTI1IDE4MC41MjUsMTgxLjkzNzUgWiBNMTgwLjUyNSwxNzIuNzUgUTE4MC41MjUsMTcyLjc1IDE4MC41MjUsMTc1LjU2MjUgTDE4Mi4yNzUsMTc1LjU2MjUgUTE4Mi4yNzUsMTc1LjU2MjUgMTgyLjI3NSwxNzIuNzUgTDE4MC41MjUsMTcyLjc1IFogTTE3Ni4yNzUsMTczLjQzNzUgTDE4MS4yMTI1LDE3My40Mzc1IEwxODEuMjEyNSwxNzEuNjg3NSBMMTc2LjI3NSwxNzEuNjg3NSBMMTc2LjI3NSwxNzMuNDM3NSBaICIgZmlsbD0iIzAwMDAwMCIvPjx0ZXh0IGZpbGw9IiMwMDAwMDAiIGZvbnQtZmFtaWx5PSJzYW5zLXNlcmlmIiBmb250LXNpemU9IjE0IiBsZW5ndGhBZGp1c3Q9InNwYWNpbmciIHRleHRMZW5ndGg9IjM1IiB4PSIxOTguMzUiIHk9IjE4Mi43NDIyIj5CdXllcjwvdGV4dD48bGluZSBzdHlsZT0ic3Ryb2tlOiMxODE4MTg7c3Ryb2tlLXdpZHRoOjAuNTsiIHgxPSIxMzkiIHgyPSIyNjEiIHkxPSIxOTMiIHkyPSIxOTMiLz48cmVjdCBmaWxsPSJub25lIiBoZWlnaHQ9IjYiIHN0eWxlPSJzdHJva2U6IzU5NTk1OTtzdHJva2Utd2lkdGg6MTsiIHdpZHRoPSI2IiB4PSIxNDYiIHk9IjIwMi45OTIyIi8+PHRleHQgZmlsbD0iIzAwMDAwMCIgZm9udC1mYW1pbHk9InNhbnMtc2VyaWYiIGZvbnQtc2l6ZT0iMTQiIGxlbmd0aEFkanVzdD0ic3BhY2luZyIgdGV4dExlbmd0aD0iMjEiIHg9IjE1OCIgeT0iMjEwLjIzNDQiPlQmIzIzNDtuPC90ZXh0PjxyZWN0IGZpbGw9Im5vbmUiIGhlaWdodD0iNiIgc3R5bGU9InN0cm9rZTojNTk1OTU5O3N0cm9rZS13aWR0aDoxOyIgd2lkdGg9IjYiIHg9IjE0NiIgeT0iMjE3Ljk3NjYiLz48dGV4dCBmaWxsPSIjMDAwMDAwIiBmb250LWZhbWlseT0ic2Fucy1zZXJpZiIgZm9udC1zaXplPSIxNCIgbGVuZ3RoQWRqdXN0PSJzcGFjaW5nIiB0ZXh0TGVuZ3RoPSI5MSIgeD0iMTU4IiB5PSIyMjUuMjE4OCI+UyYjNzg4OTtfJiMyNzM7aSYjNzg3OTtuX3RobyYjNzg0MTtpPC90ZXh0PjxsaW5lIHN0eWxlPSJzdHJva2U6IzE4MTgxODtzdHJva2Utd2lkdGg6MC41OyIgeDE9IjEzOSIgeDI9IjI2MSIgeTE9IjIzMC45Njg4IiB5Mj0iMjMwLjk2ODgiLz48ZWxsaXBzZSBjeD0iMTQ5IiBjeT0iMjQzLjk2MDkiIGZpbGw9IiNBNkE2QTYiIHJ4PSIzIiByeT0iMyIgc3R5bGU9InN0cm9rZTojNTQ1NDU0O3N0cm9rZS13aWR0aDoxOyIvPjx0ZXh0IGZpbGw9IiMwMDAwMDAiIGZvbnQtZmFtaWx5PSJzYW5zLXNlcmlmIiBmb250LXNpemU9IjE0IiBsZW5ndGhBZGp1c3Q9InNwYWNpbmciIHRleHRMZW5ndGg9Ijk4IiB4PSIxNTgiIHk9IjI0OC4yMDMxIj5UJiM3ODQxO29fJiMyNzM7JiMyMjU7bmhfZ2kmIzIyNTsoKTwvdGV4dD48L2c+PCEtLWNsYXNzIFByb2R1Y3RJblJhdGluZy0tPjxnIGNsYXNzPSJlbnRpdHkiIGRhdGEtZW50aXR5PSJQcm9kdWN0SW5SYXRpbmciIGRhdGEtc291cmNlLWxpbmU9IjI3IiBkYXRhLXVpZD0iZW50MDAwNiIgaWQ9ImVudGl0eV9Qcm9kdWN0SW5SYXRpbmciPjxyZWN0IGZpbGw9IiNGMUYxRjEiIGhlaWdodD0iNjIuOTg0NCIgcng9IjIuNSIgcnk9IjIuNSIgc3R5bGU9InN0cm9rZTojMTgxODE4O3N0cm9rZS13aWR0aDowLjU7IiB3aWR0aD0iMTM3IiB4PSIzMS41IiB5PSI1NDIiLz48ZWxsaXBzZSBjeD0iNDYuNSIgY3k9IjU1OCIgZmlsbD0iI0MyQzJDMiIgcng9IjExIiByeT0iMTEiIHN0eWxlPSJzdHJva2U6IzE4MTgxODtzdHJva2Utd2lkdGg6MTsiLz48cGF0aCBkPSJNNDQuMTI1LDU2Mi4yNSBMNDQuMTI1LDU2NCBMNDkuMDYyNSw1NjQgTDQ5LjA2MjUsNTYyLjI1IEw0NC4xMjUsNTYyLjI1IFogTTQ0LjgxMjUsNTYyLjkzNzUgUTQ0LjgxMjUsNTYyLjkzNzUgNDQuODEyNSw1NTMuNzUgTDQzLjA2MjUsNTUzLjc1IFE0My4wNjI1LDU1My43NSA0My4wNjI1LDU2Mi45Mzc1IEw0NC44MTI1LDU2Mi45Mzc1IFogTTQ4LjM3NSw1NjIuOTM3NSBMNTAuMTI1LDU2Mi45Mzc1IFE1MC4xMjUsNTYyLjkzNzUgNTAuMTI1LDU2MC4xMjUgTDQ4LjM3NSw1NjAuMTI1IFE0OC4zNzUsNTYwLjEyNSA0OC4zNzUsNTYyLjkzNzUgWiBNNDguMzc1LDU1My43NSBRNDguMzc1LDU1My43NSA0OC4zNzUsNTU2LjU2MjUgTDUwLjEyNSw1NTYuNTYyNSBRNTAuMTI1LDU1Ni41NjI1IDUwLjEyNSw1NTMuNzUgTDQ4LjM3NSw1NTMuNzUgWiBNNDQuMTI1LDU1NC40Mzc1IEw0OS4wNjI1LDU1NC40Mzc1IEw0OS4wNjI1LDU1Mi42ODc1IEw0NC4xMjUsNTUyLjY4NzUgTDQ0LjEyNSw1NTQuNDM3NSBaICIgZmlsbD0iIzAwMDAwMCIvPjx0ZXh0IGZpbGw9IiMwMDAwMDAiIGZvbnQtZmFtaWx5PSJzYW5zLXNlcmlmIiBmb250LXNpemU9IjE0IiBsZW5ndGhBZGp1c3Q9InNwYWNpbmciIHRleHRMZW5ndGg9IjEwNSIgeD0iNjAuNSIgeT0iNTYzLjc0MjIiPlByb2R1Y3RJblJhdGluZzwvdGV4dD48bGluZSBzdHlsZT0ic3Ryb2tlOiMxODE4MTg7c3Ryb2tlLXdpZHRoOjAuNTsiIHgxPSIzMi41IiB4Mj0iMTY3LjUiIHkxPSI1NzQiIHkyPSI1NzQiLz48cmVjdCBmaWxsPSJub25lIiBoZWlnaHQ9IjYiIHN0eWxlPSJzdHJva2U6IzU5NTk1OTtzdHJva2Utd2lkdGg6MTsiIHdpZHRoPSI2IiB4PSIzOS41IiB5PSI1ODMuOTkyMiIvPjx0ZXh0IGZpbGw9IiMwMDAwMDAiIGZvbnQtZmFtaWx5PSJzYW5zLXNlcmlmIiBmb250LXNpemU9IjE0IiBsZW5ndGhBZGp1c3Q9InNwYWNpbmciIHRleHRMZW5ndGg9IjM1IiB4PSI1MS41IiB5PSI1OTEuMjM0NCI+TSYjMjQ0O190JiM3ODQzOzwvdGV4dD48bGluZSBzdHlsZT0ic3Ryb2tlOiMxODE4MTg7c3Ryb2tlLXdpZHRoOjAuNTsiIHgxPSIzMi41IiB4Mj0iMTY3LjUiIHkxPSI1OTYuOTg0NCIgeTI9IjU5Ni45ODQ0Ii8+PC9nPjwhLS1jbGFzcyBSYXRpbmctLT48ZyBjbGFzcz0iZW50aXR5IiBkYXRhLWVudGl0eT0iUmF0aW5nIiBkYXRhLXNvdXJjZS1saW5lPSIzMyIgZGF0YS11aWQ9ImVudDAwMDgiIGlkPSJlbnRpdHlfUmF0aW5nIj48cmVjdCBmaWxsPSIjRjFGMUYxIiBoZWlnaHQ9IjEzNy45MDYzIiByeD0iMi41IiByeT0iMi41IiBzdHlsZT0ic3Ryb2tlOiMxODE4MTg7c3Ryb2tlLXdpZHRoOjAuNTsiIHdpZHRoPSIxNTIiIHg9IjEyNCIgeT0iMzI5Ii8+PGVsbGlwc2UgY3g9IjE3NC43NSIgY3k9IjM0NSIgZmlsbD0iI0MyQzJDMiIgcng9IjExIiByeT0iMTEiIHN0eWxlPSJzdHJva2U6IzE4MTgxODtzdHJva2Utd2lkdGg6MTsiLz48cGF0aCBkPSJNMTcyLjM3NSwzNDkuMjUgTDE3Mi4zNzUsMzUxIEwxNzcuMzEyNSwzNTEgTDE3Ny4zMTI1LDM0OS4yNSBMMTcyLjM3NSwzNDkuMjUgWiBNMTczLjA2MjUsMzQ5LjkzNzUgUTE3My4wNjI1LDM0OS45Mzc1IDE3My4wNjI1LDM0MC43NSBMMTcxLjMxMjUsMzQwLjc1IFExNzEuMzEyNSwzNDAuNzUgMTcxLjMxMjUsMzQ5LjkzNzUgTDE3My4wNjI1LDM0OS45Mzc1IFogTTE3Ni42MjUsMzQ5LjkzNzUgTDE3OC4zNzUsMzQ5LjkzNzUgUTE3OC4zNzUsMzQ5LjkzNzUgMTc4LjM3NSwzNDcuMTI1IEwxNzYuNjI1LDM0Ny4xMjUgUTE3Ni42MjUsMzQ3LjEyNSAxNzYuNjI1LDM0OS45Mzc1IFogTTE3Ni42MjUsMzQwLjc1IFExNzYuNjI1LDM0MC43NSAxNzYuNjI1LDM0My41NjI1IEwxNzguMzc1LDM0My41NjI1IFExNzguMzc1LDM0My41NjI1IDE3OC4zNzUsMzQwLjc1IEwxNzYuNjI1LDM0MC43NSBaIE0xNzIuMzc1LDM0MS40Mzc1IEwxNzcuMzEyNSwzNDEuNDM3NSBMMTc3LjMxMjUsMzM5LjY4NzUgTDE3Mi4zNzUsMzM5LjY4NzUgTDE3Mi4zNzUsMzQxLjQzNzUgWiAiIGZpbGw9IiMwMDAwMDAiLz48dGV4dCBmaWxsPSIjMDAwMDAwIiBmb250LWZhbWlseT0ic2Fucy1zZXJpZiIgZm9udC1zaXplPSIxNCIgbGVuZ3RoQWRqdXN0PSJzcGFjaW5nIiB0ZXh0TGVuZ3RoPSI0MiIgeD0iMTk1LjI1IiB5PSIzNTAuNzQyMiI+UmF0aW5nPC90ZXh0PjxsaW5lIHN0eWxlPSJzdHJva2U6IzE4MTgxODtzdHJva2Utd2lkdGg6MC41OyIgeDE9IjEyNSIgeDI9IjI3NSIgeTE9IjM2MSIgeTI9IjM2MSIvPjxyZWN0IGZpbGw9Im5vbmUiIGhlaWdodD0iNiIgc3R5bGU9InN0cm9rZTojNTk1OTU5O3N0cm9rZS13aWR0aDoxOyIgd2lkdGg9IjYiIHg9IjEzMiIgeT0iMzcwLjk5MjIiLz48dGV4dCBmaWxsPSIjMDAwMDAwIiBmb250LWZhbWlseT0ic2Fucy1zZXJpZiIgZm9udC1zaXplPSIxNCIgbGVuZ3RoQWRqdXN0PSJzcGFjaW5nIiB0ZXh0TGVuZ3RoPSIxNCIgeD0iMTQ0IiB5PSIzNzguMjM0NCI+SUQ8L3RleHQ+PHJlY3QgZmlsbD0ibm9uZSIgaGVpZ2h0PSI2IiBzdHlsZT0ic3Ryb2tlOiM1OTU5NTk7c3Ryb2tlLXdpZHRoOjE7IiB3aWR0aD0iNiIgeD0iMTMyIiB5PSIzODUuOTc2NiIvPjx0ZXh0IGZpbGw9IiMwMDAwMDAiIGZvbnQtZmFtaWx5PSJzYW5zLXNlcmlmIiBmb250LXNpemU9IjE0IiBsZW5ndGhBZGp1c3Q9InNwYWNpbmciIHRleHRMZW5ndGg9IjQyIiB4PSIxNDQiIHk9IjM5My4yMTg4Ij5TJiM3ODg5O19zYW88L3RleHQ+PHJlY3QgZmlsbD0ibm9uZSIgaGVpZ2h0PSI2IiBzdHlsZT0ic3Ryb2tlOiM1OTU5NTk7c3Ryb2tlLXdpZHRoOjE7IiB3aWR0aD0iNiIgeD0iMTMyIiB5PSI0MDAuOTYwOSIvPjx0ZXh0IGZpbGw9IiMwMDAwMDAiIGZvbnQtZmFtaWx5PSJzYW5zLXNlcmlmIiBmb250LXNpemU9IjE0IiBsZW5ndGhBZGp1c3Q9InNwYWNpbmciIHRleHRMZW5ndGg9IjYzIiB4PSIxNDQiIHk9IjQwOC4yMDMxIj5CJiMyMzY7bmhfbHUmIzc4NTM7bjwvdGV4dD48cmVjdCBmaWxsPSJub25lIiBoZWlnaHQ9IjYiIHN0eWxlPSJzdHJva2U6IzU5NTk1OTtzdHJva2Utd2lkdGg6MTsiIHdpZHRoPSI2IiB4PSIxMzIiIHk9IjQxNS45NDUzIi8+PHRleHQgZmlsbD0iIzAwMDAwMCIgZm9udC1mYW1pbHk9InNhbnMtc2VyaWYiIGZvbnQtc2l6ZT0iMTQiIGxlbmd0aEFkanVzdD0ic3BhY2luZyIgdGV4dExlbmd0aD0iOTEiIHg9IjE0NCIgeT0iNDIzLjE4NzUiPk5nJiMyMjQ7eV8mIzI3MzsmIzIyNTtuaF9naSYjMjI1OzwvdGV4dD48cmVjdCBmaWxsPSJub25lIiBoZWlnaHQ9IjYiIHN0eWxlPSJzdHJva2U6IzU5NTk1OTtzdHJva2Utd2lkdGg6MTsiIHdpZHRoPSI2IiB4PSIxMzIiIHk9IjQzMC45Mjk3Ii8+PHRleHQgZmlsbD0iIzAwMDAwMCIgZm9udC1mYW1pbHk9InNhbnMtc2VyaWYiIGZvbnQtc2l6ZT0iMTQiIGxlbmd0aEFkanVzdD0ic3BhY2luZyIgdGV4dExlbmd0aD0iNTYiIHg9IjE0NCIgeT0iNDM4LjE3MTkiPkJ1eWVyX0lEPC90ZXh0PjxyZWN0IGZpbGw9Im5vbmUiIGhlaWdodD0iNiIgc3R5bGU9InN0cm9rZTojNTk1OTU5O3N0cm9rZS13aWR0aDoxOyIgd2lkdGg9IjYiIHg9IjEzMiIgeT0iNDQ1LjkxNDEiLz48dGV4dCBmaWxsPSIjMDAwMDAwIiBmb250LWZhbWlseT0ic2Fucy1zZXJpZiIgZm9udC1zaXplPSIxNCIgbGVuZ3RoQWRqdXN0PSJzcGFjaW5nIiB0ZXh0TGVuZ3RoPSIxMjYiIHg9IjE0NCIgeT0iNDUzLjE1NjMiPlByb2R1Y3RJblJhdGluZ19JRDwvdGV4dD48bGluZSBzdHlsZT0ic3Ryb2tlOiMxODE4MTg7c3Ryb2tlLXdpZHRoOjAuNTsiIHgxPSIxMjUiIHgyPSIyNzUiIHkxPSI0NTguOTA2MyIgeTI9IjQ1OC45MDYzIi8+PC9nPjxnIGNsYXNzPSJlbnRpdHkiIGRhdGEtZW50aXR5PSJHTU4xMSIgZGF0YS1zb3VyY2UtbGluZT0iNDgiIGRhdGEtdWlkPSJlbnQwMDEyIiBpZD0iZW50aXR5X0dNTjExIj48cGF0aCBkPSJNMTYxLjUsNDEuNSBMMTYxLjUsNjUuNDE0MSBBMCwwIDAgMCAwIDE2MS41LDY1LjQxNDEgTDMwMi4zNiw2NS40MTQxIEwyMzQuNjIsMTYwLjc0IEwzMTAuMzYsNjUuNDE0MSBMNDY4LjUsNjUuNDE0MSBBMCwwIDAgMCAwIDQ2OC41LDY1LjQxNDEgTDQ2OC41LDUxLjUgTDQ1OC41LDQxLjUgTDE2MS41LDQxLjUgQTAsMCAwIDAgMCAxNjEuNSw0MS41IiBmaWxsPSIjRkFGQUZBIiBzdHlsZT0ic3Ryb2tlOiMxODE4MTg7c3Ryb2tlLXdpZHRoOjAuNTsiLz48cGF0aCBkPSJNNDU4LjUsNDEuNSBMNDU4LjUsNTEuNSBMNDY4LjUsNTEuNSBMNDU4LjUsNDEuNSIgZmlsbD0iI0ZBRkFGQSIgc3R5bGU9InN0cm9rZTojMTgxODE4O3N0cm9rZS13aWR0aDowLjU7Ii8+PHRleHQgZmlsbD0iIzAwMDAwMCIgZm9udC1mYW1pbHk9InNhbnMtc2VyaWYiIGZvbnQtc2l6ZT0iMTMiIGxlbmd0aEFkanVzdD0ic3BhY2luZyIgdGV4dExlbmd0aD0iMjg2IiB4PSIxNjcuNSIgeT0iNTguNzg5MSI+TmcmIzQzMjsmIzc5MDE7aSBtdWEgY2gmIzc4ODE7IHQmIzc4NDE7byBSYXRpbmcgY2hvIHMmIzc4NDM7biBwaCYjNzg0OTttICYjMjczOyYjMjI3OyBtdWE8L3RleHQ+PC9nPjwhLS1yZXZlcnNlIGxpbmsgVXNlciB0byBCdXllci0tPjxnIGNsYXNzPSJsaW5rIiBkYXRhLWVudGl0eS0xPSJVc2VyIiBkYXRhLWVudGl0eS0yPSJCdXllciIgZGF0YS1zb3VyY2UtbGluZT0iMTkiIGRhdGEtdWlkPSJsbms1IiBpZD0ibGlua19Vc2VyX0J1eWVyIj48cGF0aCBjb2RlTGluZT0iMTkiIGQ9Ik0xMzEuMDAzNiwxMTQuNTA3MyBDMTQ1LjQzMzYsMTMzLjczNzMgMTUxLjM5LDE0MS42OSAxNjUuODIsMTYwLjkzIiBmaWxsPSJub25lIiBpZD0iVXNlci1iYWNrdG8tQnV5ZXIiIHN0eWxlPSJzdHJva2U6IzE4MTgxODtzdHJva2Utd2lkdGg6MTsiLz48cG9seWdvbiBmaWxsPSJub25lIiBwb2ludHM9IjEyMC4yLDEwMC4xMSwxMjYuMjA0NSwxMTguMTA4NSwxMzUuODAyNywxMTAuOTA2MSwxMjAuMiwxMDAuMTEiIHN0eWxlPSJzdHJva2U6IzE4MTgxODtzdHJva2Utd2lkdGg6MTsiLz48L2c+PCEtLXJldmVyc2UgbGluayBQcm9kdWN0IHRvIFByb2R1Y3RJblJhdGluZy0tPjxnIGNsYXNzPSJsaW5rIiBkYXRhLWVudGl0eS0xPSJQcm9kdWN0IiBkYXRhLWVudGl0eS0yPSJQcm9kdWN0SW5SYXRpbmciIGRhdGEtc291cmNlLWxpbmU9IjI3IiBkYXRhLXVpZD0ibG5rNyIgaWQ9ImxpbmtfUHJvZHVjdF9Qcm9kdWN0SW5SYXRpbmciPjxwYXRoIGNvZGVMaW5lPSIyNyIgZD0iTTY5LjE5NjMsNDY5LjcxMjYgQzc3Ljk5NjMsNDk5LjA4MjYgODMuNDMsNTE3LjIyIDkwLjg0LDU0MS45MiIgZmlsbD0ibm9uZSIgaWQ9IlByb2R1Y3QtYmFja3RvLVByb2R1Y3RJblJhdGluZyIgc3R5bGU9InN0cm9rZTojMTgxODE4O3N0cm9rZS13aWR0aDoxOyIvPjxwb2x5Z29uIGZpbGw9Im5vbmUiIHBvaW50cz0iNjQuMDMsNDUyLjQ3LDYzLjQ0ODgsNDcxLjQzNDgsNzQuOTQzOSw0NjcuOTkwNSw2NC4wMyw0NTIuNDciIHN0eWxlPSJzdHJva2U6IzE4MTgxODtzdHJva2Utd2lkdGg6MTsiLz48L2c+PCEtLWxpbmsgUmF0aW5nIHRvIFByb2R1Y3RJblJhdGluZy0tPjxnIGNsYXNzPSJsaW5rIiBkYXRhLWVudGl0eS0xPSJSYXRpbmciIGRhdGEtZW50aXR5LTI9IlByb2R1Y3RJblJhdGluZyIgZGF0YS1zb3VyY2UtbGluZT0iNDQiIGRhdGEtdWlkPSJsbms5IiBpZD0ibGlua19SYXRpbmdfUHJvZHVjdEluUmF0aW5nIj48cGF0aCBjb2RlTGluZT0iNDQiIGQ9Ik0xNjAuNzYsNDY3LjA3IEMxNDUuODgsNDkyLjkgMTI5LjY2LDUyMS4wNCAxMTcuNzMsNTQxLjc0IiBmaWxsPSJub25lIiBpZD0iUmF0aW5nLVByb2R1Y3RJblJhdGluZyIgc3R5bGU9InN0cm9rZTojMTgxODE4O3N0cm9rZS13aWR0aDoxOyIvPjx0ZXh0IGZpbGw9IiMwMDAwMDAiIGZvbnQtZmFtaWx5PSJzYW5zLXNlcmlmIiBmb250LXNpemU9IjEzIiBsZW5ndGhBZGp1c3Q9InNwYWNpbmciIHRleHRMZW5ndGg9IjEzIiB4PSIxNDIiIHk9IjUxMC4yODkxIj5jJiMyNDM7PC90ZXh0Pjx0ZXh0IGZpbGw9IiMwMDAwMDAiIGZvbnQtZmFtaWx5PSJzYW5zLXNlcmlmIiBmb250LXNpemU9IjEzIiBsZW5ndGhBZGp1c3Q9InNwYWNpbmciIHRleHRMZW5ndGg9IjMyLjUiIHg9IjEyMy4wODkyIiB5PSI0ODcuMjA0MiI+MC4uLio8L3RleHQ+PHRleHQgZmlsbD0iIzAwMDAwMCIgZm9udC1mYW1pbHk9InNhbnMtc2VyaWYiIGZvbnQtc2l6ZT0iMTMiIGxlbmd0aEFkanVzdD0ic3BhY2luZyIgdGV4dExlbmd0aD0iMzIuNSIgeD0iODYuMTg3OSIgeT0iNTMyLjI4ODkiPjAuLi4qPC90ZXh0PjwvZz48IS0tbGluayBCdXllciB0byBSYXRpbmctLT48ZyBjbGFzcz0ibGluayIgZGF0YS1lbnRpdHktMT0iQnV5ZXIiIGRhdGEtZW50aXR5LTI9IlJhdGluZyIgZGF0YS1zb3VyY2UtbGluZT0iNDUiIGRhdGEtdWlkPSJsbmsxMCIgaWQ9ImxpbmtfQnV5ZXJfUmF0aW5nIj48cGF0aCBjb2RlTGluZT0iNDUiIGQ9Ik0yMDAsMjU0LjEzIEMyMDAsMjc2LjU4IDIwMCwzMDQuMDkgMjAwLDMyOC45NiIgZmlsbD0ibm9uZSIgaWQ9IkJ1eWVyLVJhdGluZyIgc3R5bGU9InN0cm9rZTojMTgxODE4O3N0cm9rZS13aWR0aDoxOyIvPjx0ZXh0IGZpbGw9IiMwMDAwMDAiIGZvbnQtZmFtaWx5PSJzYW5zLXNlcmlmIiBmb250LXNpemU9IjEzIiBsZW5ndGhBZGp1c3Q9InNwYWNpbmciIHRleHRMZW5ndGg9IjE5LjUiIHg9IjIwMSIgeT0iMjk3LjI4OTEiPnQmIzc4NDE7bzwvdGV4dD48dGV4dCBmaWxsPSIjMDAwMDAwIiBmb250LWZhbWlseT0ic2Fucy1zZXJpZiIgZm9udC1zaXplPSIxMyIgbGVuZ3RoQWRqdXN0PSJzcGFjaW5nIiB0ZXh0TGVuZ3RoPSI2LjUiIHg9IjE5My41OTYxIiB5PSIyNzQuMjkzMSI+MTwvdGV4dD48dGV4dCBmaWxsPSIjMDAwMDAwIiBmb250LWZhbWlseT0ic2Fucy1zZXJpZiIgZm9udC1zaXplPSIxMyIgbGVuZ3RoQWRqdXN0PSJzcGFjaW5nIiB0ZXh0TGVuZ3RoPSIyNiIgeD0iMTcyLjQ5NjkiIHk9IjMxOS41NzMiPjEuLio8L3RleHQ+PC9nPjwhLS1TUkM9W1ZMQXhKaUNtNUR0ejVMVFRVQWFMTkg0SkFXQTRNWTVRdmlXbzhPZFFzMkxuWFdnTzYxMFJWMDBJNU1CVzlPNVdJV1E2TEZvN191SmhIcjAzNGZFbHhVRHg3alZmQ0U5WmNqME9PaTQ1Mm5DSC1vMkpwMlRhMEdRWEFqdU9JNXBFR1FoWTJLNjdzU1k3M2tLWG5BZ3VQdjJnXzh4M0U1SnZHcXBPWUFPZngyTThPWDlFMjQwSlRaZmM2UElGdDFIUktKYXJuTlJ2cDRERkZtXzlzUnpxa242VW45MkFTWWdyazBhbWJSLUM3VHIxd1lUcmhpc09IWURKVEg0ZGxRNU1icmNJTmwzcmdlZ1IyRUFDbWIzYmR1UmxZTGYydE9rT1hra2RwSVBpUDFGU01uZkpFdnVWQ3RyTE43a3BRekh0bUpxUDJmTEY4eG5PV0c1TTBjX0FBTmVDcUZCWWFrTmxwLU01TldHRkFmVXBBbXE2M1Z1aHA2TEFnY29ERkJWUHVWaktIWm9lbnItVEVpZFR5aUVKbzZyTHIxeEtTMnYyT29vYm1jbXNwQUg2Nk9QZlJWVTJ5ZE9veHl4MlQ0QVVRXzFCWEp1c3A1cmk3QzVuSFpjV2xHajI3N2paalRMZ0JKUzBSTE5iUm9EaG1DZnRPa1ZHUTVqZXNvMV8wNUI3SldXTjRkLW42OEN1U1pFNC1rMFBTYnpRVEZNT1hRQnNjRzdqdE1hbXlWYVh3OHhWXS0tPjwvZz48L3N2Zz4=;" vertex="1" parent="1">
            <mxGeometry x="1605" y="940" width="475" height="611" as="geometry" />
          </mxCell>
        </UserObject>
        <mxCell id="uVMDQoxGMwyd6C8O165r-13" value="&lt;font style=&quot;font-size: 18px;&quot;&gt;&lt;b style=&quot;&quot;&gt;Đánh giá&lt;/b&gt;&lt;/font&gt;" style="text;html=1;align=center;verticalAlign=middle;whiteSpace=wrap;rounded=0;" vertex="1" parent="1">
          <mxGeometry x="1722.5" y="880" width="200" height="30" as="geometry" />
        </mxCell>
        <UserObject label="" plantUmlData="{&quot;data&quot;:&quot;@startuml\nskinparam monochrome true\n\n\n&#39; Thực thể từ module Quy trình thanh toán\nclass Payment {\n  - ID\n  - Tổng_tiền\n  - Thời_gian\n  - PaymentStatus_ID\n  - Địa_chỉ_giao\n  - Danh_sách_sản_phẩm\n  - Tên_người_mua\n  - Số_điện_thoại\n}\n\n&#39; Info Thanh toán kế thừa từ Payment\nPayment &lt;|-- PaymentInfo\nclass PaymentInfo {\n  - PaymentMethod_ID\n}\n\n&#39; Order\nclass Order {\n  - ID\n  - Danh_sách_sản_phẩm\n  - Tổng_chi_phí\n  - Trạng_thái\n  - Địa_chỉ_giao\n  - Tên_người_mua\n  - Số_điện_thoại\n  - Ngày_đặt\n  + Cập_nhật_trạng_thái()\n}\n\n&#39; Mối quan hệ\nOrder \&quot;1\&quot; -- \&quot;1\&quot; PaymentInfo\n\nnote top of Order\n  Order được tạo từ thông tin Thanh toán sau khi hoàn tất\nend note\n\nnote top of Payment\n  Thông tin Người mua (tên, số điện thoại, địa chỉ) được nhập trong Quy trình thanh toán\nend note\n@enduml&quot;,&quot;format&quot;:&quot;svg&quot;}" id="hOMp0XotWCSOrfg5AZzA-1">
          <mxCell style="shape=image;noLabel=1;verticalAlign=top;aspect=fixed;imageAspect=0;image=data:image/svg+xml,PHN2ZyB4bWxucz0iaHR0cDovL3d3dy53My5vcmcvMjAwMC9zdmciIHhtbG5zOnhsaW5rPSJodHRwOi8vd3d3LnczLm9yZy8xOTk5L3hsaW5rIiBjb250ZW50U3R5bGVUeXBlPSJ0ZXh0L2NzcyIgZGF0YS1kaWFncmFtLXR5cGU9IkNMQVNTIiBoZWlnaHQ9IjQwMnB4IiBwcmVzZXJ2ZUFzcGVjdFJhdGlvPSJub25lIiBzdHlsZT0id2lkdGg6MTAwNnB4O2hlaWdodDo0MDJweDtiYWNrZ3JvdW5kOiNGRkZGRkY7IiB2ZXJzaW9uPSIxLjEiIHZpZXdCb3g9IjAgMCAxMDA2IDQwMiIgd2lkdGg9IjEwMDZweCIgem9vbUFuZFBhbj0ibWFnbmlmeSI+PGRlZnMvPjxnPjwhLS1jbGFzcyBQYXltZW50LS0+PGcgY2xhc3M9ImVudGl0eSIgZGF0YS1lbnRpdHk9IlBheW1lbnQiIGRhdGEtc291cmNlLWxpbmU9IjUiIGRhdGEtdWlkPSJlbnQwMDAyIiBpZD0iZW50aXR5X1BheW1lbnQiPjxyZWN0IGZpbGw9IiNGMUYxRjEiIGhlaWdodD0iMTY3Ljg3NSIgcng9IjIuNSIgcnk9IjIuNSIgc3R5bGU9InN0cm9rZTojMTgxODE4O3N0cm9rZS13aWR0aDowLjU7IiB3aWR0aD0iMTUyIiB4PSI1NTQiIHk9Ijk3LjUiLz48ZWxsaXBzZSBjeD0iNjAxLjI1IiBjeT0iMTEzLjUiIGZpbGw9IiNDMkMyQzIiIHJ4PSIxMSIgcnk9IjExIiBzdHlsZT0ic3Ryb2tlOiMxODE4MTg7c3Ryb2tlLXdpZHRoOjE7Ii8+PHBhdGggZD0iTTU5OC44NzUsMTE3Ljc1IEw1OTguODc1LDExOS41IEw2MDMuODEyNSwxMTkuNSBMNjAzLjgxMjUsMTE3Ljc1IEw1OTguODc1LDExNy43NSBaIE01OTkuNTYyNSwxMTguNDM3NSBRNTk5LjU2MjUsMTE4LjQzNzUgNTk5LjU2MjUsMTA5LjI1IEw1OTcuODEyNSwxMDkuMjUgUTU5Ny44MTI1LDEwOS4yNSA1OTcuODEyNSwxMTguNDM3NSBMNTk5LjU2MjUsMTE4LjQzNzUgWiBNNjAzLjEyNSwxMTguNDM3NSBMNjA0Ljg3NSwxMTguNDM3NSBRNjA0Ljg3NSwxMTguNDM3NSA2MDQuODc1LDExNS42MjUgTDYwMy4xMjUsMTE1LjYyNSBRNjAzLjEyNSwxMTUuNjI1IDYwMy4xMjUsMTE4LjQzNzUgWiBNNjAzLjEyNSwxMDkuMjUgUTYwMy4xMjUsMTA5LjI1IDYwMy4xMjUsMTEyLjA2MjUgTDYwNC44NzUsMTEyLjA2MjUgUTYwNC44NzUsMTEyLjA2MjUgNjA0Ljg3NSwxMDkuMjUgTDYwMy4xMjUsMTA5LjI1IFogTTU5OC44NzUsMTA5LjkzNzUgTDYwMy44MTI1LDEwOS45Mzc1IEw2MDMuODEyNSwxMDguMTg3NSBMNTk4Ljg3NSwxMDguMTg3NSBMNTk4Ljg3NSwxMDkuOTM3NSBaICIgZmlsbD0iIzAwMDAwMCIvPjx0ZXh0IGZpbGw9IiMwMDAwMDAiIGZvbnQtZmFtaWx5PSJzYW5zLXNlcmlmIiBmb250LXNpemU9IjE0IiBsZW5ndGhBZGp1c3Q9InNwYWNpbmciIHRleHRMZW5ndGg9IjQ5IiB4PSI2MjEuNzUiIHk9IjExOS4yNDIyIj5QYXltZW50PC90ZXh0PjxsaW5lIHN0eWxlPSJzdHJva2U6IzE4MTgxODtzdHJva2Utd2lkdGg6MC41OyIgeDE9IjU1NSIgeDI9IjcwNSIgeTE9IjEyOS41IiB5Mj0iMTI5LjUiLz48cmVjdCBmaWxsPSJub25lIiBoZWlnaHQ9IjYiIHN0eWxlPSJzdHJva2U6IzU5NTk1OTtzdHJva2Utd2lkdGg6MTsiIHdpZHRoPSI2IiB4PSI1NjIiIHk9IjEzOS40OTIyIi8+PHRleHQgZmlsbD0iIzAwMDAwMCIgZm9udC1mYW1pbHk9InNhbnMtc2VyaWYiIGZvbnQtc2l6ZT0iMTQiIGxlbmd0aEFkanVzdD0ic3BhY2luZyIgdGV4dExlbmd0aD0iMTQiIHg9IjU3NCIgeT0iMTQ2LjczNDQiPklEPC90ZXh0PjxyZWN0IGZpbGw9Im5vbmUiIGhlaWdodD0iNiIgc3R5bGU9InN0cm9rZTojNTk1OTU5O3N0cm9rZS13aWR0aDoxOyIgd2lkdGg9IjYiIHg9IjU2MiIgeT0iMTU0LjQ3NjYiLz48dGV4dCBmaWxsPSIjMDAwMDAwIiBmb250LWZhbWlseT0ic2Fucy1zZXJpZiIgZm9udC1zaXplPSIxNCIgbGVuZ3RoQWRqdXN0PSJzcGFjaW5nIiB0ZXh0TGVuZ3RoPSI2MyIgeD0iNTc0IiB5PSIxNjEuNzE4OCI+VCYjNzg5MztuZ190aSYjNzg3MztuPC90ZXh0PjxyZWN0IGZpbGw9Im5vbmUiIGhlaWdodD0iNiIgc3R5bGU9InN0cm9rZTojNTk1OTU5O3N0cm9rZS13aWR0aDoxOyIgd2lkdGg9IjYiIHg9IjU2MiIgeT0iMTY5LjQ2MDkiLz48dGV4dCBmaWxsPSIjMDAwMDAwIiBmb250LWZhbWlseT0ic2Fucy1zZXJpZiIgZm9udC1zaXplPSIxNCIgbGVuZ3RoQWRqdXN0PSJzcGFjaW5nIiB0ZXh0TGVuZ3RoPSI2MyIgeD0iNTc0IiB5PSIxNzYuNzAzMSI+VGgmIzc5MDE7aV9naWFuPC90ZXh0PjxyZWN0IGZpbGw9Im5vbmUiIGhlaWdodD0iNiIgc3R5bGU9InN0cm9rZTojNTk1OTU5O3N0cm9rZS13aWR0aDoxOyIgd2lkdGg9IjYiIHg9IjU2MiIgeT0iMTg0LjQ0NTMiLz48dGV4dCBmaWxsPSIjMDAwMDAwIiBmb250LWZhbWlseT0ic2Fucy1zZXJpZiIgZm9udC1zaXplPSIxNCIgbGVuZ3RoQWRqdXN0PSJzcGFjaW5nIiB0ZXh0TGVuZ3RoPSIxMTIiIHg9IjU3NCIgeT0iMTkxLjY4NzUiPlBheW1lbnRTdGF0dXNfSUQ8L3RleHQ+PHJlY3QgZmlsbD0ibm9uZSIgaGVpZ2h0PSI2IiBzdHlsZT0ic3Ryb2tlOiM1OTU5NTk7c3Ryb2tlLXdpZHRoOjE7IiB3aWR0aD0iNiIgeD0iNTYyIiB5PSIxOTkuNDI5NyIvPjx0ZXh0IGZpbGw9IiMwMDAwMDAiIGZvbnQtZmFtaWx5PSJzYW5zLXNlcmlmIiBmb250LXNpemU9IjE0IiBsZW5ndGhBZGp1c3Q9InNwYWNpbmciIHRleHRMZW5ndGg9Ijg0IiB4PSI1NzQiIHk9IjIwNi42NzE5Ij4mIzI3MjsmIzc4ODM7YV9jaCYjNzg4MTtfZ2lhbzwvdGV4dD48cmVjdCBmaWxsPSJub25lIiBoZWlnaHQ9IjYiIHN0eWxlPSJzdHJva2U6IzU5NTk1OTtzdHJva2Utd2lkdGg6MTsiIHdpZHRoPSI2IiB4PSI1NjIiIHk9IjIxNC40MTQxIi8+PHRleHQgZmlsbD0iIzAwMDAwMCIgZm9udC1mYW1pbHk9InNhbnMtc2VyaWYiIGZvbnQtc2l6ZT0iMTQiIGxlbmd0aEFkanVzdD0ic3BhY2luZyIgdGV4dExlbmd0aD0iMTI2IiB4PSI1NzQiIHk9IjIyMS42NTYzIj5EYW5oX3MmIzIyNTtjaF9zJiM3ODQzO25fcGgmIzc4NDk7bTwvdGV4dD48cmVjdCBmaWxsPSJub25lIiBoZWlnaHQ9IjYiIHN0eWxlPSJzdHJva2U6IzU5NTk1OTtzdHJva2Utd2lkdGg6MTsiIHdpZHRoPSI2IiB4PSI1NjIiIHk9IjIyOS4zOTg0Ii8+PHRleHQgZmlsbD0iIzAwMDAwMCIgZm9udC1mYW1pbHk9InNhbnMtc2VyaWYiIGZvbnQtc2l6ZT0iMTQiIGxlbmd0aEFkanVzdD0ic3BhY2luZyIgdGV4dExlbmd0aD0iOTEiIHg9IjU3NCIgeT0iMjM2LjY0MDYiPlQmIzIzNDtuX25nJiM0MzI7JiM3OTAxO2lfbXVhPC90ZXh0PjxyZWN0IGZpbGw9Im5vbmUiIGhlaWdodD0iNiIgc3R5bGU9InN0cm9rZTojNTk1OTU5O3N0cm9rZS13aWR0aDoxOyIgd2lkdGg9IjYiIHg9IjU2MiIgeT0iMjQ0LjM4MjgiLz48dGV4dCBmaWxsPSIjMDAwMDAwIiBmb250LWZhbWlseT0ic2Fucy1zZXJpZiIgZm9udC1zaXplPSIxNCIgbGVuZ3RoQWRqdXN0PSJzcGFjaW5nIiB0ZXh0TGVuZ3RoPSI5MSIgeD0iNTc0IiB5PSIyNTEuNjI1Ij5TJiM3ODg5O18mIzI3MztpJiM3ODc5O25fdGhvJiM3ODQxO2k8L3RleHQ+PGxpbmUgc3R5bGU9InN0cm9rZTojMTgxODE4O3N0cm9rZS13aWR0aDowLjU7IiB4MT0iNTU1IiB4Mj0iNzA1IiB5MT0iMjU3LjM3NSIgeTI9IjI1Ny4zNzUiLz48L2c+PCEtLWNsYXNzIFBheW1lbnRJbmZvLS0+PGcgY2xhc3M9ImVudGl0eSIgZGF0YS1lbnRpdHk9IlBheW1lbnRJbmZvIiBkYXRhLXNvdXJjZS1saW5lPSIxNyIgZGF0YS11aWQ9ImVudDAwMDMiIGlkPSJlbnRpdHlfUGF5bWVudEluZm8iPjxyZWN0IGZpbGw9IiNGMUYxRjEiIGhlaWdodD0iNjIuOTg0NCIgcng9IjIuNSIgcnk9IjIuNSIgc3R5bGU9InN0cm9rZTojMTgxODE4O3N0cm9rZS13aWR0aDowLjU7IiB3aWR0aD0iMTM4IiB4PSIzODMiIHk9IjMzMyIvPjxlbGxpcHNlIGN4PSI0MTEuMDUiIGN5PSIzNDkiIGZpbGw9IiNDMkMyQzIiIHJ4PSIxMSIgcnk9IjExIiBzdHlsZT0ic3Ryb2tlOiMxODE4MTg7c3Ryb2tlLXdpZHRoOjE7Ii8+PHBhdGggZD0iTTQwOC42NzUsMzUzLjI1IEw0MDguNjc1LDM1NSBMNDEzLjYxMjUsMzU1IEw0MTMuNjEyNSwzNTMuMjUgTDQwOC42NzUsMzUzLjI1IFogTTQwOS4zNjI1LDM1My45Mzc1IFE0MDkuMzYyNSwzNTMuOTM3NSA0MDkuMzYyNSwzNDQuNzUgTDQwNy42MTI1LDM0NC43NSBRNDA3LjYxMjUsMzQ0Ljc1IDQwNy42MTI1LDM1My45Mzc1IEw0MDkuMzYyNSwzNTMuOTM3NSBaIE00MTIuOTI1LDM1My45Mzc1IEw0MTQuNjc1LDM1My45Mzc1IFE0MTQuNjc1LDM1My45Mzc1IDQxNC42NzUsMzUxLjEyNSBMNDEyLjkyNSwzNTEuMTI1IFE0MTIuOTI1LDM1MS4xMjUgNDEyLjkyNSwzNTMuOTM3NSBaIE00MTIuOTI1LDM0NC43NSBRNDEyLjkyNSwzNDQuNzUgNDEyLjkyNSwzNDcuNTYyNSBMNDE0LjY3NSwzNDcuNTYyNSBRNDE0LjY3NSwzNDcuNTYyNSA0MTQuNjc1LDM0NC43NSBMNDEyLjkyNSwzNDQuNzUgWiBNNDA4LjY3NSwzNDUuNDM3NSBMNDEzLjYxMjUsMzQ1LjQzNzUgTDQxMy42MTI1LDM0My42ODc1IEw0MDguNjc1LDM0My42ODc1IEw0MDguNjc1LDM0NS40Mzc1IFogIiBmaWxsPSIjMDAwMDAwIi8+PHRleHQgZmlsbD0iIzAwMDAwMCIgZm9udC1mYW1pbHk9InNhbnMtc2VyaWYiIGZvbnQtc2l6ZT0iMTQiIGxlbmd0aEFkanVzdD0ic3BhY2luZyIgdGV4dExlbmd0aD0iNzciIHg9IjQyNy45NSIgeT0iMzU0Ljc0MjIiPlBheW1lbnRJbmZvPC90ZXh0PjxsaW5lIHN0eWxlPSJzdHJva2U6IzE4MTgxODtzdHJva2Utd2lkdGg6MC41OyIgeDE9IjM4NCIgeDI9IjUyMCIgeTE9IjM2NSIgeTI9IjM2NSIvPjxyZWN0IGZpbGw9Im5vbmUiIGhlaWdodD0iNiIgc3R5bGU9InN0cm9rZTojNTk1OTU5O3N0cm9rZS13aWR0aDoxOyIgd2lkdGg9IjYiIHg9IjM5MSIgeT0iMzc0Ljk5MjIiLz48dGV4dCBmaWxsPSIjMDAwMDAwIiBmb250LWZhbWlseT0ic2Fucy1zZXJpZiIgZm9udC1zaXplPSIxNCIgbGVuZ3RoQWRqdXN0PSJzcGFjaW5nIiB0ZXh0TGVuZ3RoPSIxMTIiIHg9IjQwMyIgeT0iMzgyLjIzNDQiPlBheW1lbnRNZXRob2RfSUQ8L3RleHQ+PGxpbmUgc3R5bGU9InN0cm9rZTojMTgxODE4O3N0cm9rZS13aWR0aDowLjU7IiB4MT0iMzg0IiB4Mj0iNTIwIiB5MT0iMzg3Ljk4NDQiIHkyPSIzODcuOTg0NCIvPjwvZz48IS0tY2xhc3MgT3JkZXItLT48ZyBjbGFzcz0iZW50aXR5IiBkYXRhLWVudGl0eT0iT3JkZXIiIGRhdGEtc291cmNlLWxpbmU9IjIzIiBkYXRhLXVpZD0iZW50MDAwNSIgaWQ9ImVudGl0eV9PcmRlciI+PHJlY3QgZmlsbD0iI0YxRjFGMSIgaGVpZ2h0PSIxODIuODU5NCIgcng9IjIuNSIgcnk9IjIuNSIgc3R5bGU9InN0cm9rZTojMTgxODE4O3N0cm9rZS13aWR0aDowLjU7IiB3aWR0aD0iMTczIiB4PSIyNjYuNSIgeT0iOTAiLz48ZWxsaXBzZSBjeD0iMzMxLjI1IiBjeT0iMTA2IiBmaWxsPSIjQzJDMkMyIiByeD0iMTEiIHJ5PSIxMSIgc3R5bGU9InN0cm9rZTojMTgxODE4O3N0cm9rZS13aWR0aDoxOyIvPjxwYXRoIGQ9Ik0zMjguODc1LDExMC4yNSBMMzI4Ljg3NSwxMTIgTDMzMy44MTI1LDExMiBMMzMzLjgxMjUsMTEwLjI1IEwzMjguODc1LDExMC4yNSBaIE0zMjkuNTYyNSwxMTAuOTM3NSBRMzI5LjU2MjUsMTEwLjkzNzUgMzI5LjU2MjUsMTAxLjc1IEwzMjcuODEyNSwxMDEuNzUgUTMyNy44MTI1LDEwMS43NSAzMjcuODEyNSwxMTAuOTM3NSBMMzI5LjU2MjUsMTEwLjkzNzUgWiBNMzMzLjEyNSwxMTAuOTM3NSBMMzM0Ljg3NSwxMTAuOTM3NSBRMzM0Ljg3NSwxMTAuOTM3NSAzMzQuODc1LDEwOC4xMjUgTDMzMy4xMjUsMTA4LjEyNSBRMzMzLjEyNSwxMDguMTI1IDMzMy4xMjUsMTEwLjkzNzUgWiBNMzMzLjEyNSwxMDEuNzUgUTMzMy4xMjUsMTAxLjc1IDMzMy4xMjUsMTA0LjU2MjUgTDMzNC44NzUsMTA0LjU2MjUgUTMzNC44NzUsMTA0LjU2MjUgMzM0Ljg3NSwxMDEuNzUgTDMzMy4xMjUsMTAxLjc1IFogTTMyOC44NzUsMTAyLjQzNzUgTDMzMy44MTI1LDEwMi40Mzc1IEwzMzMuODEyNSwxMDAuNjg3NSBMMzI4Ljg3NSwxMDAuNjg3NSBMMzI4Ljg3NSwxMDIuNDM3NSBaICIgZmlsbD0iIzAwMDAwMCIvPjx0ZXh0IGZpbGw9IiMwMDAwMDAiIGZvbnQtZmFtaWx5PSJzYW5zLXNlcmlmIiBmb250LXNpemU9IjE0IiBsZW5ndGhBZGp1c3Q9InNwYWNpbmciIHRleHRMZW5ndGg9IjM1IiB4PSIzNTEuNzUiIHk9IjExMS43NDIyIj5PcmRlcjwvdGV4dD48bGluZSBzdHlsZT0ic3Ryb2tlOiMxODE4MTg7c3Ryb2tlLXdpZHRoOjAuNTsiIHgxPSIyNjcuNSIgeDI9IjQzOC41IiB5MT0iMTIyIiB5Mj0iMTIyIi8+PHJlY3QgZmlsbD0ibm9uZSIgaGVpZ2h0PSI2IiBzdHlsZT0ic3Ryb2tlOiM1OTU5NTk7c3Ryb2tlLXdpZHRoOjE7IiB3aWR0aD0iNiIgeD0iMjc0LjUiIHk9IjEzMS45OTIyIi8+PHRleHQgZmlsbD0iIzAwMDAwMCIgZm9udC1mYW1pbHk9InNhbnMtc2VyaWYiIGZvbnQtc2l6ZT0iMTQiIGxlbmd0aEFkanVzdD0ic3BhY2luZyIgdGV4dExlbmd0aD0iMTQiIHg9IjI4Ni41IiB5PSIxMzkuMjM0NCI+SUQ8L3RleHQ+PHJlY3QgZmlsbD0ibm9uZSIgaGVpZ2h0PSI2IiBzdHlsZT0ic3Ryb2tlOiM1OTU5NTk7c3Ryb2tlLXdpZHRoOjE7IiB3aWR0aD0iNiIgeD0iMjc0LjUiIHk9IjE0Ni45NzY2Ii8+PHRleHQgZmlsbD0iIzAwMDAwMCIgZm9udC1mYW1pbHk9InNhbnMtc2VyaWYiIGZvbnQtc2l6ZT0iMTQiIGxlbmd0aEFkanVzdD0ic3BhY2luZyIgdGV4dExlbmd0aD0iMTI2IiB4PSIyODYuNSIgeT0iMTU0LjIxODgiPkRhbmhfcyYjMjI1O2NoX3MmIzc4NDM7bl9waCYjNzg0OTttPC90ZXh0PjxyZWN0IGZpbGw9Im5vbmUiIGhlaWdodD0iNiIgc3R5bGU9InN0cm9rZTojNTk1OTU5O3N0cm9rZS13aWR0aDoxOyIgd2lkdGg9IjYiIHg9IjI3NC41IiB5PSIxNjEuOTYwOSIvPjx0ZXh0IGZpbGw9IiMwMDAwMDAiIGZvbnQtZmFtaWx5PSJzYW5zLXNlcmlmIiBmb250LXNpemU9IjE0IiBsZW5ndGhBZGp1c3Q9InNwYWNpbmciIHRleHRMZW5ndGg9Ijg0IiB4PSIyODYuNSIgeT0iMTY5LjIwMzEiPlQmIzc4OTM7bmdfY2hpX3BoJiMyMzc7PC90ZXh0PjxyZWN0IGZpbGw9Im5vbmUiIGhlaWdodD0iNiIgc3R5bGU9InN0cm9rZTojNTk1OTU5O3N0cm9rZS13aWR0aDoxOyIgd2lkdGg9IjYiIHg9IjI3NC41IiB5PSIxNzYuOTQ1MyIvPjx0ZXh0IGZpbGw9IiMwMDAwMDAiIGZvbnQtZmFtaWx5PSJzYW5zLXNlcmlmIiBmb250LXNpemU9IjE0IiBsZW5ndGhBZGp1c3Q9InNwYWNpbmciIHRleHRMZW5ndGg9IjcwIiB4PSIyODYuNSIgeT0iMTg0LjE4NzUiPlRyJiM3ODQxO25nX3RoJiMyMjU7aTwvdGV4dD48cmVjdCBmaWxsPSJub25lIiBoZWlnaHQ9IjYiIHN0eWxlPSJzdHJva2U6IzU5NTk1OTtzdHJva2Utd2lkdGg6MTsiIHdpZHRoPSI2IiB4PSIyNzQuNSIgeT0iMTkxLjkyOTciLz48dGV4dCBmaWxsPSIjMDAwMDAwIiBmb250LWZhbWlseT0ic2Fucy1zZXJpZiIgZm9udC1zaXplPSIxNCIgbGVuZ3RoQWRqdXN0PSJzcGFjaW5nIiB0ZXh0TGVuZ3RoPSI4NCIgeD0iMjg2LjUiIHk9IjE5OS4xNzE5Ij4mIzI3MjsmIzc4ODM7YV9jaCYjNzg4MTtfZ2lhbzwvdGV4dD48cmVjdCBmaWxsPSJub25lIiBoZWlnaHQ9IjYiIHN0eWxlPSJzdHJva2U6IzU5NTk1OTtzdHJva2Utd2lkdGg6MTsiIHdpZHRoPSI2IiB4PSIyNzQuNSIgeT0iMjA2LjkxNDEiLz48dGV4dCBmaWxsPSIjMDAwMDAwIiBmb250LWZhbWlseT0ic2Fucy1zZXJpZiIgZm9udC1zaXplPSIxNCIgbGVuZ3RoQWRqdXN0PSJzcGFjaW5nIiB0ZXh0TGVuZ3RoPSI5MSIgeD0iMjg2LjUiIHk9IjIxNC4xNTYzIj5UJiMyMzQ7bl9uZyYjNDMyOyYjNzkwMTtpX211YTwvdGV4dD48cmVjdCBmaWxsPSJub25lIiBoZWlnaHQ9IjYiIHN0eWxlPSJzdHJva2U6IzU5NTk1OTtzdHJva2Utd2lkdGg6MTsiIHdpZHRoPSI2IiB4PSIyNzQuNSIgeT0iMjIxLjg5ODQiLz48dGV4dCBmaWxsPSIjMDAwMDAwIiBmb250LWZhbWlseT0ic2Fucy1zZXJpZiIgZm9udC1zaXplPSIxNCIgbGVuZ3RoQWRqdXN0PSJzcGFjaW5nIiB0ZXh0TGVuZ3RoPSI5MSIgeD0iMjg2LjUiIHk9IjIyOS4xNDA2Ij5TJiM3ODg5O18mIzI3MztpJiM3ODc5O25fdGhvJiM3ODQxO2k8L3RleHQ+PHJlY3QgZmlsbD0ibm9uZSIgaGVpZ2h0PSI2IiBzdHlsZT0ic3Ryb2tlOiM1OTU5NTk7c3Ryb2tlLXdpZHRoOjE7IiB3aWR0aD0iNiIgeD0iMjc0LjUiIHk9IjIzNi44ODI4Ii8+PHRleHQgZmlsbD0iIzAwMDAwMCIgZm9udC1mYW1pbHk9InNhbnMtc2VyaWYiIGZvbnQtc2l6ZT0iMTQiIGxlbmd0aEFkanVzdD0ic3BhY2luZyIgdGV4dExlbmd0aD0iNTYiIHg9IjI4Ni41IiB5PSIyNDQuMTI1Ij5OZyYjMjI0O3lfJiMyNzM7JiM3ODYzO3Q8L3RleHQ+PGxpbmUgc3R5bGU9InN0cm9rZTojMTgxODE4O3N0cm9rZS13aWR0aDowLjU7IiB4MT0iMjY3LjUiIHgyPSI0MzguNSIgeTE9IjI0OS44NzUiIHkyPSIyNDkuODc1Ii8+PGVsbGlwc2UgY3g9IjI3Ny41IiBjeT0iMjYyLjg2NzIiIGZpbGw9IiNBNkE2QTYiIHJ4PSIzIiByeT0iMyIgc3R5bGU9InN0cm9rZTojNTQ1NDU0O3N0cm9rZS13aWR0aDoxOyIvPjx0ZXh0IGZpbGw9IiMwMDAwMDAiIGZvbnQtZmFtaWx5PSJzYW5zLXNlcmlmIiBmb250LXNpemU9IjE0IiBsZW5ndGhBZGp1c3Q9InNwYWNpbmciIHRleHRMZW5ndGg9IjE0NyIgeD0iMjg2LjUiIHk9IjI2Ny4xMDk0Ij5DJiM3ODUzO3BfbmgmIzc4NTM7dF90ciYjNzg0MTtuZ190aCYjMjI1O2koKTwvdGV4dD48L2c+PGcgY2xhc3M9ImVudGl0eSIgZGF0YS1lbnRpdHk9IkdNTjciIGRhdGEtc291cmNlLWxpbmU9IjM5IiBkYXRhLXVpZD0iZW50MDAwOCIgaWQ9ImVudGl0eV9HTU43Ij48cGF0aCBkPSJNNiw2IEw2LDI5LjkxNDEgQTAsMCAwIDAgMCA2LDI5LjkxNDEgTDIwMS44NiwyOS45MTQxIEwyNjYuMTcsOTEuNzQgTDIwOS44NiwyOS45MTQxIEwzODQuNSwyOS45MTQxIEEwLDAgMCAwIDAgMzg0LjUsMjkuOTE0MSBMMzg0LjUsMTYgTDM3NC41LDYgTDYsNiBBMCwwIDAgMCAwIDYsNiIgZmlsbD0iI0ZBRkFGQSIgc3R5bGU9InN0cm9rZTojMTgxODE4O3N0cm9rZS13aWR0aDowLjU7Ii8+PHBhdGggZD0iTTM3NC41LDYgTDM3NC41LDE2IEwzODQuNSwxNiBMMzc0LjUsNiIgZmlsbD0iI0ZBRkFGQSIgc3R5bGU9InN0cm9rZTojMTgxODE4O3N0cm9rZS13aWR0aDowLjU7Ii8+PHRleHQgZmlsbD0iIzAwMDAwMCIgZm9udC1mYW1pbHk9InNhbnMtc2VyaWYiIGZvbnQtc2l6ZT0iMTMiIGxlbmd0aEFkanVzdD0ic3BhY2luZyIgdGV4dExlbmd0aD0iMzU3LjUiIHg9IjEyIiB5PSIyMy4yODkxIj5PcmRlciAmIzI3MzsmIzQzMjsmIzc5MDc7YyB0JiM3ODQxO28gdCYjNzkxNTsgdGgmIzI0NDtuZyB0aW4gVGhhbmggdG8mIzIyNTtuIHNhdSBraGkgaG8mIzIyNDtuIHQmIzc4NDU7dDwvdGV4dD48L2c+PGcgY2xhc3M9ImVudGl0eSIgZGF0YS1lbnRpdHk9IkdNTjEwIiBkYXRhLXNvdXJjZS1saW5lPSI0MyIgZGF0YS11aWQ9ImVudDAwMTEiIGlkPSJlbnRpdHlfR01OMTAiPjxwYXRoIGQ9Ik00MTksNiBMNDE5LDI5LjkxNDEgQTAsMCAwIDAgMCA0MTksMjkuOTE0MSBMNjk5LjU3LDI5LjkxNDEgTDY3MC43LDk3LjI5IEw3MDcuNTcsMjkuOTE0MSBMOTk5LDI5LjkxNDEgQTAsMCAwIDAgMCA5OTksMjkuOTE0MSBMOTk5LDE2IEw5ODksNiBMNDE5LDYgQTAsMCAwIDAgMCA0MTksNiIgZmlsbD0iI0ZBRkFGQSIgc3R5bGU9InN0cm9rZTojMTgxODE4O3N0cm9rZS13aWR0aDowLjU7Ii8+PHBhdGggZD0iTTk4OSw2IEw5ODksMTYgTDk5OSwxNiBMOTg5LDYiIGZpbGw9IiNGQUZBRkEiIHN0eWxlPSJzdHJva2U6IzE4MTgxODtzdHJva2Utd2lkdGg6MC41OyIvPjx0ZXh0IGZpbGw9IiMwMDAwMDAiIGZvbnQtZmFtaWx5PSJzYW5zLXNlcmlmIiBmb250LXNpemU9IjEzIiBsZW5ndGhBZGp1c3Q9InNwYWNpbmciIHRleHRMZW5ndGg9IjU1OSIgeD0iNDI1IiB5PSIyMy4yODkxIj5UaCYjMjQ0O25nIHRpbiBOZyYjNDMyOyYjNzkwMTtpIG11YSAodCYjMjM0O24sIHMmIzc4ODk7ICYjMjczO2kmIzc4Nzk7biB0aG8mIzc4NDE7aSwgJiMyNzM7JiM3ODgzO2EgY2gmIzc4ODE7KSAmIzI3MzsmIzQzMjsmIzc5MDc7YyBuaCYjNzg1MztwIHRyb25nIFF1eSB0ciYjMjM2O25oIHRoYW5oIHRvJiMyMjU7bjwvdGV4dD48L2c+PCEtLXJldmVyc2UgbGluayBQYXltZW50IHRvIFBheW1lbnRJbmZvLS0+PGcgY2xhc3M9ImxpbmsiIGRhdGEtZW50aXR5LTE9IlBheW1lbnQiIGRhdGEtZW50aXR5LTI9IlBheW1lbnRJbmZvIiBkYXRhLXNvdXJjZS1saW5lPSIxNyIgZGF0YS11aWQ9ImxuazQiIGlkPSJsaW5rX1BheW1lbnRfUGF5bWVudEluZm8iPjxwYXRoIGNvZGVMaW5lPSIxNyIgZD0iTTU0MS4zNzcyLDI3Mi42MjIxIEM1MTYuMDQ3MiwyOTguMzcyMSA1MDEuOTEsMzEyLjc1IDQ4Mi4xNiwzMzIuODMiIGZpbGw9Im5vbmUiIGlkPSJQYXltZW50LWJhY2t0by1QYXltZW50SW5mbyIgc3R5bGU9InN0cm9rZTojMTgxODE4O3N0cm9rZS13aWR0aDoxOyIvPjxwb2x5Z29uIGZpbGw9Im5vbmUiIHBvaW50cz0iNTU0LDI1OS43OSw1MzcuMDk5OCwyNjguNDE0NSw1NDUuNjU0NSwyNzYuODI5OCw1NTQsMjU5Ljc5IiBzdHlsZT0ic3Ryb2tlOiMxODE4MTg7c3Ryb2tlLXdpZHRoOjE7Ii8+PC9nPjwhLS1saW5rIE9yZGVyIHRvIFBheW1lbnRJbmZvLS0+PGcgY2xhc3M9ImxpbmsiIGRhdGEtZW50aXR5LTE9Ik9yZGVyIiBkYXRhLWVudGl0eS0yPSJQYXltZW50SW5mbyIgZGF0YS1zb3VyY2UtbGluZT0iMzYiIGRhdGEtdWlkPSJsbms2IiBpZD0ibGlua19PcmRlcl9QYXltZW50SW5mbyI+PHBhdGggY29kZUxpbmU9IjM2IiBkPSJNNDAyLjY1LDI3My4yNyBDNDE0LjQyLDI5NC43OSA0MjYuMTgsMzE2LjI5IDQzNS4yNiwzMzIuOSIgZmlsbD0ibm9uZSIgaWQ9Ik9yZGVyLVBheW1lbnRJbmZvIiBzdHlsZT0ic3Ryb2tlOiMxODE4MTg7c3Ryb2tlLXdpZHRoOjE7Ii8+PHRleHQgZmlsbD0iIzAwMDAwMCIgZm9udC1mYW1pbHk9InNhbnMtc2VyaWYiIGZvbnQtc2l6ZT0iMTMiIGxlbmd0aEFkanVzdD0ic3BhY2luZyIgdGV4dExlbmd0aD0iNi41IiB4PSI0MDAuMjQwOCIgeT0iMjkzLjEyMzIiPjE8L3RleHQ+PHRleHQgZmlsbD0iIzAwMDAwMCIgZm9udC1mYW1pbHk9InNhbnMtc2VyaWYiIGZvbnQtc2l6ZT0iMTMiIGxlbmd0aEFkanVzdD0ic3BhY2luZyIgdGV4dExlbmd0aD0iNi41IiB4PSI0MjQuNzUyOSIgeT0iMzIzLjQ4NTkiPjE8L3RleHQ+PC9nPjwhLS1TUkM9W2JQRV9Kam4wNENSeFZPZUgzUTFtSE5nd3E1MTBXZXYtalY4UHgtaEVpdXd6QmF3NDBiNFdIOUNoS2FSWVg1OGF2MklHYTkzaThlTEZsQ1UtMlJEX3hoV2hHNGhaak1UZHZmbGxqenZnZ0IwR2ZTV1hyd1dKTVVleTFMRk1BTURpNHV3YlJIeUlDQkhTV0I3ajdNS0R3YjRBSF9NT2loZ19BNmJKa0FWa2ZpWUlhUVdnLTJCNlVPZTZKWGIwM19SdF83OWlzbi1PU1FEaVV1dVhHYnJfQWZ1ZjRSdlpNVHk4S3JTeWJpc19zX1BReThIb2hyb2d6ajR6YWtITERxdGVRUGpSdjhNcXBVeXlqRXQtOENWaS1UdnRwc2xYZXR0UkpsWHlHa2dObzh0S2pmYWdUa095eGtFOWZiY005YzFlY3RfVXlmcThka0RXUkU1aHpyamxFUXNoTmhWai12c2tFWmY4SU4zVzc3ZDFwLUtXQk1FRFZyeTd6UXd0MDM2SFlnQlRCQ0hBeWtCOG9ldWlsU3RpRnhZdVpTRWlrbmRKWmNzVTMwSy1tMlZScDBnRURDcENTQkNna2hLVFoxckdCbUxWUXU1MHFmU2ljRGx1azA3NG9vc2hwMVhnR3QtUUJhMlZIMkdHU1NtZFJpWFIta3o4SDhTcDhBNTdwQzBlTjNraElqR21iMGdheGN4R3ZWeW9CQ0sxa0VSaDRlajMxQWZWalpnQ0U4MW1tOU9YR1pqR2FHazhIMjBJc1E2ME9tZ1V3VlJoWDF2N0dMVDFLeVN0QmlMWWRYUzBdLS0+PC9nPjwvc3ZnPg==;" vertex="1" parent="1">
            <mxGeometry x="1510" y="1860" width="1006" height="402" as="geometry" />
          </mxCell>
        </UserObject>
        <mxCell id="hOMp0XotWCSOrfg5AZzA-2" value="&lt;font style=&quot;font-size: 18px;&quot;&gt;&lt;b style=&quot;&quot;&gt;Đơn hàng&lt;/b&gt;&lt;/font&gt;" style="text;html=1;align=center;verticalAlign=middle;whiteSpace=wrap;rounded=0;" vertex="1" parent="1">
          <mxGeometry x="1880" y="1810" width="200" height="30" as="geometry" />
        </mxCell>
      </root>
    </mxGraphModel>
  </diagram>
</mxfile>
